<svg xmlns="http://www.w3.org/2000/svg" width="32px" height="32px" viewBox="0 0 32 32" version="1.1">
    <title>fill-ele-building-s-shop</title>
    <g id="fill-ele-building-s-shop" stroke-width="1" fill-rule="evenodd">
        <path d="M6.8672954,3 L25.1327046,3 C25.630355,3 26.0522757,3.36592991 26.1226541,3.85857864 L28,17 C28.5,22 22,22 22,17 C22,22 16,22 16,17 C16,22 10,22 10,17 C10,22 3.5,22 4,17 L5.87734591,3.85857864 C5.9477243,3.36592991 6.36964503,3 6.8672954,3 Z M23.9990447,22.6108247 C24.3799142,22.7022905 24.7776622,22.75 25.1875,22.75 C25.4657983,22.75 25.7370072,22.7280801 25.999743,22.6855344 L26,28 C26,28.5522847 25.5522847,29 25,29 L7,29 C6.44771525,29 6,28.5522847 6,28 L5.99914508,22.6852842 C6.26222182,22.7280177 6.53380615,22.75 6.8125,22.75 L7.02326236,22.7457704 C7.35872313,22.7322663 7.68534631,22.6865812 8.00042132,22.6109529 L8,25 L24,25 L23.9990447,22.6108247 Z" id="&#24418;&#29366;" />
    </g>
</svg>