<svg xmlns="http://www.w3.org/2000/svg" width="32px" height="32px" viewBox="0 0 32 32" version="1.1">
    <title>fill-ele-symbol-warning-circle</title>
    <g id="fill-ele-symbol-warning-circle" stroke-width="1" fill-rule="evenodd">
        <path d="M16,2 C23.7319865,2 30,8.2680135 30,16 C30,23.7319865 23.7319865,30 16,30 C8.2680135,30 2,23.7319865 2,16 C2,8.2680135 8.2680135,2 16,2 Z M16,21 C15.1715729,21 14.5,21.6715729 14.5,22.5 C14.5,23.3284271 15.1715729,24 16,24 C16.8284271,24 17.5,23.3284271 17.5,22.5 C17.5,21.6715729 16.8284271,21 16,21 Z M16,8 C15.9447959,8 15.8896202,8.00250283 15.8346429,8.00750077 C14.8300764,8.09882499 14.0897473,8.98721994 14.1810715,9.99178641 L14.9094643,18.0041068 C14.9607396,18.5681354 15.4336455,19 16,19 C16.5663545,19 17.0392604,18.5681354 17.0905357,18.0041068 L17.8189285,9.99178641 C17.8239265,9.93680905 17.8264293,9.88163335 17.8264293,9.82642928 C17.8264293,8.81772024 17.008709,8 16,8 Z" id="&#24418;&#29366;" />
    </g>
</svg>