<svg xmlns="http://www.w3.org/2000/svg" width="32px" height="32px" viewBox="0 0 32 32" version="1.1">
    <title>fill-new-other-sport-baseball</title>
    <g id="fill-new-other-sport-baseball" stroke-width="1" fill-rule="evenodd">
        <path d="M15.687355,2.00342205 L16.1465059,2.00075073 C15.1057463,3.57856694 14.5,5.46854365 14.5,7.5 C14.5,13.0228475 18.9771525,17.5 24.5,17.5 C26.5311564,17.5 28.4208749,16.8944326 29.998461,15.8539923 L30,16 C30,23.7319865 23.7319865,30 16,30 L15.8529626,29.9992438 C16.8944326,28.4208749 17.5,26.5311564 17.5,24.5 C17.5,18.9771525 13.0228475,14.5 7.5,14.5 C5.46854365,14.5 3.57856694,15.1057463 2.00084,16.1464688 L2,16 C2,8.37249981 8.09975237,2.16967311 15.687355,2.00342205 L15.687355,2.00342205 Z M7.5,16.5 C11.918278,16.5 15.5,20.081722 15.5,24.5 C15.5,26.5233776 14.7488275,28.3713095 13.5101401,29.780138 C7.77408787,28.749821 3.25017903,24.2259121 2.22066979,18.48943 C3.62869052,17.2511725 5.47662239,16.5 7.5,16.5 Z M18.48943,2.22066979 C24.2259121,3.25017903 28.749821,7.77408787 29.7793302,13.51057 C28.3713095,14.7488275 26.5233776,15.5 24.5,15.5 C20.081722,15.5 16.5,11.918278 16.5,7.5 C16.5,5.61042199 17.1551118,3.87385355 18.2506,2.50503024 L18.48943,2.22066979 Z" id="&#24418;&#29366;" />
    </g>
</svg>