<svg xmlns="http://www.w3.org/2000/svg" width="32px" height="32px" viewBox="0 0 32 32" version="1.1">
    <title>fill-new-digital-news</title>
    <g id="fill-new-digital-news" stroke-width="1" fill-rule="evenodd">
        <path d="M17.0709112,4.99887029 C16.3898265,6.17581903 16,7.54238508 16,9 C16,13.418278 19.581722,17 24,17 C25.4576273,17 26.8242042,16.6101668 28.0011597,15.9290715 L28,25 C28,27.209139 26.209139,29 24,29 L8,29 C5.790861,29 4,27.209139 4,25 L4,9 C4,6.790861 5.790861,5 8,5 L17.0709112,4.99887029 Z M24,3 C27.3137085,3 30,5.6862915 30,9 C30,12.3137085 27.3137085,15 24,15 C20.6862915,15 18,12.3137085 18,9 C18,5.6862915 20.6862915,3 24,3 Z" id="&#24418;&#29366;" />
    </g>
</svg>