<svg xmlns="http://www.w3.org/2000/svg" width="32px" height="32px" viewBox="0 0 32 32" version="1.1">
    <title>fill-new-other-view-eye-watch-see-hide-no-slash</title>
    <g id="fill-new-other-view-eye-watch-see-hide-no-slash" stroke-width="1" fill-rule="evenodd">
        <path d="M27.7071068,4.29289322 C28.0976311,4.68341751 28.0976311,5.31658249 27.7071068,5.70710678 L5.70710678,27.7071068 C5.31658249,28.0976311 4.68341751,28.0976311 4.29289322,27.7071068 C3.90236893,27.3165825 3.90236893,26.6834175 4.29289322,26.2928932 L6.61110867,23.9744139 C4.32200574,22.3032481 2.28464625,19.9397878 0.499030204,16.884033 L0.272324765,16.4916178 C0.100072857,16.1865051 0.100072857,15.8134949 0.272324765,15.5083822 C4.24156541,8.50292791 9.48388672,5 16,5 C18.7870211,5 21.3410177,5.64081766 23.6619896,6.92245298 L26.2928932,4.29289322 C26.6834175,3.90236893 27.3165825,3.90236893 27.7071068,4.29289322 Z M26.9419613,9.30096585 C28.7022798,10.9156152 30.2972806,12.9848878 31.7269639,15.5087837 C31.8999271,15.8134949 31.8999271,16.1865051 31.7276752,16.4916178 C27.7584346,23.4970721 22.5161133,27 16,27 C13.9653426,27 12.0548802,26.658464 10.2686127,25.9753919 L13.6483824,22.5951954 C14.3833608,22.8572845 15.1750139,23 16,23 C19.8659932,23 23,19.8659932 23,16 C23,15.1750139 22.8572845,14.3833608 22.5951954,13.6483824 L26.9419613,9.30096585 Z M16,9 C12.1340068,9 9,12.1340068 9,16 C9,17.5719665 9.51816053,19.0229102 10.3929999,20.1913492 L13.2916805,17.2919717 C13.1046944,16.9007023 13,16.4625775 13,16 C13,14.3431458 14.3431458,13 16,13 C16.4625775,13 16.9007023,13.1046944 17.2919717,13.2916805 L20.1913492,10.3929999 C19.0229102,9.51816053 17.5719665,9 16,9 Z" id="&#24418;&#29366;" />
    </g>
</svg>