<svg xmlns="http://www.w3.org/2000/svg" width="32px" height="32px" viewBox="0 0 32 32" version="1.1">
    <title>fill-new-nature-weather-lightning-2 2</title>
    <g id="fill-new-nature-weather-lightning-2" stroke-width="1" fill-rule="evenodd">
        <path d="M23.0710678,23.0710678 C23.4615921,22.6805435 24.0947571,22.6805435 24.4852814,23.0710678 C24.8758057,23.4615921 24.8758057,24.0947571 24.4852814,24.4852814 C24.0947571,24.8758057 23.4615921,24.8758057 23.0710678,24.4852814 C22.6805435,24.0947571 22.6805435,23.4615921 23.0710678,23.0710678 Z M7.51471863,23.0710678 C7.90524292,22.6805435 8.5384079,22.6805435 8.92893219,23.0710678 C9.31945648,23.4615921 9.31945648,24.0947571 8.92893219,24.4852814 C8.5384079,24.8758057 7.90524292,24.8758057 7.51471863,24.4852814 C7.12419433,24.0947571 7.12419433,23.4615921 7.51471863,23.0710678 Z M16,8 C20.418278,8 24,11.581722 24,16 C24,20.418278 20.418278,24 16,24 C11.581722,24 8,20.418278 8,16 C8,11.581722 11.581722,8 16,8 Z M23.0710678,7.51471863 C23.4615921,7.12419433 24.0947571,7.12419433 24.4852814,7.51471863 C24.8758057,7.90524292 24.8758057,8.5384079 24.4852814,8.92893219 C24.0947571,9.31945648 23.4615921,9.31945648 23.0710678,8.92893219 C22.6805435,8.5384079 22.6805435,7.90524292 23.0710678,7.51471863 Z M7.51471863,7.51471863 C7.90524292,7.12419433 8.5384079,7.12419433 8.92893219,7.51471863 C9.31945648,7.90524292 9.31945648,8.5384079 8.92893219,8.92893219 C8.5384079,9.31945648 7.90524292,9.31945648 7.51471863,8.92893219 C7.12419433,8.5384079 7.12419433,7.90524292 7.51471863,7.51471863 Z M16,6 C16.5522847,6 17,5.55228475 17,5 C17,4.44771525 16.5522847,4 16,4 C15.4477153,4 15,4.44771525 15,5 C15,5.55228475 15.4477153,6 16,6 Z M26,16 C26,16.5522847 26.4477153,17 27,17 C27.5522847,17 28,16.5522847 28,16 C28,15.4477153 27.5522847,15 27,15 C26.4477153,15 26,15.4477153 26,16 Z M16,26 C15.4477153,26 15,26.4477153 15,27 C15,27.5522847 15.4477153,28 16,28 C16.5522847,28 17,27.5522847 17,27 C17,26.4477153 16.5522847,26 16,26 Z M6,16 C6,15.4477153 5.55228475,15 5,15 C4.44771525,15 4,15.4477153 4,16 C4,16.5522847 4.44771525,17 5,17 C5.55228475,17 6,16.5522847 6,16 Z" id="&#24418;&#29366;" />
    </g>
</svg>