<svg xmlns="http://www.w3.org/2000/svg" viewBox="0 0 32 32"><path fill="currentColor" d="M16 23.745A6.968 6.968 0 0 0 20 25c.34 0 .673-.024.999-.07L21 25a5 5 0 0 1-9.995.217l-.004-.29a6.967 6.967 0 0 0 4.913-1.123zm4-7A6.968 6.968 0 0 0 24 18c.34 0 .673-.024.999-.07L25 18a5 5 0 0 1-4.378 4.962l-.197.02-.233.014L20 23a4.977 4.977 0 0 1-2.501-.67l.235-.316.155-.23.07-.111c.071-.115.139-.232.203-.35l.116-.224c.056-.113.11-.228.16-.345l-.115.251a6.967 6.967 0 0 0 .646-3.665c.276-.129.541-.275.796-.438zM12 23l-.14-.002-.203-.01-.189-.016-.038-.004a5.001 5.001 0 0 1-4.425-4.743l-.004-.297a6.967 6.967 0 0 0 4.913-1.123l.086-.06a6.96 6.96 0 0 0 3 1.184l.34.04.295.021.16.007L16 18a7.083 7.083 0 0 0 .999-.07L17 18l-.006.256-.018.242-.029.232c-.02.142-.047.282-.08.42l-.063.242-.027.089-.047.144-.076.206-.105.247-.099.204-.127.231-.039.066-.125.198L16 21a5.026 5.026 0 0 1-1.413 1.28l-.087.05c-.086.05-.173.097-.262.141l-.263.123-.26.104a4.96 4.96 0 0 1-.501.154l-.251.055-.22.038-.18.024-.234.02-.057.004c-.09.005-.18.007-.272.007M8 6c1.636 0 3.088.785 4 2l.158.222.165.265.127.231.064.13.035.074.096.224.104.285.028.088.046.156a4.966 4.966 0 0 1 .124.595l.029.232.018.248.004.125L13 11l-.006.223-.011.196-.036.31c-.02.143-.047.283-.08.42l-.063.243-.027.089-.047.144-.085.228-.087.202-.111.233-.124.225-.039.066-.125.198L12 14c-.385.513-.867.95-1.418 1.283l-.095.055c-.156.09-.317.171-.483.244l-.295.118-.245.082-.3.082-.249.052-.051.01a4.947 4.947 0 0 1-.237.035l-.179.02-.19.012A5.078 5.078 0 0 1 8 16l-.279-.008-.17-.012-.12-.012A5 5 0 0 1 8 6m11-4a1 1 0 0 1 0 2h-2v2.1A5 5 0 0 1 20 8l.158.222.165.265.127.231.064.13.035.074.096.224.104.285.028.088.046.156a4.966 4.966 0 0 1 .124.595l.029.232.018.248.004.125L21 11l-.006.223-.011.196-.036.31c-.02.143-.047.283-.08.42l-.063.243-.027.089-.047.144a4.965 4.965 0 0 1-.181.453l-.099.204-.127.231-.039.066-.125.198L20 14a4.996 4.996 0 0 1-3.34 1.957l-.308.03-.16.01L16 16l-.172-.003-.17-.009-.115-.009-.141-.014a4.967 4.967 0 0 1-1.903-.635l.235-.316.13-.193.12-.186.09-.152.088-.16.198-.395.101-.23c.347-.83.539-1.742.539-2.698a6.97 6.97 0 0 0-1.5-4.33c.458-.266.963-.46 1.5-.57V4h-2a1 1 0 0 1 0-2zm5 4a5 5 0 0 1 .622 9.962l-.197.02-.233.014L24 16a5.03 5.03 0 0 1-.89-.079l-.285-.06a4.961 4.961 0 0 1-1.326-.53l.237-.319.192-.29.146-.24.088-.16.198-.394.101-.23c.347-.83.539-1.742.539-2.698a6.97 6.97 0 0 0-1.5-4.33A4.963 4.963 0 0 1 24 6"/></svg>