<svg xmlns="http://www.w3.org/2000/svg" width="32px" height="32px" viewBox="0 0 32 32" version="1.1">
    <title>fill-new-tool-edit-gear-setting-2-hexagon</title>
    <g id="fill-new-tool-edit-gear-setting-2-hexagon" stroke-width="1" fill-rule="evenodd">
        <path d="M16.5,2.28867513 L27.6243557,8.71132487 C27.9337567,8.88995766 28.1243557,9.22008468 28.1243557,9.57735027 L28.1243557,22.4226497 C28.1243557,22.7799153 27.9337567,23.1100423 27.6243557,23.2886751 L16.5,29.7113249 C16.1905989,29.8899577 15.8094011,29.8899577 15.5,29.7113249 L4.37564435,23.2886751 C4.06624327,23.1100423 3.87564435,22.7799153 3.87564435,22.4226497 L3.87564435,9.57735027 C3.87564435,9.22008468 4.06624327,8.88995766 4.37564435,8.71132487 L15.5,2.28867513 C15.8094011,2.11004234 16.1905989,2.11004234 16.5,2.28867513 Z M16,11 C13.2385763,11 11,13.2385763 11,16 C11,18.7614237 13.2385763,21 16,21 C18.7614237,21 21,18.7614237 21,16 C21,13.2385763 18.7614237,11 16,11 Z" id="&#24418;&#29366;" />
    </g>
</svg>