<svg xmlns="http://www.w3.org/2000/svg" viewBox="0 0 32 32"><path fill="currentColor" d="M28 25v4a1 1 0 0 1-1 1H5a1 1 0 0 1-1-1v-4zm1-15a1 1 0 0 1 1 1v11a1 1 0 0 1-1 1H3a1 1 0 0 1-1-1V11a1 1 0 0 1 1-1zm-18.6 2.5H5.5v8h2v-2h2.9a1.1 1.1 0 0 0 1.1-1.1v-3.8a1.1 1.1 0 0 0-1.1-1.1m8.6 0h-4.9a1.1 1.1 0 0 0-1.1 1.1v2.8l.006.12a1.1 1.1 0 0 0 1.094.98H17v1h-4v2h4.9a1.1 1.1 0 0 0 1.1-1.1v-2.8l-.006-.12a1.1 1.1 0 0 0-1.094-.98H15v-1h4zm6.4 0h-4.9v8h4.9a1.1 1.1 0 0 0 1.1-1.1v-5.8a1.1 1.1 0 0 0-1.1-1.1m-.9 2v4h-2v-4zm-15 0v2h-2v-2zM20.086 2a1 1 0 0 1 .707.293L26.5 8H4V3a1 1 0 0 1 .883-.993L5 2z"/></svg>