<svg xmlns="http://www.w3.org/2000/svg" viewBox="0 0 32 32"><path fill="currentColor" d="M28 25v4a1 1 0 0 1-1 1H5a1 1 0 0 1-1-1v-4zm1-15a1 1 0 0 1 1 1v11a1 1 0 0 1-1 1H3a1 1 0 0 1-1-1V11a1 1 0 0 1 1-1zm-18.6 2.5H5.5v8h4.9a1.1 1.1 0 0 0 1.1-1.1v-5.8a1.1 1.1 0 0 0-1.1-1.1m7.5 0h-3.8a1.1 1.1 0 0 0-1.1 1.1v5.8a1.1 1.1 0 0 0 1.1 1.1h3.8a1.1 1.1 0 0 0 1.1-1.1v-5.8a1.1 1.1 0 0 0-1.1-1.1m7.5 0h-3.8a1.1 1.1 0 0 0-1.1 1.1v5.8a1.1 1.1 0 0 0 1.1 1.1h3.8a1.1 1.1 0 0 0 1.1-1.1v-1.9h-2v1h-2v-4h2v1h2v-1.9a1.1 1.1 0 0 0-1.1-1.1m-15.9 2v4h-2v-4zm7.5 0v4h-2v-4zM20.086 2a1 1 0 0 1 .707.293L26.5 8H4V3a1 1 0 0 1 .883-.993L5 2z"/></svg>