<svg xmlns="http://www.w3.org/2000/svg" width="32px" height="32px" viewBox="0 0 32 32" version="1.1">
    <title>fill-new-symbol-download-cloud-arrow-down</title>
    <g id="fill-new-symbol-download-cloud-arrow-down" stroke-width="1" fill-rule="evenodd">
        <path d="M17,21 L17,26.585 L19.2928932,24.2928932 C19.6533772,23.9324093 20.2206082,23.9046797 20.6128994,24.2097046 L20.7071068,24.2928932 C21.0976311,24.6834175 21.0976311,25.3165825 20.7071068,25.7071068 L16.7071068,29.7071068 C16.3165825,30.0976311 15.6834175,30.0976311 15.2928932,29.7071068 L11.2928932,25.7071068 C10.9023689,25.3165825 10.9023689,24.6834175 11.2928932,24.2928932 L11.3871006,24.2097046 C11.7793918,23.9046797 12.3466228,23.9324093 12.7071068,24.2928932 L15,26.585 L15,21 L17,21 Z M16,2 C19.1503386,2 21.9226257,3.61863055 23.5305834,6.06961362 C27.1847499,6.57208903 30,9.70727607 30,13.5 C30,17.6421356 26.6421356,21 22.5,21 L17,21 L17,14 C17,13.4477153 16.5522847,13 16,13 C15.4477153,13 15,13.4477153 15,14 L15,21 L9,21 C5.13400675,21 2,17.8659932 2,14 C2,10.5110244 4.55254617,7.61822793 7.8920594,7.08718966 C9.34867179,4.07644508 12.431846,2 16,2 Z" id="&#24418;&#29366;" />
    </g>
</svg>