<svg xmlns="http://www.w3.org/2000/svg" width="32px" height="32px" viewBox="0 0 32 32" version="1.1">
    <title>fill-new-other-unlock</title>
    <g id="fill-new-other-unlock" stroke-width="1" fill-rule="evenodd">
        <path d="M16,2 C19.269625,2 22.1727325,3.97989374 23.3983528,6.95143255 L21.549445,7.71402021 C20.6300853,5.48501577 18.4526147,4 16,4 C12.6862915,4 10,6.6862915 10,10 L9.999,12 L27,12 C27.5522847,12 28,12.4477153 28,13 L28,29 C28,29.5522847 27.5522847,30 27,30 L5,30 C4.44771525,30 4,29.5522847 4,29 L4,13 C4,12.4477153 4.44771525,12 5,12 L7.999,12 L8,10 C8,5.581722 11.581722,2 16,2 Z M16,17 C15.4477153,17 15,17.4477153 15,18 L15,24 C15,24.5522847 15.4477153,25 16,25 C16.5522847,25 17,24.5522847 17,24 L17,18 C17,17.4477153 16.5522847,17 16,17 Z" id="&#24418;&#29366;" fill-rule="nonzero" />
    </g>
</svg>