<svg xmlns="http://www.w3.org/2000/svg" width="32px" height="32px" viewBox="0 0 32 32" version="1.1">
    <title>fill-new-food-dish-2-line</title>
    <g id="fill-new-food-dish-2-line" stroke-width="1" fill-rule="evenodd">
        <path d="M29,26 C29.5522847,26 30,26.4477153 30,27 C30,27.5522847 29.5522847,28 29,28 L3,28 C2.44771525,28 2,27.5522847 2,27 C2,26.4477153 2.44771525,26 3,26 L29,26 Z M16,10 C23.7319865,10 30,16.2680135 30,24 L2,24 C2,16.2680135 8.2680135,10 16,10 Z M12,6 C11.4477153,6 11,5.55228475 11,5 C11,4.44771525 11.4477153,4 12,4 L20,4 C20.5522847,4 21,4.44771525 21,5 C21,5.55228475 20.5522847,6 20,6 L17,6 L17,10 L15,10 L15,6 L12,6 Z" id="&#24418;&#29366;" fill-rule="nonzero" />
    </g>
</svg>