<svg xmlns="http://www.w3.org/2000/svg" width="32px" height="32px" viewBox="0 0 32 32" version="1.1">
    <title>fill-new-other-sport-basketball</title>
    <g id="fill-new-other-sport-basketball" stroke-width="1" fill-rule="evenodd">
        <path d="M15.9500649,14.0665793 C16.6490041,14.6886653 17.3113347,15.3509959 17.9334207,16.0499351 C15.5422443,17.8773199 14,20.7585547 14,24 C14,26.2515563 14.7441173,28.3293148 15.999844,30.0007673 C8.26747228,29.9994588 2,23.7316527 2,16 L2.01031678,16.0084712 C3.67986676,17.259167 5.75341797,18 8,18 C11.1826579,18 14.0180525,16.5131892 15.8494955,14.1962561 L15.9500649,14.0665793 Z M19.2013769,17.599493 C21.4047286,20.5327182 22.9516253,23.9872225 23.6239449,27.7448839 C22.0881032,28.7429921 20.3446443,29.4487713 18.4723655,29.7823818 C16.9487867,28.3264087 16,26.2740049 16,24 C16,21.4157242 17.2253595,19.1176464 19.1267577,17.6550876 L19.2013769,17.599493 Z M24,16 C26.2740049,16 28.3264087,16.9487867 29.7829428,18.4720912 C29.2272775,21.5877048 27.6417648,24.3463853 25.3908634,26.3833875 C24.5994085,22.7859876 23.0629021,19.4692105 20.9517774,16.601543 C21.8908595,16.2138279 22.9204587,16 24,16 Z M4.25511614,8.37605508 C8.01277754,9.04837474 11.4672818,10.5952714 14.400507,12.7986231 C12.9420887,14.742556 10.6178902,16 8,16 C5.72599514,16 3.67359127,15.0512133 2.21705725,13.5279088 C2.53510178,11.7458629 3.18964188,10.0807578 4.11294866,8.60060915 L4.25511614,8.37605508 Z M16,2 C23.7319865,2 30,8.2680135 30,16 C28.3293148,14.7441173 26.2515563,14 24,14 C22.4457981,14 20.9744083,14.3545607 19.6623043,14.9872086 C18.8436037,14.0423625 17.9576375,13.1563963 17.0119939,12.3375069 C17.6454393,11.0255917 18,9.55420188 18,8 C18,5.87822808 17.3391952,3.91079539 16.21216,2.29227626 L16,2 Z M13.5279088,2.21705725 C15.0512133,3.67359127 16,5.72599514 16,8 C16,9.07954135 15.7861721,10.1091405 15.3985594,11.0487544 C12.5307895,8.93709794 9.21401239,7.40059153 5.61795934,6.60853718 C7.59343738,4.42473152 10.2499307,2.86698193 13.2524768,2.26950347 L13.5279088,2.21705725 Z" id="&#24418;&#29366;" />
    </g>
</svg>