<svg xmlns="http://www.w3.org/2000/svg" width="32px" height="32px" viewBox="0 0 32 32" version="1.1">
    <title>fill-new-time-hourglass-empey</title>
    <g id="fill-new-time-hourglass-empey" stroke-width="1" fill-rule="evenodd">
        <path d="M27,2 C27.5522847,2 28,2.44771525 28,3 C28,3.55228475 27.5522847,4 27,4 L25.8843057,3.99966992 L25.8035089,4.5320923 C25.3127618,7.55158714 23.6982594,14.1399537 18.8092112,16.0012866 C24.0110149,17.9793467 25.5059003,25.3105835 25.884445,28.0013201 L27,28 C27.5522847,28 28,28.4477153 28,29 C28,29.5522847 27.5522847,30 27,30 L5,30 C4.44771525,30 4,29.5522847 4,29 C4,28.4477153 4.44771525,28 5,28 L6.11555499,28.0013201 L6.1972042,27.4635225 C6.68320717,24.4764211 8.26748946,18.0085022 13.0252352,16.0640471 C9.07925896,14.7995557 6.7665065,10.7784303 6.08701699,4.00117374 L5,4 C4.44771525,4 4,3.55228475 4,3 C4,2.44771525 4.44771525,2 5,2 L27,2 Z" id="&#36335;&#24452;" fill-rule="nonzero" />
    </g>
</svg>