<svg xmlns="http://www.w3.org/2000/svg" width="32px" height="32px" viewBox="0 0 32 32" version="1.1">
    <title>fill-new-people-minus-remove</title>
    <g id="fill-new-people-minus-remove" stroke-width="1" fill-rule="evenodd">
        <path d="M23,16 C26.8659932,16 30,19.1340068 30,23 C30,26.8659932 26.8659932,30 23,30 C19.1340068,30 16,26.8659932 16,23 C16,19.1340068 19.1340068,16 23,16 Z M15.5162589,17.9989396 C14.5585477,19.4292479 14,21.1493961 14,23 C14,25.3053753 14.8667953,27.4082996 16.2922591,29.0006464 L5,29 C4.44771525,29 4,28.5522847 4,28 L4,23 C4,20.2385763 6.23857625,18 9,18 L15.5162589,17.9989396 Z M25.5,22 L20.5,22 C19.9477153,22 19.5,22.4477153 19.5,23 C19.5,23.5522847 19.9477153,24 20.5,24 L25.5,24 C26.0522847,24 26.5,23.5522847 26.5,23 C26.5,22.4477153 26.0522847,22 25.5,22 Z M16,2 C19.8659932,2 23,5.13400675 23,9 C23,12.8659932 19.8659932,16 16,16 C12.1340068,16 9,12.8659932 9,9 C9,5.13400675 12.1340068,2 16,2 Z" id="&#24418;&#29366;" />
    </g>
</svg>