<svg xmlns="http://www.w3.org/2000/svg" width="32px" height="32px" viewBox="0 0 32 32" version="1.1">
    <title>fill-new-nature-weather-lightning-2</title>
    <g id="fill-new-nature-weather-lightning-2" stroke-width="1" fill-rule="evenodd">
        <path d="M18.8193999,1.69368245 L5.31887476,18.3708018 C4.97137817,18.8000623 5.03766091,19.4297483 5.4669214,19.7772449 C5.64495293,19.9213656 5.867065,20 6.09611963,20 L14,20 L11.7792912,29.6230713 C11.6799421,30.0535844 11.9484035,30.4831227 12.3789166,30.5824719 C12.6769634,30.6512519 12.988141,30.5440612 13.1806001,30.3063175 L26.6811252,13.6291982 C27.0286218,13.1999377 26.9623391,12.5702517 26.5330786,12.2227551 C26.3550471,12.0786344 26.132935,12 25.9038804,12 L18,12 L20.2207088,2.37692864 C20.320058,1.94641552 20.0515965,1.51687726 19.6210834,1.41752807 C19.3230367,1.34874805 19.0118591,1.45593879 18.8193999,1.69368245 Z" id="&#24418;&#29366;" />
    </g>
</svg>