<svg xmlns="http://www.w3.org/2000/svg" width="32px" height="32px" viewBox="0 0 32 32" version="1.1">
    <title>fill-new-communication-message-chat-dot-square</title>
    <g id="fill-new-communication-message-chat-dot-square" stroke-width="1" fill-rule="evenodd">
        <path d="M25,4 C27.209139,4 29,5.790861 29,8 L29,21 C29,23.209139 27.209139,25 25,25 L9,25 L4.6,28.3 C4.1581722,28.6313708 3.53137085,28.5418278 3.2,28.1 C3.07017787,27.9269038 3,27.7163702 3,27.5 L3,8 C3,5.790861 4.790861,4 7,4 L25,4 Z M10,13 C9.17157288,13 8.5,13.6715729 8.5,14.5 C8.5,15.3284271 9.17157288,16 10,16 C10.8284271,16 11.5,15.3284271 11.5,14.5 C11.5,13.6715729 10.8284271,13 10,13 Z M16,13 C15.1715729,13 14.5,13.6715729 14.5,14.5 C14.5,15.3284271 15.1715729,16 16,16 C16.8284271,16 17.5,15.3284271 17.5,14.5 C17.5,13.6715729 16.8284271,13 16,13 Z M22,13 C21.1715729,13 20.5,13.6715729 20.5,14.5 C20.5,15.3284271 21.1715729,16 22,16 C22.8284271,16 23.5,15.3284271 23.5,14.5 C23.5,13.6715729 22.8284271,13 22,13 Z" id="&#24418;&#29366;" />
    </g>
</svg>