<svg xmlns="http://www.w3.org/2000/svg" width="32px" height="32px" viewBox="0 0 32 32" version="1.1">
    <title>fill-new-other-bangzhu-help</title>
    <g id="fill-new-other-bangzhu-help" stroke-width="1" fill-rule="evenodd">
        <path d="M20.1922034,21.6063605 L25.1670751,26.5816294 C22.7109768,28.7112484 19.5059904,30 16,30 C12.4940096,30 9.28902318,28.7112484 6.83292489,26.5816294 L11.808276,21.6067195 C12.9767796,22.4817287 14.4278654,23 16,23 C17.5723496,23 19.0236173,22.4815869 20.1922034,21.6063605 Z M5.41837065,6.83292489 L10.3932805,11.808276 C9.51827134,12.9767796 9,14.4278654 9,16 C9,17.5723496 9.51841309,19.0236173 10.3936395,20.1922034 L5.41837065,25.1670751 C3.28875156,22.7109768 2,19.5059904 2,16 C2,12.4940096 3.28875156,9.28902318 5.41837065,6.83292489 Z M26.5816294,6.83292489 C28.7112484,9.28902318 30,12.4940096 30,16 C30,19.5059904 28.7112484,22.7109768 26.5816294,25.1670751 L21.6063605,20.1922034 C22.4815869,19.0236173 23,17.5723496 23,16 C23,14.4278654 22.4817287,12.9767796 21.6067195,11.808276 L26.5816294,6.83292489 Z M16,2 C19.5059904,2 22.7109768,3.28875156 25.1670751,5.41837065 L20.1922034,10.3936395 C19.0236173,9.51841309 17.5723496,9 16,9 C14.4278654,9 12.9767796,9.51827134 11.808276,10.3932805 L6.83292489,5.41837065 C9.28902318,3.28875156 12.4940096,2 16,2 Z" id="&#24418;&#29366;" />
    </g>
</svg>