<svg xmlns="http://www.w3.org/2000/svg" viewBox="0 0 32 32"><path fill="currentColor" d="M20 19a5 5 0 0 1 5 5v4a1 1 0 0 1-1 1H8a1 1 0 0 1-1-1v-4a5 5 0 0 1 5-5zM7.102 19A6.979 6.979 0 0 0 5 24v3H2a1 1 0 0 1-1-1v-3a4 4 0 0 1 4-4zM27 19a4 4 0 0 1 4 4v3a1 1 0 0 1-1 1h-3v-3c0-1.959-.805-3.73-2.102-5zM24 5a6 6 0 1 1-1.96 11.672A8.977 8.977 0 0 0 25 10a8.958 8.958 0 0 0-1.502-4.98c.164-.013.332-.02.502-.02M8 5c.17 0 .338.007.504.02A8.94 8.94 0 0 0 7 10a8.977 8.977 0 0 0 2.96 6.672A6 6 0 1 1 8 5m8-2a7 7 0 1 1 0 14 7 7 0 0 1 0-14"/></svg>