<svg xmlns="http://www.w3.org/2000/svg" width="32px" height="32px" viewBox="0 0 32 32" version="1.1">
    <title>fill-ele-symbol-info-circle</title>
    <g id="fill-ele-symbol-info-circle" stroke-width="1" fill-rule="evenodd">
        <path d="M16,2 C23.7319865,2 30,8.2680135 30,16 C30,23.7319865 23.7319865,30 16,30 C8.2680135,30 2,23.7319865 2,16 C2,8.2680135 8.2680135,2 16,2 Z M16.5,12 C14.5,12 13.25,13.25 12,15 L12,16 L12.56,15.45 C13.2533333,14.7833333 13.7333333,14.3833333 14,14.25 C14.4705882,14.0147059 14.7197232,14.2223183 14.5389782,14.8728374 L12.316312,22.0450891 L12.25,22.25 C12,23 12,25 14.25,25 C16.3333333,25 17.3449931,23.7139918 18.2772697,22.3327237 L18.5,22 L18.5,21 C17.6666667,22.1666667 17,22.8333333 16.5,23 C15.825,23.225 15.7575,22.8425 15.933,22.217 L16.0284576,21.9146271 L18.5,14.5 C18.75,13.75 18.5,12 16.5,12 Z M18,7 C16.8954305,7 16,7.8954305 16,9 C16,10.1045695 16.8954305,11 18,11 C19.1045695,11 20,10.1045695 20,9 C20,7.8954305 19.1045695,7 18,7 Z" id="&#24418;&#29366;" />
    </g>
</svg>