<svg xmlns="http://www.w3.org/2000/svg" viewBox="0 0 32 32"><path fill="currentColor" d="M17.496 14.132a1 1 0 0 1 .372 1.364L14.723 21H19a1 1 0 0 1 .919 1.395l-.05.101-4 7a1 1 0 1 1-1.737-.992l3.12-5.46.024-.044H13a1 1 0 0 1-.919-1.395l.05-.101 4-7a1 1 0 0 1 1.365-.372M16 2a8.003 8.003 0 0 1 7.775 6.109A7.5 7.5 0 0 1 22.5 23h-.671c.687-1.918-.731-4-2.829-4h-.831l1.436-2.512a3 3 0 1 0-5.21-2.976l-4 7-.101.196-.047.099-.064.16a2.957 2.957 0 0 0-.012 2.034L9.5 23A7.5 7.5 0 0 1 8.226 8.108 8.002 8.002 0 0 1 16 2"/></svg>