<svg xmlns="http://www.w3.org/2000/svg" viewBox="0 0 32 32"><path fill="currentColor" d="M18.894 1.789a14.485 14.485 0 0 1 7.964 4.6 3 3 0 0 0 2.897 5.013c.483 1.444.745 2.99.745 4.598 0 1.608-.262 3.154-.745 4.6a3 3 0 0 0-2.897 5.011 14.486 14.486 0 0 1-7.964 4.6 2.999 2.999 0 0 0-5.789-.001 14.476 14.476 0 0 1-7.963-4.6 3 3 0 0 0-2.897-5.012A14.453 14.453 0 0 1 1.5 16c0-1.608.262-3.154.745-4.6a3 3 0 0 0 2.898-5.01 14.482 14.482 0 0 1 7.963-4.601 2.999 2.999 0 0 0 5.771.063zM16 10.5a5.5 5.5 0 1 0 0 11 5.5 5.5 0 0 0 0-11"/></svg>