<svg xmlns="http://www.w3.org/2000/svg" viewBox="0 0 32 32"><path fill="currentColor" d="M23 16a7 7 0 1 1 0 14 7 7 0 0 1 0-14m-7.484 1.999A8.958 8.958 0 0 0 14 23c0 2.305.867 4.408 2.292 6H5a1 1 0 0 1-1-1v-5a5 5 0 0 1 5-5zm4.277 1.794a1 1 0 0 0 0 1.414L21.585 23l-1.792 1.793a1 1 0 0 0-.083 1.32l.083.094a1 1 0 0 0 1.414 0L23 24.415l1.793 1.792a1 1 0 0 0 1.32.083l.094-.083a1 1 0 0 0 0-1.414L24.415 23l1.792-1.793a1 1 0 0 0 .083-1.32l-.083-.094a1 1 0 0 0-1.414 0L23 21.585l-1.793-1.792a1 1 0 0 0-1.414 0M16 2a7 7 0 1 1 0 14 7 7 0 0 1 0-14"/></svg>