<svg xmlns="http://www.w3.org/2000/svg" viewBox="0 0 32 32"><path fill="currentColor" d="M22 27v2a1 1 0 0 1-2 0v-2zm-5 0v2a1 1 0 0 1-2 0v-2zm-5 0v2a1 1 0 0 1-2 0v-2zM23 7a2 2 0 0 1 2 2v14a2 2 0 0 1-2 2H9a2 2 0 0 1-2-2V9a2 2 0 0 1 2-2zM5 20v2H3a1 1 0 0 1 0-2zm24 0a1 1 0 0 1 0 2h-2v-2zM5 15v2H3a1 1 0 0 1 0-2zm24 0a1 1 0 0 1 0 2h-2v-2zM5 10v2H3a1 1 0 0 1 0-2zm24 0a1 1 0 0 1 0 2h-2v-2zM11 2a1 1 0 0 1 1 1v2h-2V3a1 1 0 0 1 1-1m5 0a1 1 0 0 1 1 1v2h-2V3a1 1 0 0 1 1-1m5 0a1 1 0 0 1 1 1v2h-2V3a1 1 0 0 1 1-1"/></svg>