<svg xmlns="http://www.w3.org/2000/svg" viewBox="0 0 32 32"><path fill="currentColor" d="M16 26a1 1 0 0 1 1 1v2a1 1 0 0 1-2 0v-2a1 1 0 0 1 1-1m8.485-2.929 1.414 1.414a1 1 0 1 1-1.414 1.414l-1.414-1.414a1 1 0 0 1 1.414-1.414m-15.556 0a1 1 0 0 1 0 1.414L7.515 25.9A1 1 0 0 1 6.1 24.485l1.414-1.414a1 1 0 0 1 1.414 0M16 8a8 8 0 1 1 0 16 8 8 0 0 1 0-16m13 7a1 1 0 0 1 0 2h-2a1 1 0 0 1 0-2zM5 15a1 1 0 0 1 0 2H3a1 1 0 0 1 0-2zm20.9-8.9a1 1 0 0 1 0 1.415l-1.415 1.414a1 1 0 0 1-1.414-1.414L24.485 6.1a1 1 0 0 1 1.414 0m-18.385 0 1.414 1.415a1 1 0 0 1-1.414 1.414L6.1 7.515A1 1 0 0 1 7.515 6.1M16 2a1 1 0 0 1 1 1v2a1 1 0 0 1-2 0V3a1 1 0 0 1 1-1"/></svg>