<svg xmlns="http://www.w3.org/2000/svg" viewBox="0 0 32 32"><path fill="currentColor" d="M6.737 3.851a1 1 0 0 1 .335.221L12.46 9.46a1 1 0 0 1 .161 1.203l-1.242 2.174a1 1 0 0 0 .161 1.203l6.42 6.42a1 1 0 0 0 1.203.161l2.174-1.242a1 1 0 0 1 1.203.161l5.388 5.388a1 1 0 0 1-.336 1.635l-7.98 3.192a1 1 0 0 1-1.078-.221L2.466 13.466a1 1 0 0 1-.221-1.078l3.192-7.98a1 1 0 0 1 1.3-.557M16 8a8 8 0 0 1 8 8 1 1 0 0 1-2 0 6 6 0 0 0-6-6 1 1 0 0 1 0-2m0-6c7.732 0 14 6.268 14 14a1 1 0 0 1-2 0c0-6.627-5.373-12-12-12a1 1 0 0 1 0-2"/></svg>