<svg xmlns="http://www.w3.org/2000/svg" width="32px" height="32px" viewBox="0 0 32 32" version="1.1">
    <title>fill-new-nature-weather-light-rain</title>
    <g id="fill-new-nature-weather-light-rain" stroke-width="1" fill-rule="evenodd">
        <path d="M9.5,23 C5.35786438,23 2,19.6421356 2,15.5 C2,11.7923125 4.69042423,8.71300727 8.22550809,8.10784886 C9.07463205,4.60318411 12.2333129,2 16,2 C19.7666871,2 22.925368,4.60318411 23.775106,8.10861573 C27.3095758,8.71300727 30,11.7923125 30,15.5 C30,19.6421356 26.6421356,23 22.5,23 L9.5,23 Z M10,27 C10.5522847,27 11,26.5522847 11,26 C11,25.4477153 10.5522847,25 10,25 C9.44771525,25 9,25.4477153 9,26 C9,26.5522847 9.44771525,27 10,27 Z M16,27 C16.5522847,27 17,26.5522847 17,26 C17,25.4477153 16.5522847,25 16,25 C15.4477153,25 15,25.4477153 15,26 C15,26.5522847 15.4477153,27 16,27 Z M22,27 C22.5522847,27 23,26.5522847 23,26 C23,25.4477153 22.5522847,25 22,25 C21.4477153,25 21,25.4477153 21,26 C21,26.5522847 21.4477153,27 22,27 Z M19,30 C19.5522847,30 20,29.5522847 20,29 C20,28.4477153 19.5522847,28 19,28 C18.4477153,28 18,28.4477153 18,29 C18,29.5522847 18.4477153,30 19,30 Z M13,30 C13.5522847,30 14,29.5522847 14,29 C14,28.4477153 13.5522847,28 13,28 C12.4477153,28 12,28.4477153 12,29 C12,29.5522847 12.4477153,30 13,30 Z" id="&#24418;&#29366;" />
    </g>
</svg>