<svg xmlns="http://www.w3.org/2000/svg" viewBox="0 0 32 32"><path fill="currentColor" d="M27.262 20.152C25.573 24.733 21.168 28 16 28a11.951 11.951 0 0 1-7.673-2.773c2.882-.04 6.214-.554 9.744-1.5 3.452-.925 6.535-2.113 9.023-3.481zM16 4c3.95 0 7.454 1.908 9.64 4.854 3.155.242 5.34 1.23 5.815 3.005.934 3.488-5.37 7.65-13.902 9.937C9.02 24.082 1.48 23.629.545 20.14c-.475-1.774.922-3.723 3.533-5.51C4.757 8.648 9.836 4 16 4M4.052 17.122c-1.166.96-1.751 1.844-1.575 2.501.176.658 1.125 1.131 2.612 1.378a11.912 11.912 0 0 1-.986-3.423zM26.912 11l.06.132c.516 1.163.853 2.424.976 3.747 1.165-.958 1.751-1.844 1.575-2.501-.166-.621-1.022-1.078-2.369-1.335z"/></svg>