<svg xmlns="http://www.w3.org/2000/svg" width="32px" height="32px" viewBox="0 0 32 32" version="1.1">
    <title>fill-new-finance-wallet</title>
    <g id="fill-new-finance-wallet" stroke-width="1" fill-rule="evenodd">
        <path d="M29,10 C29.5522847,10 30,10.4477153 30,11 L30,28 C30,28.5522847 29.5522847,29 29,29 L3,29 C2.44771525,29 2,28.5522847 2,28 L2,10 L29,10 Z M22,17 C20.8954305,17 20,17.8954305 20,19 C20,20.1045695 20.8954305,21 22,21 C23.1045695,21 24,20.1045695 24,19 C24,17.8954305 23.1045695,17 22,17 Z M3,3 L19,3 C19.5522847,3 20,3.44771525 20,4 L20,8 L2,8 L2,4 C2,3.44771525 2.44771525,3 3,3 Z" id="&#24418;&#29366;" />
    </g>
</svg>