<svg xmlns="http://www.w3.org/2000/svg" width="32px" height="32px" viewBox="0 0 32 32" version="1.1">
    <title>fill-ele-symbol-share</title>
    <g id="fill-ele-symbol-share" stroke-width="1" fill-rule="evenodd">
        <path d="M24,4 C26.209139,4 28,5.790861 28,8 C28,10.209139 26.209139,12 24,12 C22.9323228,12 21.9623465,11.5816924 21.2450205,10.9000265 L11.8147887,16.7933648 C11.935107,17.1741082 12,17.5794758 12,18 C12,18.142813 11.9925157,18.283878 11.9779179,18.4228241 L20.7245792,21.7034085 C21.4482074,20.6732672 22.6454787,20 24,20 C26.209139,20 28,21.790861 28,24 C28,26.209139 26.209139,28 24,28 C21.790861,28 20,26.209139 20,24 C20,23.8568437 20.0075203,23.7154438 20.0221875,23.5761739 L11.2754208,20.2965915 C10.5517926,21.3267328 9.35452128,22 8,22 C5.790861,22 4,20.209139 4,18 C4,15.790861 5.790861,14 8,14 C9.06767722,14 10.0376535,14.4183076 10.7549795,15.0999735 L20.184894,9.20563058 C20.0647789,8.82517877 20,8.42015435 20,8 C20,5.790861 21.790861,4 24,4 Z" id="&#36335;&#24452;" />
    </g>
</svg>