<svg xmlns="http://www.w3.org/2000/svg" width="32px" height="32px" viewBox="0 0 32 32" version="1.1">
    <title>fill-new-media-sound-headset-headphone-microphone-service</title>
    <g id="fill-new-media-sound-headset-headphone-microphone-service" stroke-width="1" fill-rule="evenodd">
        <path d="M16,2 C22.0090656,2 26.8927487,6.81833492 26.9982575,12.8022129 C28.792487,13.8386479 30,15.7783091 30,18 C30,20.6246078 28.3147926,22.8556142 25.9673886,23.6700087 C25.6312021,27.2215883 22.6400674,30 19,30 L15,30 C14.4477153,30 14,29.5522847 14,29 C14,28.4477153 14.4477153,28 15,28 L19,28 C21.4185387,28 23.4360122,26.2828356 23.8997409,24.0011864 L23,24 C22.4477153,24 22,23.5522847 22,23 L22,13 C22,12.4871642 22.3860402,12.0644928 22.8833789,12.0067277 L23,12 L24,12 C24.3242581,12 24.6425085,12.0257221 24.952822,12.0752371 C24.4906709,7.53967465 20.6587031,4 16,4 C11.3412969,4 7.50932908,7.53967465 7.04682256,12.076298 C7.35749153,12.0257221 7.67574191,12 8,12 L9,12 C9.55228475,12 10,12.4477153 10,13 L10,23 C10,23.5128358 9.61395981,23.9355072 9.11662113,23.9932723 L9,24 L8,24 C4.6862915,24 2,21.3137085 2,18 C2,15.8637587 3.11641365,13.9882698 4.79762366,12.9251506 L5.002,12.802 L5.0037074,12.7115925 C5.15663482,6.76976358 10.0212984,2 16,2 Z" id="&#36335;&#24452;" fill-rule="nonzero" />
    </g>
</svg>