<svg xmlns="http://www.w3.org/2000/svg" viewBox="0 0 32 32"><path fill="currentColor" d="M5.5 2h21c1 .021 1.828.359 2.484 1.016.656.657.995 1.485 1.016 2.484v21c-.02 1-.36 1.828-1.016 2.484-.657.656-1.485.995-2.484 1.016h-21c-1-.021-1.828-.359-2.484-1.016C2.36 28.327 2.021 27.499 2 26.5v-21c.02-1 .36-1.828 1.016-2.484C3.673 2.36 4.501 2.021 5.5 2m4.719 5.438c-2.417 1.646-3.911 3.813-4.484 6.5s-.099 5.281 1.422 7.781c1.667 2.396 3.844 3.88 6.531 4.453 2.687.573 5.27.088 7.75-1.453.292-.167.552-.354.781-.563a.584.584 0 0 0 .219-.375.566.566 0 0 0-.094-.406l-.469-.719c-.23-.354-.537-.573-.922-.656-.385-.083-.755-.01-1.109.219-1.77 1.083-3.61 1.422-5.516 1.016-1.907-.406-3.443-1.463-4.609-3.172-1.104-1.771-1.453-3.609-1.047-5.516.406-1.907 1.463-3.464 3.172-4.672 1.375-.854 2.844-1.239 4.406-1.156 1.562.083 2.979.635 4.25 1.656.042.021.073.062.094.125a.424.424 0 0 1 .094.406.752.752 0 0 1-.25.375l-6.156 4.031a1.43 1.43 0 0 0-.656.922c-.083.385-.02.755.188 1.109l.5.75a.617.617 0 0 0 .375.266.608.608 0 0 0 .438-.078l9.625-6.25c.25-.209.323-.459.219-.75v-.031l-.469-.844c-1.667-2.375-3.844-3.849-6.531-4.422-2.687-.573-5.27-.088-7.75 1.453zm14.375 8.343-1.938 1.25a.618.618 0 0 0-.266.375.458.458 0 0 0 .109.406l1.25 1.938a.617.617 0 0 0 .375.266.459.459 0 0 0 .406-.109l.969-.625c.417-.271.672-.63.766-1.078.094-.448.005-.88-.266-1.297l-.625-.969a.657.657 0 0 0-.375-.234.513.513 0 0 0-.406.078z"/></svg>