<svg xmlns="http://www.w3.org/2000/svg" viewBox="0 0 32 32"><path fill="currentColor" d="M9 4v3a1 1 0 0 0 1 1h12a1 1 0 0 0 1-1V4h4a1 1 0 0 1 1 1v24a1 1 0 0 1-1 1H5a1 1 0 0 1-1-1V5a1 1 0 0 1 1-1zm4.207 9.793a1 1 0 0 0-1.414 1.414L14.585 18l-2.792 2.793a1 1 0 0 0-.083 1.32l.083.094a1 1 0 0 0 1.414 0L16 19.415l2.793 2.792a1 1 0 0 0 1.32.083l.094-.083a1 1 0 0 0 0-1.414L17.415 18l2.792-2.793a1 1 0 0 0 .083-1.32l-.083-.094a1 1 0 0 0-1.414 0L16 16.585zM20 2a1 1 0 0 1 1 1v2a1 1 0 0 1-1 1h-8a1 1 0 0 1-1-1V3a1 1 0 0 1 1-1z"/></svg>