<svg xmlns="http://www.w3.org/2000/svg" width="32px" height="32px" viewBox="0 0 32 32" version="1.1">
    <title>fill-new-digital-turn-off</title>
    <g id="fill-new-digital-turn-off" stroke-width="1" fill-rule="evenodd">
        <path d="M22,6 C27.5228475,6 32,10.4771525 32,16 C32,21.5228475 27.5228475,26 22,26 L10,26 C4.4771525,26 0,21.5228475 0,16 C0,10.4771525 4.4771525,6 10,6 L22,6 Z M22,8 L10,8 C5.581722,8 2,11.581722 2,16 C2,20.418278 5.581722,24 10,24 L22,24 C26.418278,24 30,20.418278 30,16 C30,11.581722 26.418278,8 22,8 Z M10,11 C12.7614237,11 15,13.2385763 15,16 C15,18.7614237 12.7614237,21 10,21 C7.23857625,21 5,18.7614237 5,16 C5,13.2385763 7.23857625,11 10,11 Z" id="&#24418;&#29366;" fill-rule="nonzero" />
    </g>
</svg>