<svg xmlns="http://www.w3.org/2000/svg" width="32px" height="32px" viewBox="0 0 32 32" version="1.1">
    <title>fill-new-time-clock</title>
    <g id="fill-new-time-clock" stroke-width="1" fill-rule="evenodd">
        <path d="M16,2 C23.7319865,2 30,8.2680135 30,16 C30,23.7319865 23.7319865,30 16,30 C8.2680135,30 2,23.7319865 2,16 C2,8.2680135 8.2680135,2 16,2 Z M15,8 C14.4477153,8 14,8.44771525 14,9 L14,17 C14,17.5522847 14.4477153,18 15,18 L23,18 C23.5522847,18 24,17.5522847 24,17 L23.9932723,16.8833789 C23.9355072,16.3860402 23.5128358,16 23,16 L16,16 L16,9 C16,8.44771525 15.5522847,8 15,8 Z" id="&#24418;&#29366;" />
    </g>
</svg>