<svg xmlns="http://www.w3.org/2000/svg" width="32px" height="32px" viewBox="0 0 32 32" version="1.1">
    <title>fill-ele-media-picture-camera-solid</title>
    <g id="fill-ele-media-picture-camera-solid" stroke-width="1" fill-rule="evenodd">
        <path d="M21.381966,3 C21.7607381,3 22.1070012,3.21400238 22.2763932,3.5527864 L24,7 L29,7 C29.5522847,7 30,7.44771525 30,8 L30,28 C30,28.5522847 29.5522847,29 29,29 L3,29 C2.44771525,29 2,28.5522847 2,28 L2,8 C2,7.44771525 2.44771525,7 3,7 L8,7 L9.7236068,3.5527864 C9.89299881,3.21400238 10.2392619,3 10.618034,3 L21.381966,3 Z M16,11 C12.1340068,11 9,14.1340068 9,18 C9,21.8659932 12.1340068,25 16,25 C19.8659932,25 23,21.8659932 23,18 C23,14.1340068 19.8659932,11 16,11 Z M16,15 C17.6568542,15 19,16.3431458 19,18 C19,19.6568542 17.6568542,21 16,21 C14.3431458,21 13,19.6568542 13,18 C13,16.3431458 14.3431458,15 16,15 Z" id="&#24418;&#29366;" />
    </g>
</svg>