<svg xmlns="http://www.w3.org/2000/svg" width="32px" height="32px" viewBox="0 0 32 32" version="1.1">
    <title>fill-ele-symbol-grid-square-matrix</title>
    <g id="fill-ele-symbol-grid-square-matrix" stroke-width="1" fill-rule="evenodd">
        <path d="M4,4 L10,4 L10,10 L4,10 L4,4 Z M4,12 L10,12 L10,20 L4,20 L4,12 Z M4,22 L10,22 L10,28 L4,28 L4,22 Z M22,4 L28,4 L28,10 L22,10 L22,4 Z M22,22 L28,22 L28,28 L22,28 L22,22 Z M22,12 L28,12 L28,20 L22,20 L22,12 Z M12,12 L20,12 L20,20 L12,20 L12,12 Z M12,4 L20,4 L20,10 L12,10 L12,4 Z M12,22 L20,22 L20,28 L12,28 L12,22 Z" id="&#24418;&#29366;" />
    </g>
</svg>