<svg xmlns="http://www.w3.org/2000/svg" width="32px" height="32px" viewBox="0 0 32 32" version="1.1">
    <title>fill-ele-bag-filled-s-cooperation</title>
    <g id="fill-ele-bag-filled-s-cooperation" stroke-width="1" fill-rule="evenodd">
        <path d="M28,18 L28,27 C28,27.5522847 27.5522847,28 27,28 L5,28 C4.44771525,28 4,27.5522847 4,27 L4,18 L28,18 Z M21,4 C21.5522847,4 22,4.44771525 22,5 L22,10 L27,10 C27.5522847,10 28,10.4477153 28,11 L28,16 L4,16 L4,11 C4,10.4477153 4.44771525,10 5,10 L10,10 L10,5 C10,4.44771525 10.4477153,4 11,4 L21,4 Z M20,6 L12,6 L12,10 L20,10 L20,6 Z" id="&#24418;&#29366;" />
    </g>
</svg>