<svg xmlns="http://www.w3.org/2000/svg" viewBox="0 0 32 32"><path fill="currentColor" d="m21.268 2.876 3.464 2a1 1 0 0 1 .366 1.366L23.89 8.335A10.988 10.988 0 0 1 26.586 13H29a1 1 0 0 1 1 1v4a1 1 0 0 1-1 1h-2.414a10.988 10.988 0 0 1-2.696 4.665l1.208 2.093a1 1 0 0 1-.366 1.366l-3.464 2a1 1 0 0 1-1.366-.366l-1.207-2.09C17.833 26.884 16.93 27 16 27c-.93 0-1.833-.115-2.695-.333l-1.207 2.091a1 1 0 0 1-1.366.366l-3.464-2a1 1 0 0 1-.366-1.366l1.208-2.093A10.988 10.988 0 0 1 5.414 19H3a1 1 0 0 1-1-1v-4a1 1 0 0 1 1-1h2.414A10.988 10.988 0 0 1 8.11 8.335L6.902 6.242a1 1 0 0 1 .366-1.366l3.464-2a1 1 0 0 1 1.366.366l1.207 2.09A11.023 11.023 0 0 1 16 5c.93 0 1.833.115 2.695.333l1.207-2.091a1 1 0 0 1 1.366-.366M16 10a6 6 0 1 0 0 12 6 6 0 0 0 0-12"/></svg>