<svg xmlns="http://www.w3.org/2000/svg" width="32px" height="32px" viewBox="0 0 32 32" version="1.1">
    <title>fill-new-food-dessert</title>
    <g id="fill-new-food-dessert" stroke-width="1" fill-rule="evenodd">
        <path d="M21,29 C21,29.5128358 20.6139598,29.9355072 20.1166211,29.9932723 L20,30 L12,30 C11.4477153,30 11,29.5522847 11,29 C11,28.4477153 11.4477153,28 12,28 L15,28 L15.0005348,24.9589703 C8.94058573,24.4593058 4.15726152,19.4568948 4.00379986,13.3049748 L4,13 L28,13 C28,19.2905048 23.1597751,24.4505146 17.0004669,24.9588877 L17,28 L20,28 C20.5522847,28 21,28.4477153 21,29 Z M9,7 C11.4188915,7 13.4366008,8.71766536 13.8999437,10.999812 L4.10005628,10.999812 C4.56339924,8.71766536 6.5811085,7 9,7 Z M16,2 C18.4222436,2 20.5571336,3.23030663 21.8138615,5.10011126 C18.8362392,5.60851289 16.5002979,7.99695813 16.0708418,11.0003319 L15.9291444,11.0002324 C15.4996067,7.99656751 13.163248,5.60797402 10.1856054,5.09998898 C11.4428664,3.23030663 13.5777564,2 16,2 Z M23,7 C25.4188915,7 27.4366008,8.71766536 27.8999437,10.999812 L18.1000563,10.999812 C18.5633992,8.71766536 20.5811085,7 23,7 Z" id="&#24418;&#29366;" fill-rule="nonzero" />
    </g>
</svg>