<svg xmlns="http://www.w3.org/2000/svg" width="32px" height="32px" viewBox="0 0 32 32" version="1.1">
    <title>fill-new-nature-weather-moon-night-water</title>
    <g id="fill-new-nature-weather-moon-night-water" stroke-width="1" fill-rule="evenodd">
        <path d="M30,20 C30.5522847,20 31,20.4477153 31,21 C31,21.5522847 30.5522847,22 30,22 L2,22 C1.44771525,22 1,21.5522847 1,21 C1,20.4477153 1.44771525,20 2,20 L30,20 Z M17,24 C17.5522847,24 18,24.4477153 18,25 C18,25.5522847 17.5522847,26 17,26 L5,26 C4.44771525,26 4,25.5522847 4,25 C4,24.4477153 4.44771525,24 5,24 L17,24 Z M17,28 C17.5522847,28 18,28.4477153 18,29 C18,29.5522847 17.5522847,30 17,30 L10,30 C9.44771525,30 9,29.5522847 9,29 C9,28.4477153 9.44771525,28 10,28 L17,28 Z M18,2 C20.0249555,2 21.9494999,2.42991116 23.6873392,3.20343962 C24.4713205,3.55239696 24.4147511,4.23490745 23.6720861,4.43087157 C18.1046765,5.89992208 14,10.9706118 14,17 C14,17.336717 14.0128016,17.6704441 14.0379445,18.0008423 L4.14189822,18.0008423 C4.04838549,17.347368 4,16.6793345 4,16 C4,8.2680135 10.2680135,2 18,2 Z" id="&#24418;&#29366;" fill-rule="nonzero" />
    </g>
</svg>