<svg xmlns="http://www.w3.org/2000/svg" width="32px" height="32px" viewBox="0 0 32 32" version="1.1">
    <title>fill-new-tool-edit-magnifier-minus-zoom-out</title>
    <g id="fill-new-tool-edit-magnifier-minus-zoom-out" stroke-width="1" fill-rule="evenodd">
        <path d="M15,2 C22.1797017,2 28,7.82029825 28,15 C28,18.2296841 26.8222516,21.1842904 24.8728079,23.4577656 L29.7071068,28.2928932 C30.0976311,28.6834175 30.0976311,29.3165825 29.7071068,29.7071068 C29.3165825,30.0976311 28.6834175,30.0976311 28.2928932,29.7071068 L23.4577656,24.8728079 C21.1842904,26.8222516 18.2296841,28 15,28 C7.82029825,28 2,22.1797017 2,15 C2,7.82029825 7.82029825,2 15,2 Z M19,14 L11,14 C10.4477153,14 10,14.4477153 10,15 C10,15.5522847 10.4477153,16 11,16 L19,16 C19.5522847,16 20,15.5522847 20,15 C20,14.4477153 19.5522847,14 19,14 Z" id="&#24418;&#29366;" />
    </g>
</svg>