<svg xmlns="http://www.w3.org/2000/svg" width="32px" height="32px" viewBox="0 0 32 32" version="1.1">
    <title>fill-new-time-watch-2</title>
    <g id="fill-new-time-watch-2" stroke-width="1" fill-rule="evenodd">
        <path d="M21.0006412,25.800253 L21,29 C21,29.5522847 20.5522847,30 20,30 L12,30 C11.4477153,30 11,29.5522847 11,29 L10.9990102,25.8000748 C12.4993881,26.5672524 14.1991572,27 16,27 C17.8007033,27 19.5003486,26.5673194 21.0006412,25.800253 Z M16,7 C20.9705627,7 25,11.0294373 25,16 C25,20.9705627 20.9705627,25 16,25 C11.0294373,25 7,20.9705627 7,16 C7,11.0294373 11.0294373,7 16,7 Z M15,11 C14.4477153,11 14,11.4477153 14,12 L14,17 C14,17.5522847 14.4477153,18 15,18 L19,18 C19.5522847,18 20,17.5522847 20,17 L19.9932723,16.8833789 C19.9355072,16.3860402 19.5128358,16 19,16 L16,16 L16,12 C16,11.4477153 15.5522847,11 15,11 Z M20,2 C20.5522847,2 21,2.44771525 21,3 L21.0006412,6.19974699 C19.5003486,5.4326806 17.8007033,5 16,5 C14.1991572,5 12.4993881,5.43274763 10.9990102,6.19992523 L11,3 C11,2.44771525 11.4477153,2 12,2 L20,2 Z" id="&#24418;&#29366;" />
    </g>
</svg>