<svg xmlns="http://www.w3.org/2000/svg" width="32px" height="32px" viewBox="0 0 32 32" version="1.1">
    <title>fill-new-other-magnet-attract</title>
    <g id="fill-new-other-magnet-attract" stroke-width="1" fill-rule="evenodd">
        <path d="M12,12 L12,16 C12,18.209139 13.790861,20 16,20 C18.209139,20 20,18.209139 20,16 L20,12 L28,12 L28,16 C28,22.627417 22.627417,28 16,28 C9.372583,28 4,22.627417 4,16 L4,12 L12,12 Z M27,4 C27.5522847,4 28,4.44771525 28,5 L28,10 L20,10 L20,5 C20,4.44771525 20.4477153,4 21,4 L27,4 Z M4,5 C4,4.44771525 4.44771525,4 5,4 L11,4 C11.5522847,4 12,4.44771525 12,5 L12,10 L4,10 L4,5 Z" id="&#24418;&#29366;" />
    </g>
</svg>