<svg xmlns="http://www.w3.org/2000/svg" viewBox="0 0 32 32"><path fill="currentColor" d="M25.314 5.686c3.905 3.906 3.905 10.237 0 14.142-3.421 3.421-8.703 3.846-12.586 1.274l-7.213 7.212a2 2 0 1 1-2.829-2.829l7.25-7.248a8.003 8.003 0 0 1 1.236-9.722 6.5 6.5 0 0 1 9.192 0 5 5 0 0 1 0 7.07 3.5 3.5 0 0 1-4.95 0l-.112-.12a2.5 2.5 0 0 1 .112-3.415A1 1 0 0 0 14 10.636 4.5 4.5 0 0 0 14 17a5.5 5.5 0 0 0 7.778 0 7 7 0 0 0 0-9.9 8.501 8.501 0 0 0-11.305-.64c.217-.266.45-.525.699-.774 3.905-3.905 10.236-3.905 14.142 0"/></svg>