<svg xmlns="http://www.w3.org/2000/svg" width="32px" height="32px" viewBox="0 0 32 32" version="1.1">
    <title>fill-new-medic-health-pill</title>
    <g id="fill-new-medic-health-pill" stroke-width="1" fill-rule="evenodd">
        <path d="M26.6066017,5.39339828 C30.1213203,8.90811691 30.1213203,14.6066017 26.6066017,18.1213203 L18.1213203,26.6066017 C14.6066017,30.1213203 8.90811691,30.1213203 5.39339828,26.6066017 C1.87867966,23.0918831 1.87867966,17.3933983 5.39339828,13.8786797 L13.8786797,5.39339828 C17.3933983,1.87867966 23.0918831,1.87867966 26.6066017,5.39339828 Z M19.5355339,18.1213203 L13.8786797,12.4644661 C13.4881554,12.0739418 12.8549904,12.0739418 12.4644661,12.4644661 C12.0739418,12.8549904 12.0739418,13.4881554 12.4644661,13.8786797 L18.1213203,19.5355339 C18.5118446,19.9260582 19.1450096,19.9260582 19.5355339,19.5355339 C19.9260582,19.1450096 19.9260582,18.5118446 19.5355339,18.1213203 Z" id="&#24418;&#29366;" />
    </g>
</svg>