<svg xmlns="http://www.w3.org/2000/svg" width="32px" height="32px" viewBox="0 0 32 32" version="1.1">
    <title>fill-new-other-medal-1</title>
    <g id="fill-new-other-medal-1" stroke-width="1" fill-rule="evenodd">
        <path d="M16,10 C21.5228475,10 26,14.4771525 26,20 C26,25.5228475 21.5228475,30 16,30 C10.4771525,30 6,25.5228475 6,20 C6,14.4771525 10.4771525,10 16,10 Z M16,15 L14,15 C13.4477153,15 13,15.4477153 13,16 L13.0067277,16.1166211 C13.0644928,16.6139598 13.4871642,17 14,17 L15,17 L15,23 L14,23 C13.4871642,23 13.0644928,23.3860402 13.0067277,23.8833789 L13,24 C13,24.5522847 13.4477153,25 14,25 L18,25 C18.5522847,25 19,24.5522847 19,24 C19,23.4477153 18.5522847,23 18,23 L17,23 L17,16 C17,15.4871642 16.6139598,15.0644928 16.1166211,15.0067277 L16,15 Z M12,2 L12.0000801,8.68279453 C10.3615496,9.26191879 8.88634964,10.1868072 7.6621481,11.3697919 L5.78265989,3.22485951 C5.65847341,2.68671811 5.99405018,2.14979528 6.53219158,2.0256088 C6.60593422,2.00859127 6.68137035,2 6.75705108,2 L12,2 Z M25.2429489,2 C25.7952337,2 26.2429489,2.44771525 26.2429489,3 C26.2429489,3.07568073 26.2343576,3.15111687 26.2173401,3.22485951 L24.3378519,11.3697919 C23.1138384,10.186989 21.6389036,9.26220294 20.000675,8.68306143 L20,2 L25.2429489,2 Z M18,2 L18.0004952,8.16599997 C17.3499222,8.05682643 16.6815974,8 16,8 C15.318641,8 14.6505452,8.05678669 14.0001873,8.16588546 L14,2 L18,2 Z" id="&#24418;&#29366;" />
    </g>
</svg>