<svg xmlns="http://www.w3.org/2000/svg" width="32px" height="32px" viewBox="0 0 32 32" version="1.1">
    <title>fill-new-office-doc-file-xls</title>
    <g id="fill-new-office-doc-file-xls" stroke-width="1" fill-rule="evenodd">
        <path d="M28,25 L28,29 C28,29.5522847 27.5522847,30 27,30 L5,30 C4.44771525,30 4,29.5522847 4,29 L4,25 L28,25 Z M29,10 C29.5522847,10 30,10.4477153 30,11 L30,22 C30,22.5522847 29.5522847,23 29,23 L3,23 C2.44771525,23 2,22.5522847 2,22 L2,11 C2,10.4477153 2.44771525,10 3,10 L29,10 Z M15.5,12.5 L13.5,12.5 L13.5,20.5 L19.5,20.5 L19.5,18.5 L15.5,18.5 L15.5,12.5 Z M26.5,12.5 L21.6,12.5 C20.9924868,12.5 20.5,12.9924868 20.5,13.6 L20.5,16.4 L20.5064547,16.5198571 C20.5661761,17.0709893 21.0329877,17.5 21.6,17.5 L24.5,17.5 L24.5,18.5 L20.5,18.5 L20.5,20.5 L25.4,20.5 C26.0075132,20.5 26.5,20.0075132 26.5,19.4 L26.5,16.6 L26.4935453,16.4801429 C26.4338239,15.9290107 25.9670123,15.5 25.4,15.5 L22.5,15.5 L22.5,14.5 L26.5,14.5 L26.5,12.5 Z M7.921,12.4993571 L5.633,12.4993571 L7.85584272,16.5003571 L5.634,20.4993571 L7.921,20.4993571 L8.99984272,18.5583571 L10.077,20.4993571 L12.366,20.4993571 L10.1438427,16.5003571 L12.367,12.4993571 L10.078,12.4993571 L8.99984272,14.4413571 L7.921,12.4993571 Z M20.0857864,2 C20.3510029,2 20.6053568,2.10535684 20.7928932,2.29289322 L26.5,8 L4,8 L4,3 C4,2.48716416 4.38604019,2.06449284 4.88337887,2.00672773 L5,2 L20.0857864,2 Z" id="&#24418;&#29366;" />
    </g>
</svg>