<svg xmlns="http://www.w3.org/2000/svg" width="32px" height="32px" viewBox="0 0 32 32" version="1.1">
    <title>fill-new-location-delete</title>
    <g id="fill-new-location-delete" stroke-width="1" fill-rule="evenodd">
        <path d="M9,30 C8.44771525,30 8,29.5522847 8,29 C8,28.4477153 8.44771525,28 9,28 L13.6914014,28.0015825 C9.32527075,23.9286848 5,18.1580644 5,13 C5,6.92486775 9.92486775,2 16,2 C22.0751322,2 27,6.92486775 27,13 C27,18.1580644 22.6747292,23.9286848 18.3085986,28.0015825 L23,28 C23.5522847,28 24,28.4477153 24,29 C24,29.5522847 23.5522847,30 23,30 L9,30 Z M20,12 L12,12 C11.4477153,12 11,12.4477153 11,13 C11,13.5522847 11.4477153,14 12,14 L20,14 C20.5522847,14 21,13.5522847 21,13 C21,12.4477153 20.5522847,12 20,12 Z" id="&#24418;&#29366;" />
    </g>
</svg>