<svg xmlns="http://www.w3.org/2000/svg" width="32px" height="32px" viewBox="0 0 32 32" version="1.1">
    <title>fill-new-medic-health-heart-slash-dislike</title>
    <g id="fill-new-medic-health-heart-slash-dislike" stroke-width="1" fill-rule="evenodd">
        <path d="M28.6363802,7.60575693 C31.810816,12.792192 30.416,21.84 16,30 C13.7342955,28.7175258 11.7902291,27.4131217 10.1349889,26.1052249 L28.6363802,7.60575693 Z M25.862377,4.72313409 L26.2928932,4.29289322 C26.6834175,3.90236893 27.3165825,3.90236893 27.7071068,4.29289322 C28.0976311,4.68341751 28.0976311,5.31658249 27.7071068,5.70710678 L5.70710678,27.7071068 C5.31658249,28.0976311 4.68341751,28.0976311 4.29289322,27.7071068 C3.90236893,27.3165825 3.90236893,26.6834175 4.29289322,26.2928932 L7.14757315,23.4369771 C-5.64729394,10.3751254 8.29294849,-1.77888198 16,5.5 C18.9180538,2.74406033 22.7296609,2.77390463 25.645404,4.58405077 L25.862377,4.72313409 Z" id="&#24418;&#29366;" />
    </g>
</svg>