<svg xmlns="http://www.w3.org/2000/svg" width="32px" height="32px" viewBox="0 0 32 32" version="1.1">
    <title>fill-new-office-book-reading</title>
    <g id="fill-new-office-book-reading" stroke-width="1" fill-rule="evenodd">
        <path d="M2.02010101,5.02317666 C2.17631073,3.92970865 3.1893747,3.16991067 4.28284271,3.32612039 L15,4.85676465 L15,28.8567647 L3.71715729,27.2453082 C2.78371757,27.1119597 2.07773992,26.3475878 2.00601219,25.4212229 L2,25.2654092 L2,5.30601937 C2,5.21138164 2.00671722,5.11686324 2.02010101,5.02317666 Z M28,3.30601937 C29.1045695,3.30601937 30,4.20144988 30,5.30601937 L30,25.2654092 C30,26.2607099 29.2681402,27.1045514 28.2828427,27.2453082 L17,28.8567647 L17,4.85676465 L27.7171573,3.32612039 C27.7640006,3.31942849 27.8110518,3.31440324 27.858222,3.31105096 L28,3.30601937 Z" id="&#24418;&#29366;" />
    </g>
</svg>