<svg xmlns="http://www.w3.org/2000/svg" width="32px" height="32px" viewBox="0 0 32 32" version="1.1">
    <title>fill-new-office-identification-card</title>
    <g id="fill-new-office-identification-card" stroke-width="1" fill-rule="evenodd">
        <path d="M29,5 C29.5522847,5 30,5.44771525 30,6 L30,26 C30,26.5522847 29.5522847,27 29,27 L3,27 C2.44771525,27 2,26.5522847 2,26 L2,6 C2,5.44771525 2.44771525,5 3,5 L29,5 Z M12,18 L8,18 C6.34314575,18 5,19.3431458 5,21 L5,22 L5.00672773,22.1166211 C5.06449284,22.6139598 5.48716416,23 6,23 L14,23 C14.5522847,23 15,22.5522847 15,22 L15,21 C15,19.3431458 13.6568542,18 12,18 Z M26,18 L19,18 C18.4477153,18 18,18.4477153 18,19 C18,19.5522847 18.4477153,20 19,20 L26,20 C26.5522847,20 27,19.5522847 27,19 C27,18.4477153 26.5522847,18 26,18 Z M10,9 C8.06700338,9 6.5,10.5670034 6.5,12.5 C6.5,14.4329966 8.06700338,16 10,16 C11.9329966,16 13.5,14.4329966 13.5,12.5 C13.5,10.5670034 11.9329966,9 10,9 Z M26,12 L19,12 C18.4477153,12 18,12.4477153 18,13 C18,13.5522847 18.4477153,14 19,14 L26,14 C26.5522847,14 27,13.5522847 27,13 C27,12.4477153 26.5522847,12 26,12 Z" id="&#24418;&#29366;" />
    </g>
</svg>