<svg xmlns="http://www.w3.org/2000/svg" width="32px" height="32px" viewBox="0 0 32 32" version="1.1">
    <title>fill-new-other-unbrella</title>
    <g id="fill-new-other-unbrella" stroke-width="1" fill-rule="evenodd">
        <path d="M16,3 C23.7319865,3 30,9.2680135 30,17 L18,17 L18,25 C18,27.209139 16.209139,29 14,29 C11.790861,29 10,27.209139 10,25 C10,24.4477153 10.4477153,24 11,24 C11.5522847,24 12,24.4477153 12,25 C12,26.1045695 12.8954305,27 14,27 C15.1045695,27 16,26.1045695 16,25 L16,17 L2,17 C2,9.37249981 8.09975237,3.16967311 15.687355,3.00342205 L16,3 Z" id="&#36335;&#24452;" />
    </g>
</svg>