<svg xmlns="http://www.w3.org/2000/svg" viewBox="0 0 32 32"><path fill="currentColor" d="m24.5 16.289 5.062 2.922a1 1 0 0 1 .5.866v5.846a1 1 0 0 1-.5.866L24.5 29.71a1 1 0 0 1-1 0l-5.062-2.922a1 1 0 0 1-.5-.866v-5.846a1 1 0 0 1 .5-.866L23.5 16.29a1 1 0 0 1 1 0M12.086 4a1 1 0 0 1 .707.293l3.414 3.414a1 1 0 0 0 .707.293H29a1 1 0 0 1 1 1v8.154l-5-2.886a2 2 0 0 0-1.842-.082l-.158.082-6.062 3.5a2 2 0 0 0-1 1.732l-.001 8.5H3a1 1 0 0 1-.993-.883L2 27V5a1 1 0 0 1 1-1zM24 21a2 2 0 1 0 0 4 2 2 0 0 0 0-4"/></svg>