<svg xmlns="http://www.w3.org/2000/svg" width="32px" height="32px" viewBox="0 0 32 32" version="1.1">
    <title>fill-new-symbol-more-circle-dot</title>
    <g id="fill-new-symbol-more-circle-dot" stroke-width="1" fill-rule="evenodd">
        <path d="M16,2 C23.7319865,2 30,8.2680135 30,16 C30,23.7319865 23.7319865,30 16,30 C8.2680135,30 2,23.7319865 2,16 C2,8.2680135 8.2680135,2 16,2 Z M10.5,14.5 C9.67157288,14.5 9,15.1715729 9,16 C9,16.8284271 9.67157288,17.5 10.5,17.5 C11.3284271,17.5 12,16.8284271 12,16 C12,15.1715729 11.3284271,14.5 10.5,14.5 Z M16,14.5 C15.1715729,14.5 14.5,15.1715729 14.5,16 C14.5,16.8284271 15.1715729,17.5 16,17.5 C16.8284271,17.5 17.5,16.8284271 17.5,16 C17.5,15.1715729 16.8284271,14.5 16,14.5 Z M21.5,14.5 C20.6715729,14.5 20,15.1715729 20,16 C20,16.8284271 20.6715729,17.5 21.5,17.5 C22.3284271,17.5 23,16.8284271 23,16 C23,15.1715729 22.3284271,14.5 21.5,14.5 Z" id="&#24418;&#29366;" />
    </g>
</svg>