<svg xmlns="http://www.w3.org/2000/svg" viewBox="0 0 32 32"><path fill="currentColor" d="M15.95 14.067a24.149 24.149 0 0 1 1.983 1.983A9.983 9.983 0 0 0 14 24c0 2.252.744 4.33 2 6-7.733 0-14-6.268-14-14l.01.008A9.956 9.956 0 0 0 8 18a9.982 9.982 0 0 0 7.85-3.804zm3.251 3.532a23.884 23.884 0 0 1 4.423 10.146 13.931 13.931 0 0 1-5.152 2.037A7.974 7.974 0 0 1 16 24a7.987 7.987 0 0 1 3.127-6.345zM24 16c2.274 0 4.326.949 5.783 2.472a13.983 13.983 0 0 1-4.392 7.911 25.866 25.866 0 0 0-4.44-9.781A7.97 7.97 0 0 1 24 16M4.255 8.376A23.884 23.884 0 0 1 14.401 12.8 7.984 7.984 0 0 1 8 16a7.977 7.977 0 0 1-5.783-2.472A13.924 13.924 0 0 1 4.113 8.6zM16 2c7.732 0 14 6.268 14 14a9.95 9.95 0 0 0-6-2 9.96 9.96 0 0 0-4.338.987 26.214 26.214 0 0 0-2.65-2.65A9.948 9.948 0 0 0 18 8c0-2.122-.66-4.09-1.788-5.708zm-2.472.217A7.977 7.977 0 0 1 16 8c0 1.08-.214 2.11-.601 3.049a25.874 25.874 0 0 0-9.781-4.44 13.977 13.977 0 0 1 7.634-4.34z"/></svg>