<svg xmlns="http://www.w3.org/2000/svg" width="32px" height="32px" viewBox="0 0 32 32" version="1.1">
    <title>fill-new-food-fruit-cherry</title>
    <g id="fill-new-food-fruit-cherry" stroke-width="1" fill-rule="evenodd">
        <path d="M22,3 C22.5522847,3 23,3.44771525 23,4 C23,4.55228475 22.5522847,5 22,5 L17.3201471,5.00118183 C18.3406145,8.25129619 20.0632411,10.9964361 22.399493,13.0269306 C22.5979264,13.0085593 22.7979636,13 23,13 C26.8659932,13 30,16.1340068 30,20 C30,23.8659932 26.8659932,27 23,27 C19.1340068,27 16,23.8659932 16,20 C16,17.1632345 17.6874255,14.7205884 20.1132821,13.6210561 C17.9520865,11.4305817 16.3506346,8.65469367 15.3708692,5.46792909 C12.1333988,8.51940436 10.3195991,11.7251593 10.0385629,15.0773706 C13.4127951,15.5791089 16,18.4874174 16,22 C16,25.8659932 12.8659932,29 9,29 C5.13400675,29 2,25.8659932 2,22 C2,18.4617274 4.62518741,15.5366003 8.03408123,15.0660995 C8.28720033,11.4947662 9.99933421,8.13489987 13.0019399,5.00038194 L10,5 C9.44771525,5 9,4.55228475 9,4 C9,3.44771525 9.44771525,3 10,3 L22,3 Z" id="&#36335;&#24452;" fill-rule="nonzero" />
    </g>
</svg>