<svg xmlns="http://www.w3.org/2000/svg" width="32px" height="32px" viewBox="0 0 32 32" version="1.1">
    <title>fill-new-other-diamond-sketch</title>
    <g id="fill-new-other-diamond-sketch" stroke-width="1" fill-rule="evenodd">
        <path d="M21.622,12.9993707 L16.1195852,29.9051549 C16.0396796,29.9147014 15.9590466,29.9145579 15.8795354,29.9049178 L10.377,12.9993707 L21.622,12.9993707 Z M30.189,12.9993707 L19.389,26.3193707 L23.725,12.9993707 L30.189,12.9993707 Z M8.274,12.9993707 L12.61,26.3183707 L1.811,12.9993707 L8.274,12.9993707 Z M13.542,2.99937074 L8.451,10.9993707 L1.723,10.9993707 L7.20063207,3.41450945 C7.36513507,3.18673606 7.61658876,3.04020731 7.8919965,3.00713408 L8.0113113,3 L13.542,2.99937074 Z M16.087,2.99937074 L21.179,10.9993707 L10.82,10.9993707 L15.913,2.99937074 L16.087,2.99937074 Z M23.9886887,3 C24.3097928,3 24.6113645,3.15419701 24.7993679,3.41450945 L30.277,10.9993707 L23.548,10.9993707 L18.457,2.99937074 L23.9886887,3 Z" id="&#24418;&#29366;" />
    </g>
</svg>