<svg xmlns="http://www.w3.org/2000/svg" width="32px" height="32px" viewBox="0 0 32 32" version="1.1">
    <title>fill-ele-building-flag</title>
    <g id="fill-ele-building-flag" stroke-width="1" fill-rule="evenodd">
        <path d="M6,2 C6.55228475,2 7,2.44771525 7,3 L7,4 L25.1957524,4 C25.7480371,4 26.1958862,4.44771525 26.1958862,5 C26.1958862,5.18741972 26.1430829,5.37106734 26.0437507,5.52999894 L22,12 L26.0437507,18.4700011 C26.336461,18.9383376 26.1940878,19.555288 25.7257513,19.8479983 C25.5668197,19.9473306 25.3831721,20 25.1957524,20 L7,20 L7,29 C7,29.5522847 6.55228475,30 6,30 C5.44771525,30 5,29.5522847 5,29 L5,3 C5,2.44771525 5.44771525,2 6,2 Z" id="&#36335;&#24452;" fill-rule="nonzero" />
    </g>
</svg>