<svg xmlns="http://www.w3.org/2000/svg" width="32px" height="32px" viewBox="0 0 32 32" version="1.1">
    <title>fill-new-food-ice-cream-round</title>
    <g id="fill-new-food-ice-cream-round" stroke-width="1" fill-rule="evenodd">
        <path d="M26.2530483,6.24695167 C29.3772427,9.37114601 29.3772427,14.4364658 26.2530483,17.5606602 L19.8890873,23.9246212 C18.7175144,25.0961941 16.8180195,25.0961941 15.6464466,23.9246212 L13.5251652,21.8028059 L8.5753788,26.7530483 C7.79433021,27.5340969 6.52800026,27.5340969 5.74695167,26.7530483 C4.96590309,25.9719997 4.96590309,24.7056698 5.74695167,23.9246212 L10.6961652,18.9738059 L8.5753788,16.8535534 C7.40380592,15.6819805 7.40380592,13.7824856 8.5753788,12.6109127 L14.9393398,6.24695167 C18.0635342,3.12275734 23.128854,3.12275734 26.2530483,6.24695167 Z M22.0104076,11.9038059 L16.3535534,17.5606602 C15.9630291,17.9511845 15.9630291,18.5843494 16.3535534,18.9748737 C16.7440777,19.365398 17.3772427,19.365398 17.767767,18.9748737 L23.4246212,13.3180195 C23.8151455,12.9274952 23.8151455,12.2943302 23.4246212,11.9038059 C23.0340969,11.5132816 22.4009319,11.5132816 22.0104076,11.9038059 Z M19.1819805,9.0753788 L13.5251263,14.732233 C13.134602,15.1227573 13.134602,15.7559223 13.5251263,16.1464466 C13.9156506,16.5369709 14.5488155,16.5369709 14.9393398,16.1464466 L20.5961941,10.4895924 C20.9867184,10.0990681 20.9867184,9.46590309 20.5961941,9.0753788 C20.2056698,8.68485451 19.5725048,8.68485451 19.1819805,9.0753788 Z" id="&#24418;&#29366;" />
    </g>
</svg>