<svg xmlns="http://www.w3.org/2000/svg" width="32px" height="32px" viewBox="0 0 32 32" version="1.1">
    <title>fill-new-communication-message-chat-line-round</title>
    <g id="fill-new-communication-message-chat-line-round" stroke-width="1" fill-rule="evenodd">
        <path d="M16,3 C23.7319865,3 30,8.82029825 30,16 C30,23.1797017 23.7319865,29 16,29 C13.4848003,29 11.1245164,28.3841031 9.08451609,27.305865 L4.47385404,28.8420487 C4.25843511,28.913855 4.02499189,28.9102083 3.81192092,28.8317085 C3.29368832,28.6407807 3.02835536,28.0658926 3.21928316,27.54766 L4.66278093,23.6287407 C2.98777246,21.4861011 2,18.8501643 2,16 C2,8.82029825 8.2680135,3 16,3 Z M20,17 L12,17 C11.4477153,17 11,17.4477153 11,18 C11,18.5522847 11.4477153,19 12,19 L20,19 C20.5522847,19 21,18.5522847 21,18 C21,17.4477153 20.5522847,17 20,17 Z M20,12 L12,12 C11.4477153,12 11,12.4477153 11,13 C11,13.5522847 11.4477153,14 12,14 L20,14 C20.5522847,14 21,13.5522847 21,13 C21,12.4477153 20.5522847,12 20,12 Z" id="&#24418;&#29366;" />
    </g>
</svg>