<svg xmlns="http://www.w3.org/2000/svg" width="32px" height="32px" viewBox="0 0 32 32" version="1.1">
    <title>fill-new-media-sound-headset-headphone</title>
    <g id="fill-new-media-sound-headset-headphone" stroke-width="1" fill-rule="evenodd">
        <path d="M30,25 C30,27.209139 28.209139,29 26,29 C23.790861,29 22,27.209139 22,25 L22,21 C22,18.790861 23.790861,17 26,17 C26.7290322,17 27.4125119,17.1950335 28.0011092,17.5357707 L28,17 C28,10.372583 22.627417,5 16,5 C9.372583,5 4,10.372583 4,17 L3.99987956,17.5351985 C4.58825351,17.1948152 5.271376,17 6,17 C8.209139,17 10,18.790861 10,21 L10,25 C10,27.209139 8.209139,29 6,29 C3.790861,29 2,27.209139 2,25 L2,17 C2,9.2680135 8.2680135,3 16,3 C23.7319865,3 30,9.2680135 30,17 L30,25 Z" id="&#36335;&#24452;" fill-rule="nonzero" />
    </g>
</svg>