<svg xmlns="http://www.w3.org/2000/svg" width="32px" height="32px" viewBox="0 0 32 32" version="1.1">
    <title>fill-new-other-ship</title>
    <g id="fill-new-other-ship" stroke-width="1" fill-rule="evenodd">
        <path d="M28.3570049,20 L26.9221363,24.0180184 C26.0692942,26.4059762 23.8073666,28 21.2716848,28 L10.7283152,28 C8.19263341,28 5.93070578,26.4059762 5.07786371,24.0180184 L3.64200491,20 L28.3570049,20 Z M15.4705882,3.11764706 L22.9705882,7.11764706 C23.6764706,7.49411765 23.6764706,8.50588235 22.9705882,8.88235294 L16,12.599 L15.9990049,13.9996188 L29.0809951,14 C29.1956175,14 29.3093867,14.0197064 29.4173315,14.0582581 C29.9374412,14.2440116 30.2084905,14.8162267 30.022737,15.3363364 L29.0710049,18 L2.92800491,18 L1.977263,15.3363364 C1.95156187,15.2643732 1.93423643,15.1898214 1.92554182,15.1141539 L1.91900491,15 C1.91900491,14.4477153 2.36672016,14 2.91900491,14 L13.9990049,13.9996188 L14,4 C14,3.24507949 14.8044819,2.76239035 15.4705882,3.11764706 Z" id="&#24418;&#29366;" fill-rule="nonzero" />
    </g>
</svg>