<svg xmlns="http://www.w3.org/2000/svg" width="32px" height="32px" viewBox="0 0 32 32" version="1.1">
    <title>fill-new-tool-edit-gear-setting-4</title>
    <g id="fill-new-tool-edit-gear-setting-4" stroke-width="1" fill-rule="evenodd">
        <path d="M18.8938335,1.7888022 C22.036704,2.42534379 24.8107904,4.07833291 26.8581332,6.38981024 C25.9289471,7.3266077 25.7009592,8.80255413 26.3923048,10 C27.084204,11.1984045 28.4780811,11.7388408 29.7546716,11.4017877 C30.2383413,12.8456496 30.5,14.392268 30.5,16 C30.5,17.607732 30.2383413,19.1543504 29.7552859,20.5995932 C28.4780811,20.2611592 27.084204,20.8015955 26.3923048,22 C25.7008443,23.1976447 25.9290228,24.6738825 26.8577363,25.6110061 C24.8107904,27.9216671 22.036704,29.5746562 18.8938335,30.2111978 C18.5480268,28.9363185 17.3833578,28 16,28 C14.6166422,28 13.4519732,28.9363185 13.1051639,30.2097848 C9.96329596,29.5746562 7.18920961,27.9216671 5.14186676,25.6101898 C6.07097718,24.6738825 6.29915566,23.1976447 5.60769515,22 C4.91579602,20.8015955 3.52191894,20.2611592 2.24532836,20.5982123 C1.76165866,19.1543504 1.5,17.607732 1.5,16 C1.5,14.392268 1.76165866,12.8456496 2.24471406,11.4004068 C3.52191894,11.7388408 4.91579602,11.1984045 5.60769515,10 C6.29904085,8.80255413 6.07105293,7.3266077 5.14272629,6.38946072 C7.18920961,4.07833291 9.96329596,2.42534379 13.1061665,1.7888022 C13.4521232,3.0638021 14.6167313,4 16,4 C17.3609874,4 18.5103016,3.09371926 18.8773722,1.85172825 L18.8938335,1.7888022 Z M16,10.5 C12.9624339,10.5 10.5,12.9624339 10.5,16 C10.5,19.0375661 12.9624339,21.5 16,21.5 C19.0375661,21.5 21.5,19.0375661 21.5,16 C21.5,12.9624339 19.0375661,10.5 16,10.5 Z" id="&#24418;&#29366;" />
    </g>
</svg>