<svg xmlns="http://www.w3.org/2000/svg" viewBox="0 0 32 32"><path fill="currentColor" d="M24 6a4 4 0 0 1 4 4v.342a6.002 6.002 0 0 1 0 11.316V22a4 4 0 0 1-4 4H8a4 4 0 0 1-4-4v-.341A6.002 6.002 0 0 1 4 10.34V10a4 4 0 0 1 4-4zm-8 6a1 1 0 0 0-1 1v2h-2a1 1 0 0 0-.993.883L12 16a1 1 0 0 0 1 1h2v2a1 1 0 0 0 .883.993L16 20a1 1 0 0 0 1-1v-2h2a1 1 0 0 0 .993-.883L20 16a1 1 0 0 0-1-1h-2v-2a1 1 0 0 0-.883-.993zm-12 .535A3.998 3.998 0 0 0 2 16c0 1.48.804 2.773 2 3.465zm24.001 0v6.93A3.998 3.998 0 0 0 30 16c0-1.48-.804-2.772-1.999-3.464"/></svg>