<svg xmlns="http://www.w3.org/2000/svg" width="32px" height="32px" viewBox="0 0 32 32" version="1.1">
    <title>fill-new-location-cordinate</title>
    <g id="fill-new-location-cordinate" stroke-width="1" fill-rule="evenodd">
        <path d="M15.0000446,16.9339203 C11.3306635,16.4450476 8.5,13.3030922 8.5,9.5 C8.5,5.35786438 11.8578644,2 16,2 C20.1421356,2 23.5,5.35786438 23.5,9.5 C23.5,13.3027466 20.669851,16.4444765 17.0009558,16.9337869 L17,23 L24,23 C26.209139,23 28,24.790861 28,27 L28,28 C28,28.5522847 27.5522847,29 27,29 L5,29 C4.48716416,29 4.06449284,28.6139598 4.00672773,28.1166211 L4,28 L4,27 C4,24.790861 5.790861,23 8,23 L15,23 L15.0000446,16.9339203 Z" id="&#36335;&#24452;" />
    </g>
</svg>