<svg xmlns="http://www.w3.org/2000/svg" width="32px" height="32px" viewBox="0 0 32 32" version="1.1">
    <title>fill-new-nature-weather-cloudy-sunny</title>
    <g id="fill-new-nature-weather-cloudy-sunny" stroke-width="1" fill-rule="evenodd">
        <path d="M20,9 C25.5228475,9 30,13.4771525 30,19 C30,24.5228475 25.5228475,29 20,29 L9,29 C5.13400675,29 2,25.8659932 2,22 C2,18.1340068 5.13400675,15 9,15 C9.60099148,15 10.1842934,15.0757381 10.7408817,15.2181903 C12.2302638,11.5709172 15.814897,9 20,9 Z M10,3 C13.103604,3 15.7944252,4.76733303 17.1209645,7.35049997 C14.0201701,8.11422554 11.3496356,10.0904486 9.70911778,12.8240734 L9.594,13.021 L9.3794467,13.0078866 C9.25330426,13.0026349 9.12680131,13 9,13 C6.77145468,13 4.73209117,13.8099836 3.16024512,15.1516151 C2.42409654,13.9416182 2,12.5203356 2,11 C2,6.581722 5.581722,3 10,3 Z" id="&#24418;&#29366;" />
    </g>
</svg>