<svg xmlns="http://www.w3.org/2000/svg" width="32px" height="32px" viewBox="0 0 32 32" version="1.1">
    <title>fill-new-tool-edit-save-diskette-floppy-disk</title>
    <g id="fill-new-tool-edit-save-diskette-floppy-disk" stroke-width="1" fill-rule="evenodd">
        <path d="M21.0857864,3 C21.3510029,3 21.6053568,3.10535684 21.7928932,3.29289322 L28.7071068,10.2071068 C28.8946432,10.3946432 29,10.6489971 29,10.9142136 L29,28 C29,28.5522847 28.5522847,29 28,29 L4,29 C3.44771525,29 3,28.5522847 3,28 L3,4 C3,3.44771525 3.44771525,3 4,3 L21.0857864,3 Z M22,18 L10,18 C9.44771525,18 9,18.4477153 9,19 L9,27 L23,27 L23,19 C23,18.4477153 22.5522847,18 22,18 Z M19,5 L9,5 L9,9 C9,9.55228475 9.44771525,10 10,10 L18,10 C18.5522847,10 19,9.55228475 19,9 L19,5 Z" id="&#24418;&#29366;" />
    </g>
</svg>