<svg xmlns="http://www.w3.org/2000/svg" width="32px" height="32px" viewBox="0 0 32 32" version="1.1">
    <title>fill-new-communication-phone-mobile-1</title>
    <g id="fill-new-communication-phone-mobile-1" stroke-width="1" fill-rule="evenodd">
        <path d="M24,2 C26.209139,2 28,3.790861 28,6 L28,26 C28,28.209139 26.209139,30 24,30 L8,30 C5.790861,30 4,28.209139 4,26 L4,6 C4,3.790861 5.790861,2 8,2 L24,2 Z M16,22 C14.8954305,22 14,22.8954305 14,24 C14,25.1045695 14.8954305,26 16,26 C17.1045695,26 18,25.1045695 18,24 C18,22.8954305 17.1045695,22 16,22 Z M20,6 L12,6 C11.4477153,6 11,6.44771525 11,7 C11,7.55228475 11.4477153,8 12,8 L20,8 C20.5522847,8 21,7.55228475 21,7 C21,6.44771525 20.5522847,6 20,6 Z" id="&#24418;&#29366;" />
    </g>
</svg>