<svg xmlns="http://www.w3.org/2000/svg" width="32px" height="32px" viewBox="0 0 32 32" version="1.1">
    <title>fill-new-office-tool-price-tag</title>
    <g id="fill-new-office-tool-price-tag" stroke-width="1" fill-rule="evenodd">
        <path d="M15.3885525,1.47248216 C15.7486882,1.1941955 16.2513118,1.1941955 16.6114475,1.47248216 L26.6114475,9.19975489 C26.8565073,9.38911925 27,9.68134141 27,9.99103989 L27,29 C27,29.5522847 26.5522847,30 26,30 L6,30 C5.44771525,30 5,29.5522847 5,29 L5,9.99103989 C5,9.68134141 5.14349273,9.38911925 5.3885525,9.19975489 L15.3885525,1.47248216 Z M16,10 C14.3431458,10 13,11.3431458 13,13 C13,14.6568542 14.3431458,16 16,16 C17.6568542,16 19,14.6568542 19,13 C19,11.3431458 17.6568542,10 16,10 Z" id="&#24418;&#29366;" />
    </g>
</svg>