<svg xmlns="http://www.w3.org/2000/svg" width="32px" height="32px" viewBox="0 0 32 32" version="1.1">
    <title>fill-new-office-folder-minus-remove</title>
    <g id="fill-new-office-folder-minus-remove" stroke-width="1" fill-rule="evenodd">
        <path d="M12.0857864,4 C12.3510029,4 12.6053568,4.10535684 12.7928932,4.29289322 L16.2071068,7.70710678 C16.3946432,7.89464316 16.6489971,8 16.9142136,8 L29,8 C29.5522847,8 30,8.44771525 30,9 L30,27 C30,27.5522847 29.5522847,28 29,28 L3,28 C2.44771525,28 2,27.5522847 2,27 L2,5 C2,4.44771525 2.44771525,4 3,4 L12.0857864,4 Z M20,16.5 L12,16.5 C11.4477153,16.5 11,16.9477153 11,17.5 C11,18.0522847 11.4477153,18.5 12,18.5 L20,18.5 C20.5522847,18.5 21,18.0522847 21,17.5 C21,16.9477153 20.5522847,16.5 20,16.5 Z" id="&#24418;&#29366;" />
    </g>
</svg>