<svg xmlns="http://www.w3.org/2000/svg" viewBox="0 0 32 32"><path fill="currentColor" d="M23 17a7 7 0 1 1 0 14 7 7 0 0 1 0-14m4-15a1 1 0 0 1 1 1l.001 13.516A9 9 0 0 0 16.292 30H5a1 1 0 0 1-1-1V3a1 1 0 0 1 1-1zm-5.793 18.793a1 1 0 0 0-1.414 1.414L21.585 24l-1.792 1.793a1 1 0 0 0-.083 1.32l.083.094a1 1 0 0 0 1.414 0L23 25.415l1.793 1.792a1 1 0 0 0 1.32.083l.094-.083a1 1 0 0 0 0-1.414L24.415 24l1.792-1.793a1 1 0 0 0 .083-1.32l-.083-.094a1 1 0 0 0-1.414 0L23 22.585zM15 14h-4a1 1 0 0 0 0 2h4a1 1 0 0 0 0-2m6-6H11a1 1 0 0 0 0 2h10a1 1 0 0 0 0-2"/></svg>