<svg xmlns="http://www.w3.org/2000/svg" width="32px" height="32px" viewBox="0 0 32 32" version="1.1">
    <title>fill-new-other-view-eye-watch-see</title>
    <g id="fill-new-other-view-eye-watch-see" stroke-width="1" fill-rule="evenodd">
        <path d="M16,5 C22.5161133,5 27.7584346,8.50292791 31.7269639,15.5087837 C31.8999271,15.8134949 31.8999271,16.1865051 31.7276752,16.4916178 C27.7584346,23.4970721 22.5161133,27 16,27 C9.60683225,27 4.43984232,23.628011 0.499030204,16.884033 L0.272324765,16.4916178 C0.100072857,16.1865051 0.100072857,15.8134949 0.272324765,15.5083822 C4.24156541,8.50292791 9.48388672,5 16,5 Z M16,9 C12.1340068,9 9,12.1340068 9,16 C9,19.8659932 12.1340068,23 16,23 C19.8659932,23 23,19.8659932 23,16 C23,12.1340068 19.8659932,9 16,9 Z M16,13 C17.6568542,13 19,14.3431458 19,16 C19,17.6568542 17.6568542,19 16,19 C14.3431458,19 13,17.6568542 13,16 C13,14.3431458 14.3431458,13 16,13 Z" id="&#24418;&#29366;" />
    </g>
</svg>