<svg xmlns="http://www.w3.org/2000/svg" width="32px" height="32px" viewBox="0 0 32 32" version="1.1">
    <title>fill-new-food-lolipop</title>
    <g id="fill-new-food-lolipop" stroke-width="1" fill-rule="evenodd">
        <path d="M14,1 C19.5228475,1 24,5.4771525 24,11 C24,15.8375693 20.5649727,19.8728451 16.0009807,20.7997646 L16,31 C16,32.1045695 15.1045695,33 14,33 C12.8954305,33 12,32.1045695 12,31 L12.000644,20.7481308 C8.54986283,19.8602692 6,16.7279108 6,13 C6,9.41014913 8.91014913,6.5 12.5,6.5 C15.2614237,6.5 17.5,8.73857625 17.5,11.5 C17.5,13.4329966 15.9329966,15 14,15 L13.8356243,14.9946823 C12.5315359,14.9100387 11.5,13.8254834 11.5,12.5 C11.5,11.9477153 11.0522847,11.5 10.5,11.5 C9.94771525,11.5 9.5,11.9477153 9.5,12.5 C9.5,14.9852814 11.5147186,17 14,17 C17.0375661,17 19.5,14.5375661 19.5,11.5 C19.5,7.63400675 16.3659932,4.5 12.5,4.5 C8.12957999,4.5 4.52954237,7.79839917 4.05342481,12.0416599 C4.01817486,11.6995201 4,11.3518825 4,11 C4,5.4771525 8.4771525,1 14,1 Z" id="&#36335;&#24452;" transform="translate(14, 17) rotate(-315) translate(-14, -17)" />
    </g>
</svg>