<svg xmlns="http://www.w3.org/2000/svg" viewBox="0 0 32 32"><path fill="currentColor" d="M28 25v4a1 1 0 0 1-1 1H5a1 1 0 0 1-1-1v-4zm1-15a1 1 0 0 1 1 1v11a1 1 0 0 1-1 1H3a1 1 0 0 1-1-1V11a1 1 0 0 1 1-1zm-10.6 2.5h-4.9v8h2v-2h2.9a1.1 1.1 0 0 0 1.1-1.1v-3.8a1.1 1.1 0 0 0-1.1-1.1m4.1 0h-2v4.9a1.1 1.1 0 0 0 1.1 1.1h1.9v2h2v-2h1v-2h-1v-4h-2v4h-1zm-12.229 0L9 14.279l-1.272-1.78L5.5 12.5v8h2v-4.88l1.5 2.1 1.5-2.101V20.5h2v-8zm7.229 2v2h-2v-2zM20.086 2a1 1 0 0 1 .707.293L26.5 8H4V3a1 1 0 0 1 .883-.993L5 2z"/></svg>