<svg xmlns="http://www.w3.org/2000/svg" width="32px" height="32px" viewBox="0 0 32 32" version="1.1">
    <title>fill-new-office-doc-file-exe</title>
    <g id="fill-new-office-doc-file-exe" stroke-width="1" fill-rule="evenodd">
        <path d="M28,25 L28,29 C28,29.5522847 27.5522847,30 27,30 L5,30 C4.44771525,30 4,29.5522847 4,29 L4,25 L28,25 Z M29,10 C29.5522847,10 30,10.4477153 30,11 L30,22 C30,22.5522847 29.5522847,23 29,23 L3,23 C2.44771525,23 2,22.5522847 2,22 L2,11 C2,10.4477153 2.44771525,10 3,10 L29,10 Z M11.5,12.5 L5.5,12.5 L5.5,20.5 L11.5,20.5 L11.5,18.5 L7.5,18.5 L7.5,17.5 L11,17.5 L11,15.5 L7.5,15.5 L7.5,14.5 L11.5,14.5 L11.5,12.5 Z M26.5,12.5 L20.5,12.5 L20.5,20.5 L26.5,20.5 L26.5,18.5 L22.5,18.5 L22.5,17.5 L26,17.5 L26,15.5 L22.5,15.5 L22.5,14.5 L26.5,14.5 L26.5,12.5 Z M14.921,12.4993571 L12.633,12.4993571 L14.8558427,16.5003571 L12.634,20.4993571 L14.921,20.4993571 L15.9998427,18.5583571 L17.077,20.4993571 L19.366,20.4993571 L17.1438427,16.5003571 L19.367,12.4993571 L17.078,12.4993571 L15.9998427,14.4413571 L14.921,12.4993571 Z M20.0857864,2 C20.3510029,2 20.6053568,2.10535684 20.7928932,2.29289322 L26.5,8 L4,8 L4,3 C4,2.48716416 4.38604019,2.06449284 4.88337887,2.00672773 L5,2 L20.0857864,2 Z" id="&#24418;&#29366;" />
    </g>
</svg>