<svg xmlns="http://www.w3.org/2000/svg" width="32px" height="32px" viewBox="0 0 32 32" version="1.1">
    <title>fill-new-office-tool-compass</title>
    <g id="fill-new-office-tool-compass" stroke-width="1" fill-rule="evenodd">
        <path d="M16,2 C23.7319865,2 30,8.2680135 30,16 C30,23.7319865 23.7319865,30 16,30 C8.2680135,30 2,23.7319865 2,16 C2,8.2680135 8.2680135,2 16,2 Z M21.2560226,9.64638644 L14.4287465,13.7427521 C14.1472473,13.9116516 13.9116516,14.1472473 13.7427521,14.4287465 L9.64638644,21.2560226 C9.41906791,21.6348868 9.54191996,22.126295 9.92078418,22.3536136 C10.1741301,22.5056211 10.4906315,22.5056211 10.7439774,22.3536136 L17.5712535,18.2572479 C17.8527527,18.0883484 18.0883484,17.8527527 18.2572479,17.5712535 L22.3536136,10.7439774 C22.5809321,10.3651132 22.45808,9.87370497 22.0792158,9.64638644 C21.8258699,9.49437889 21.5093685,9.49437889 21.2560226,9.64638644 Z" id="&#24418;&#29366;" />
    </g>
</svg>