<svg xmlns="http://www.w3.org/2000/svg" viewBox="0 0 32 32"><path fill="currentColor" d="M27.707 4.293a1 1 0 0 1 0 1.414l-22 22a1 1 0 1 1-1.414-1.414l2.318-2.319C4.322 22.304 2.285 19.94.5 16.884l-.227-.392a1 1 0 0 1 0-.984C4.242 8.503 9.484 5 16 5c2.787 0 5.341.64 7.662 1.922l2.63-2.63a1 1 0 0 1 1.415 0M26.942 9.3c1.76 1.615 3.355 3.684 4.785 6.208a.997.997 0 0 1 0 .983C27.759 23.497 22.518 27 16 27c-2.035 0-3.945-.342-5.731-1.025l3.38-3.38a7 7 0 0 0 8.947-8.947zM16 9a7 7 0 0 0-5.607 11.191l2.899-2.899a3 3 0 0 1 4-4l2.9-2.899A6.969 6.969 0 0 0 16 9"/></svg>