<svg xmlns="http://www.w3.org/2000/svg" width="32px" height="32px" viewBox="0 0 32 32" version="1.1">
    <title>fill-new-time-stopwatch</title>
    <g id="fill-new-time-stopwatch" stroke-width="1" fill-rule="evenodd">
        <path d="M16,2 C23.7319865,2 30,8.2680135 30,16 C30,23.7319865 23.7319865,30 16,30 C8.2680135,30 2,23.7319865 2,16 C2,8.2680135 8.2680135,2 16,2 Z M20.5,7.93782217 C20.2494376,7.7931599 19.9312169,7.84891389 19.7447608,8.07014416 L12.8352826,16.2682459 C12.7398744,16.3814479 12.6546613,16.5028634 12.5806386,16.6310745 C11.8870402,17.8324221 12.2986523,19.3685794 13.5,20.0621778 C13.628211,20.1362005 13.7627155,20.1987429 13.9019424,20.2490745 C15.2065103,20.7206863 16.6463884,20.0454419 17.1180001,18.740874 L20.7630254,8.65803948 C20.8613884,8.38594866 20.7505624,8.08248445 20.5,7.93782217 Z" id="&#24418;&#29366;" />
    </g>
</svg>