<svg xmlns="http://www.w3.org/2000/svg" width="32px" height="32px" viewBox="0 0 32 32" version="1.1">
    <title>fill-new-office-tool-odometer</title>
    <g id="fill-new-office-tool-odometer" stroke-width="1" fill-rule="evenodd">
        <path d="M16,2 C23.7319865,2 30,8.2680135 30,16 C30,23.7319865 23.7319865,30 16,30 C8.2680135,30 2,23.7319865 2,16 C2,8.2680135 8.2680135,2 16,2 Z M19.3328201,12.5570097 C18.8120209,12.3731982 18.2408211,12.6463807 18.0570097,13.1671799 L15.998,19 L15.8237272,19.0050927 C14.24892,19.0963391 13,20.4023191 13,22 C13,23.6568542 14.3431458,25 16,25 C17.6568542,25 19,23.6568542 19,22 C19,21.0565399 18.5644865,20.2147993 17.8835312,19.6648502 L19.9429903,13.8328201 C20.1268018,13.3120209 19.8536193,12.7408211 19.3328201,12.5570097 Z M16,6 C10.4771525,6 6,10.4771525 6,16 C6,16.5522847 6.44771525,17 7,17 C7.55228475,17 8,16.5522847 8,16 C8,11.581722 11.581722,8 16,8 C20.418278,8 24,11.581722 24,16 C24,16.5522847 24.4477153,17 25,17 C25.5522847,17 26,16.5522847 26,16 C26,10.4771525 21.5228475,6 16,6 Z" id="&#24418;&#29366;" />
    </g>
</svg>