<svg xmlns="http://www.w3.org/2000/svg" width="32px" height="32px" viewBox="0 0 32 32" version="1.1">
    <title>fill-new-finance-coin</title>
    <g id="fill-new-finance-coin" stroke-width="1" fill-rule="evenodd">
        <path d="M27.8213989,20.5001579 C28.5781145,21.2611739 29,22.1078477 29,23 C29,26.3137085 23.1797017,29 16,29 C8.82029825,29 3,26.3137085 3,23 C3,22.1078477 3.42188552,21.2611739 4.1786011,20.5001579 C6.2325434,22.5654568 10.7532949,24 16,24 C21.1454529,24 25.5927011,22.6202908 27.6997429,20.6187194 L27.8213989,20.5001579 Z M27.8213989,13.5001579 C28.5781145,14.2611739 29,15.1078477 29,16 C29,19.3137085 23.1797017,22 16,22 C8.82029825,22 3,19.3137085 3,16 C3,15.1078477 3.42188552,14.2611739 4.1786011,13.5001579 C6.2325434,15.5654568 10.7532949,17 16,17 C21.1454529,17 25.5927011,15.6202908 27.6997429,13.6187194 L27.8213989,13.5001579 Z M16,3 C23.1797017,3 29,5.6862915 29,9 C29,12.3137085 23.1797017,15 16,15 C8.82029825,15 3,12.3137085 3,9 C3,5.6862915 8.82029825,3 16,3 Z" id="&#24418;&#29366;" />
    </g>
</svg>