<svg xmlns="http://www.w3.org/2000/svg" width="32px" height="32px" viewBox="0 0 32 32" version="1.1">
    <title>fill-new-sound-broadcast-volume-down</title>
    <g id="fill-new-sound-broadcast-volume-down" stroke-width="1" fill-rule="evenodd">
        <path d="M24.5355339,12.4644661 C26.4881554,14.4170876 26.4881554,17.5829124 24.5355339,19.5355339 C24.1450096,19.9260582 23.5118446,19.9260582 23.1213203,19.5355339 C22.7307961,19.1450096 22.7307961,18.5118446 23.1213203,18.1213203 C24.2928932,16.9497475 24.2928932,15.0502525 23.1213203,13.8786797 C22.7307961,13.4881554 22.7307961,12.8549904 23.1213203,12.4644661 C23.5118446,12.0739418 24.1450096,12.0739418 24.5355339,12.4644661 Z M7,9 L13,9 L19.2928932,2.70710678 C19.6834175,2.31658249 20.3165825,2.31658249 20.7071068,2.70710678 C20.8946432,2.89464316 21,3.14899707 21,3.41421356 L21,28.5857864 C21,29.1380712 20.5522847,29.5857864 20,29.5857864 C19.7347835,29.5857864 19.4804296,29.4804296 19.2928932,29.2928932 L13,23 L7,23 C6.44771525,23 6,22.5522847 6,22 L6,10 C6,9.44771525 6.44771525,9 7,9 Z" id="&#24418;&#29366;" fill-rule="nonzero" />
    </g>
</svg>