<svg xmlns="http://www.w3.org/2000/svg" width="32px" height="32px" viewBox="0 0 32 32" version="1.1">
    <title>fill-new-food-burger</title>
    <g id="fill-new-food-burger" stroke-width="1" fill-rule="evenodd">
        <path d="M16,3 C22.2908458,3 27.451074,7.84074966 27.9589703,14.0005348 L4.04102967,14.0005348 C4.548926,7.84074966 9.70915417,3 16,3 Z M4,16 L28,16 C29.1045695,16 30,16.8954305 30,18 L30,20 C30,21.1045695 29.1045695,22 28,22 L4,22 C2.8954305,22 2,21.1045695 2,20 L2,18 C2,16.8954305 2.8954305,16 4,16 Z M4.5,24 L5.57240873,27.5746958 C5.82619911,28.4206637 6.60484486,29 7.4880613,29 L24.5119387,29 C25.3951551,29 26.1738009,28.4206637 26.4275913,27.5746958 L27.5,24 L4.5,24 Z" id="&#24418;&#29366;" />
    </g>
</svg>