<svg xmlns="http://www.w3.org/2000/svg" width="32px" height="32px" viewBox="0 0 32 32" version="1.1">
    <title>fill-ele-symbol-more</title>
    <g id="fill-ele-symbol-more" stroke-width="1" fill-rule="evenodd">
        <path d="M5.5,19.5 C7.43299662,19.5 9,17.9329966 9,16 C9,14.0670034 7.43299662,12.5 5.5,12.5 C3.56700338,12.5 2,14.0670034 2,16 C2,17.9329966 3.56700338,19.5 5.5,19.5 Z M16,19.5 C17.9329966,19.5 19.5,17.9329966 19.5,16 C19.5,14.0670034 17.9329966,12.5 16,12.5 C14.0670034,12.5 12.5,14.0670034 12.5,16 C12.5,17.9329966 14.0670034,19.5 16,19.5 Z M26.5,19.5 C28.4329966,19.5 30,17.9329966 30,16 C30,14.0670034 28.4329966,12.5 26.5,12.5 C24.5670034,12.5 23,14.0670034 23,16 C23,17.9329966 24.5670034,19.5 26.5,19.5 Z" id="&#24418;&#29366;" />
    </g>
</svg>