<svg xmlns="http://www.w3.org/2000/svg" width="32px" height="32px" viewBox="0 0 32 32" version="1.1">
    <title>linear-new-ohter-dislike-thumb-down</title>
    <g id="linear-new-ohter-dislike-thumb-down" stroke-width="1" fill-rule="evenodd">
        <path d="M29,2 C29.5522847,2 30,2.44771525 30,3 L30,18 C30,18.5522847 29.5522847,19 29,19 L22.6657664,19 L17.9230769,30.3846154 C17.700242,30.9194191 17.0709913,31.1535296 16.5527864,30.8944272 L13.6583592,29.4472136 C12.6420071,28.9390376 12,27.9002482 12,26.763932 L12.000141,21.0000386 L5.57576644,21 C3.43357105,21 1.68468757,19.3160315 1.58066175,17.1996403 L1.57576644,17 C1.57576644,16.7669556 1.5961325,16.534357 1.63663221,16.3048587 L3.57780868,5.30485866 C3.9151198,3.39342895 5.57597863,2 7.51694291,2 L29,2 Z M21.000141,4 L7.51694291,4 C6.60037644,4 5.80873355,4.62145211 5.58152313,5.49561673 L5.54737579,5.65242933 L3.60619932,16.6524293 C3.58594947,16.7671785 3.57576644,16.8834778 3.57576644,17 C3.57576644,18.1045695 4.47119694,19 5.57576644,19 L13,19 C13.5522847,19 14,19.4477153 14,20 L14,26.763932 C14,27.1427041 14.2140024,27.4889672 14.5527864,27.6583592 L16.489141,28.6270386 L21.000141,17.8010386 L21.000141,4 Z M28,4 L23,4 L23,17 L28,17 L28,4 Z" id="&#24418;&#29366;" fill-rule="nonzero" />
    </g>
</svg>