<svg xmlns="http://www.w3.org/2000/svg" viewBox="0 0 32 32"><path fill="currentColor" d="M26.253 7.247c5.663 5.663 5.663 14.843 0 20.506a1 1 0 1 1-1.414-1.414c4.881-4.882 4.881-12.796 0-17.678-4.882-4.881-12.796-4.881-17.678 0-4.881 4.882-4.881 12.796 0 17.678a1 1 0 1 1-1.414 1.414C.084 22.09.084 12.91 5.747 7.247s14.843-5.663 20.506 0M16 7c1.333 0 1.333 2 0 2a8.5 8.5 0 0 0-8.5 8.5c0 2.286.905 4.426 2.49 6.01a1 1 0 1 1-1.415 1.415A10.468 10.468 0 0 1 5.5 17.5C5.5 11.701 10.201 7 16 7m0 4a1 1 0 0 1 1 1v7.268a2 2 0 1 1-2.001 0L15 12a1 1 0 0 1 1-1"/></svg>