<svg xmlns="http://www.w3.org/2000/svg" viewBox="0 0 32 32"><path fill="currentColor" d="M29.084 8.37c3.11 6.302-.94 14.419-12.565 21.485a1 1 0 0 1-1.038 0C3.856 22.789-.193 14.672 2.916 8.37c2.537-5.143 8.978-6.684 12.961-2.983l.122.118.124-.118c3.983-3.701 10.424-2.16 12.961 2.983M16.79 7.614a1 1 0 0 1-1.578 0c-2.867-3.686-8.377-2.666-10.502 1.64-2.468 5.005.707 11.756 10.582 18.122l.708.45.3-.188c10.063-6.358 13.406-13.13 11.087-18.182l-.095-.201c-2.125-4.307-7.635-5.327-10.502-1.641m-2.082 4.679L18 15.585l3.293-3.292a1 1 0 0 1 1.32-.083l.094.083a1 1 0 0 1 0 1.414l-4 4a1 1 0 0 1-1.414 0L14 14.415l-3.293 3.292a1 1 0 0 1-1.32.083l-.094-.083a1 1 0 0 1 0-1.414l4-4a1 1 0 0 1 1.414 0"/></svg>