<svg xmlns="http://www.w3.org/2000/svg" width="32px" height="32px" viewBox="0 0 32 32" version="1.1">
    <title>linear-new-symbol-filter</title>
    <g id="linear-new-symbol-filter" stroke-width="1" fill-rule="evenodd">
        <path d="M24,3 C24.8909049,3 25.3370716,4.07714192 24.7071068,4.70710678 L17,12.414 L17,30 C17,30.8521699 16.0144864,31.2974338 15.3774732,30.7832252 L15.2928932,30.7071068 L10.2928932,25.7071068 C10.1053568,25.5195704 10,25.2652165 10,25 L10,12.415 L2.29289322,4.70710678 C1.69031813,4.1045317 2.07233231,3.09281919 2.88636906,3.00598327 L3,3 L24,3 Z M21.585,5 L5.414,5 L11.7071068,11.2928932 C11.8633871,11.4491735 11.9625983,11.6518549 11.9913276,11.868556 L12,12 L12,24.585 L15,27.585 L15,12 C15,11.7789863 15.0731645,11.565516 15.2060806,11.3919705 L15.2928932,11.2928932 L21.585,5 Z M28,24 C28.5522847,24 29,24.4477153 29,25 C29,25.5522847 28.5522847,26 28,26 L22,26 C21.4477153,26 21,25.5522847 21,25 C21,24.4477153 21.4477153,24 22,24 L28,24 Z M28,19 C28.5522847,19 29,19.4477153 29,20 C29,20.5522847 28.5522847,21 28,21 L22,21 C21.4477153,21 21,20.5522847 21,20 C21,19.4477153 21.4477153,19 22,19 L28,19 Z M28,14 C28.5522847,14 29,14.4477153 29,15 C29,15.5522847 28.5522847,16 28,16 L22,16 C21.4477153,16 21,15.5522847 21,15 C21,14.4477153 21.4477153,14 22,14 L28,14 Z" id="&#24418;&#29366;" fill-rule="nonzero" />
    </g>
</svg>