<svg xmlns="http://www.w3.org/2000/svg" width="32px" height="32px" viewBox="0 0 32 32" version="1.1">
    <title>linear-new-location-outline</title>
    <g id="linear-new-location-outline" stroke-width="1" fill-rule="evenodd">
        <path d="M16,2 C22.0751322,2 27,6.92486775 27,13 C27,19.0751322 21,26 16,30 L15.4509151,29.5522151 C10.5715702,25.4974969 5,18.8542183 5,13 C5,6.92486775 9.92486775,2 16,2 Z M16,7 C12.6862915,7 10,9.6862915 10,13 C10,16.3137085 12.6862915,19 16,19 C19.3137085,19 22,16.3137085 22,13 C22,9.6862915 19.3137085,7 16,7 Z M16,11 C17.1045695,11 18,11.8954305 18,13 C18,14.1045695 17.1045695,15 16,15 C14.8954305,15 14,14.1045695 14,13 C14,11.8954305 14.8954305,11 16,11 Z" id="&#24418;&#29366;" />
    </g>
</svg>