<svg xmlns="http://www.w3.org/2000/svg" width="32px" height="32px" viewBox="0 0 32 32" version="1.1">
    <title>linear-new-office-tool-edit-brush-2-s-open</title>
    <g id="linear-new-office-tool-edit-brush-2-s-open" stroke-width="1" fill-rule="evenodd">
        <path d="M26,2 C26.5522847,2 27,2.44771525 27,3 L27,17 C27,19.7614237 24.7614237,22 22,22 L20,22 L20,26 C20,28.1421954 18.3160315,29.8910789 16.1996403,29.9951047 L16,30 C13.790861,30 12,28.209139 12,26 L12,22 L10,22 C7.3112453,22 5.11818189,19.8776933 5.00461951,17.2168896 L5,17 L5,3 C5,2.44771525 5.44771525,2 6,2 L26,2 Z M7,17 C7,18.5976809 8.24891996,19.9036609 9.82372721,19.9949073 L10,20 L13,20 C13.5522847,20 14,20.4477153 14,21 L14,26 C14,27.1045695 14.8954305,28 16,28 C17.1045695,28 18,27.1045695 18,26 L18,21 C18,20.4477153 18.4477153,20 19,20 L22,20 C23.6568542,20 25,18.6568542 25,17 L7,17 Z M25,4 L7,4 L7,15 L25,15 L25,4 Z" id="&#24418;&#29366;" fill-rule="nonzero" />
    </g>
</svg>