<svg xmlns="http://www.w3.org/2000/svg" viewBox="0 0 32 32"><path fill="currentColor" d="M26 3a1 1 0 0 1 1 1v23h2a1 1 0 0 1 0 2H3a1 1 0 0 1 0-2h2V4a1 1 0 0 1 1-1zm-1 2H7v22h3v-2a6 6 0 1 1 12 0v2h3zm-9 16a4 4 0 0 0-4 4v2h8v-2a4 4 0 0 0-4-4m5-8a1 1 0 0 1 1 1v1a1 1 0 0 1-1 1h-2a1 1 0 0 1-1-1v-1a1 1 0 0 1 1-1zm-8 0a1 1 0 0 1 1 1v1a1 1 0 0 1-1 1h-2a1 1 0 0 1-1-1v-1a1 1 0 0 1 1-1zm0-6a1 1 0 0 1 1 1v1a1 1 0 0 1-1 1h-2a1 1 0 0 1-1-1V8a1 1 0 0 1 1-1zm8 0a1 1 0 0 1 1 1v1a1 1 0 0 1-1 1h-2a1 1 0 0 1-1-1V8a1 1 0 0 1 1-1z"/></svg>