<svg xmlns="http://www.w3.org/2000/svg" viewBox="0 0 32 32"><path fill="currentColor" d="M20 2a1 1 0 0 1 .707.293L27.415 9H29a1 1 0 0 1 1 1v13a1 1 0 0 1-1 1h-1v5a1 1 0 0 1-1 1H5a1 1 0 0 1-1-1v-5H3a1 1 0 0 1-1-1V10a1 1 0 0 1 1-1h1V3a1 1 0 0 1 1-1zm6 22H6v4h20zm2-13H4v11h24zm-12.5 1.5v6h4v2h-6v-8zm11 0v2h-4v1h2.9a1.1 1.1 0 0 1 1.094.98l.006.12v2.8a1.1 1.1 0 0 1-1.1 1.1h-4.9v-2h4v-1h-2.9a1.1 1.1 0 0 1-1.094-.98l-.006-.12v-2.8a1.1 1.1 0 0 1 1.1-1.1zm-18.579 0L9 14.44l1.078-1.942h2.289L10.144 16.5l2.222 4h-2.289L9 18.557 7.92 20.5H5.634L7.856 16.5l-2.223-4zM19.585 4H6v5h18.585z"/></svg>