<svg xmlns="http://www.w3.org/2000/svg" width="32px" height="32px" viewBox="0 0 32 32" version="1.1">
    <title>linear-ele-office-book-collection</title>
    <g id="linear-ele-office-book-collection" stroke-width="1" fill-rule="evenodd">
        <path d="M27,2 C27.5522847,2 28,2.44771525 28,3 L28,29 C28,29.5128358 27.6139598,29.9355072 27.1166211,29.9932723 L27,30 L8,30 C5.790861,30 4,28.209139 4,26 L4,6 C4,3.790861 5.790861,2 8,2 L27,2 Z M26,24 L8,24 C6.9456382,24 6.08183488,24.8158778 6.00548574,25.8507377 L6,26 C6,27.1045695 6.8954305,28 8,28 L26,28 L26,24 Z M10,4 L8,4 C6.9456382,4 6.08183488,4.81587779 6.00548574,5.85073766 L5.99987956,6 L5.99987956,22.5351985 C6.58825351,22.1948152 7.271376,22 8,22 L26,22 L26,4 L20,4 L20,14 C20,14.8240453 19.0592363,15.2944272 18.4,14.8 L15,12.25 L11.6,14.8 C10.970729,15.2719532 10.0849423,14.8648139 10.0057164,14.1101203 L10,14 L10,4 Z M18,4 L12,4 L12,12 L14.4,10.2 C14.72,9.96 15.148,9.936 15.4896,10.128 L15.6,10.2 L18,12 L18,4 Z" id="&#24418;&#29366;" fill-rule="nonzero" />
    </g>
</svg>