<svg xmlns="http://www.w3.org/2000/svg" viewBox="0 0 32 32"><path fill="currentColor" d="M28.653 7.59c.154.25.298.51.431.78 3.11 6.302-.94 14.419-12.565 21.485a1 1 0 0 1-1.038 0c-2.01-1.222-3.792-2.474-5.35-3.743l1.415-1.417a45.543 45.543 0 0 0 4.154 2.943l.3.188.3-.188c10.062-6.358 13.405-13.13 11.086-18.182l-.095-.201-.104-.2zm-2.79-2.868.43-.43a1 1 0 0 1 1.414 1.415l-22 22a1 1 0 1 1-1.414-1.414l2.88-2.88C2.092 18.166.722 12.817 2.915 8.37c2.537-5.143 8.978-6.684 12.961-2.983l.122.118.124-.118c2.771-2.575 6.732-2.612 9.74-.665M4.71 9.255c-1.78 3.61-.624 8.128 3.865 12.756L24.409 6.177c-2.498-1.4-5.67-1.07-7.62 1.437a1 1 0 0 1-1.578 0c-2.867-3.686-8.377-2.666-10.502 1.64"/></svg>