<svg xmlns="http://www.w3.org/2000/svg" width="32px" height="32px" viewBox="0 0 32 32" version="1.1">
    <title>linear-ele-symbol-question-circle</title>
    <g id="linear-ele-symbol-question-circle" stroke-width="1" fill-rule="evenodd">
        <path d="M16,2 C23.7319865,2 30,8.2680135 30,16 C30,23.7319865 23.7319865,30 16,30 C8.2680135,30 2,23.7319865 2,16 C2,8.2680135 8.2680135,2 16,2 Z M16,4 C9.372583,4 4,9.372583 4,16 C4,22.627417 9.372583,28 16,28 C22.627417,28 28,22.627417 28,16 C28,9.372583 22.627417,4 16,4 Z M16,21 C16.8284271,21 17.5,21.6715729 17.5,22.5 C17.5,23.3284271 16.8284271,24 16,24 C15.1715729,24 14.5,23.3284271 14.5,22.5 C14.5,21.6715729 15.1715729,21 16,21 Z M16,7 C19.0375661,7 21.5,9.46243388 21.5,12.5 C21.5,15.5375661 19.0375661,18 16,18 C15.4477153,18 15,17.5522847 15,17 C15,16.4477153 15.4477153,16 16,16 C17.9329966,16 19.5,14.4329966 19.5,12.5 C19.5,10.5670034 17.9329966,9 16,9 C14.0670034,9 12.5,10.5670034 12.5,12.5 C12.5,13.0522847 12.0522847,13.5 11.5,13.5 C10.9477153,13.5 10.5,13.0522847 10.5,12.5 C10.5,9.46243388 12.9624339,7 16,7 Z" id="&#24418;&#29366;" fill-rule="nonzero" />
    </g>
</svg>