<svg xmlns="http://www.w3.org/2000/svg" width="32px" height="32px" viewBox="0 0 32 32" version="1.1">
    <title>linear-new-textedit-office-right-aligned</title>
    <g id="linear-new-textedit-office-right-aligned" stroke-width="1" fill-rule="evenodd">
        <path d="M27,4 C27.5522847,4 28,4.44771525 28,5 C28,5.55228475 27.5522847,6 27,6 L5,6 C4.44771525,6 4,5.55228475 4,5 C4,4.44771525 4.44771525,4 5,4 L27,4 Z M27,11 C27.5522847,11 28,11.4477153 28,12 C28,12.5522847 27.5522847,13 27,13 L17,13 C16.4477153,13 16,12.5522847 16,12 C16,11.4477153 16.4477153,11 17,11 L27,11 Z M27,19 C27.5522847,19 28,19.4477153 28,20 C28,20.5522847 27.5522847,21 27,21 L5,21 C4.44771525,21 4,20.5522847 4,20 C4,19.4477153 4.44771525,19 5,19 L27,19 Z M16.8668252,27.9930296 C15.6682521,27.8644471 15.7126437,26 17,26 L27,26 C28.3333333,26 28.3333333,28 27,28 L17,28 L16.8668252,27.9930296 Z" id="&#24418;&#29366;" fill-rule="nonzero" />
    </g>
</svg>