<svg xmlns="http://www.w3.org/2000/svg" width="32px" height="32px" viewBox="0 0 32 32" version="1.1">
    <title>linear-new-textedit-office-underline</title>
    <g id="linear-new-textedit-office-underline" stroke-width="1" fill-rule="evenodd">
        <path d="M25,3 C25.5522847,3 26,3.44771525 26,4 L26,14 C26,19.5228475 21.5228475,24 16,24 C10.4771525,24 6,19.5228475 6,14 L6,4 C6,3.44771525 6.44771525,3 7,3 C7.55228475,3 8,3.44771525 8,4 L8,14 C8,18.418278 11.581722,22 16,22 C20.418278,22 24,18.418278 24,14 L24,4 C24,3.44771525 24.4477153,3 25,3 Z M26,27 C26.5522847,27 27,27.4477153 27,28 C27,28.5522847 26.5522847,29 26,29 L6,29 C5.44771525,29 5,28.5522847 5,28 C5,27.4477153 5.44771525,27 6,27 L26,27 Z" id="&#24418;&#29366;" fill-rule="nonzero" />
    </g>
</svg>