<svg xmlns="http://www.w3.org/2000/svg" viewBox="0 0 32 32"><path fill="currentColor" d="M27 2a1 1 0 0 1 0 2h-1.107l-.005.035c-.05.366-.11.758-.185 1.173-.284 1.581-.698 3.164-1.27 4.651-1.057 2.75-2.52 4.85-4.445 6.039 3.325 1.696 5.297 5.789 5.928 12.102H27a1 1 0 0 1 0 2H5a1 1 0 0 1 0-2h1.084c.618-6.188 2.525-10.243 5.73-12-3.204-1.757-5.111-5.812-5.73-12H5a1 1 0 1 1 0-2zM16 17c-4.484 0-7.128 3.528-7.906 11h15.812c-.778-7.472-3.422-11-7.906-11m7.874-13.001L8.094 4C8.873 11.472 11.516 15 16 15c2.996 0 5.136-2.14 6.567-5.859.522-1.357.904-2.82 1.167-4.286l.098-.58z"/></svg>