<svg xmlns="http://www.w3.org/2000/svg" viewBox="0 0 32 32"><path fill="currentColor" d="m16.707 13.293 4 4a1 1 0 0 1-1.414 1.414L17 16.415V28a1 1 0 0 1-2 0V16.415l-2.293 2.292a1 1 0 0 1-1.32.083l-.094-.083a1 1 0 0 1 0-1.414l4-4a1 1 0 0 1 1.414 0M16 4a8.502 8.502 0 0 1 7.798 5.112A7.502 7.502 0 0 1 22.5 24H20v-2h2.5l.221-.004A5.5 5.5 0 0 0 28 16.5l-.003-.197-.015-.254-.025-.238-.042-.279-.075-.354-.086-.309-.013-.042a5.454 5.454 0 0 0-.256-.653l-.083-.171-.104-.193-.107-.183-.137-.212-.161-.225-.203-.253-.074-.085a5.535 5.535 0 0 0-.413-.419l-.174-.151-.284-.223-.149-.105-.216-.14-.328-.187-.282-.138-.036-.016A5.463 5.463 0 0 0 22.5 11l-.173.003a6.502 6.502 0 0 0-2.287-3.595l-.14-.109-.199-.143-.184-.123-.17-.106-.234-.134-.179-.095-.213-.102-.345-.148-.247-.091-.344-.109-.244-.064-.257-.057-.324-.057-.263-.033-.174-.016A6.59 6.59 0 0 0 16 6l-.218.004-.33.019-.298.032-.317.049-.276.056-.142.034c-.149.037-.296.08-.44.127l-.266.093-.2.079-.265.116-.219.108-.201.108a6.468 6.468 0 0 0-.28.166l-.19.125-.251.178-.24.189-.253.22-.154.145-.216.222-.044.047c-.072.079-.142.16-.21.243l-.155.193-.188.259-.225.35-.028.047c-.144.244-.273.5-.384.764l-.04.094a6.463 6.463 0 0 0-.452 1.96 5.058 5.058 0 0 0-2.339.315l-.281.12-.182.089-.186.1-.21.127-.16.107-.244.18-.176.144-.156.14-.198.196-.097.104-.138.16c-.058.069-.113.14-.167.212l-.14.198-.171.275-.133.244-.095.197-.121.292-.073.204-.08.268-.066.277-.029.15-.035.23a5.011 5.011 0 0 0 .03 1.49l.031.164.05.218.027.102c.089.324.21.636.36.93l.125.23.059.1.1.16.105.152.14.186.19.228.094.103.186.188.106.1.23.196.214.162.203.138.162.1.251.14.228.11.245.104.299.106.22.065.233.057.272.052c.19.03.385.05.582.058L9 22h3v2H9a7 7 0 0 1-1.155-13.905A8.503 8.503 0 0 1 16 4"/></svg>