<svg xmlns="http://www.w3.org/2000/svg" width="32px" height="32px" viewBox="0 0 32 32" version="1.1">
    <title>linear-new-office-doc-file-xls</title>
    <g id="linear-new-office-doc-file-xls" stroke-width="1" fill-rule="evenodd">
        <path d="M20,2 C20.2652165,2 20.5195704,2.10535684 20.7071068,2.29289322 L27.415,9 L29,9 C29.5522847,9 30,9.44771525 30,10 L30,23 C30,23.5522847 29.5522847,24 29,24 L28,24 L28,29 C28,29.5522847 27.5522847,30 27,30 L5,30 C4.44771525,30 4,29.5522847 4,29 L4,24 L3,24 C2.44771525,24 2,23.5522847 2,23 L2,10 C2,9.44771525 2.44771525,9 3,9 L4,9 L4,3 C4,2.44771525 4.44771525,2 5,2 L20,2 Z M26,24 L6,24 L6,28 L26,28 L26,24 Z M28,11 L4,11 L4,22 L28,22 L28,11 Z M15.5,12.5 L15.5,18.5 L19.5,18.5 L19.5,20.5 L13.5,20.5 L13.5,12.5 L15.5,12.5 Z M26.5,12.5 L26.5,14.5 L22.5,14.5 L22.5,15.5 L25.4,15.5 C25.9670123,15.5 26.4338239,15.9290107 26.4935453,16.4801429 L26.5,16.6 L26.5,19.4 C26.5,20.0075132 26.0075132,20.5 25.4,20.5 L20.5,20.5 L20.5,18.5 L24.5,18.5 L24.5,17.5 L21.6,17.5 C21.0329877,17.5 20.5661761,17.0709893 20.5064547,16.5198571 L20.5,16.4 L20.5,13.6 C20.5,12.9924868 20.9924868,12.5 21.6,12.5 L26.5,12.5 Z M7.921,12.4993571 L8.99984272,14.4413571 L10.078,12.4993571 L12.367,12.4993571 L10.1438427,16.5003571 L12.366,20.4993571 L10.077,20.4993571 L8.99984272,18.5583571 L7.921,20.4993571 L5.634,20.4993571 L7.85584272,16.5003571 L5.633,12.4993571 L7.921,12.4993571 Z M19.585,4 L6,4 L6,9 L24.585,9 L19.585,4 Z" id="&#24418;&#29366;" fill-rule="nonzero" />
    </g>
</svg>