<svg xmlns="http://www.w3.org/2000/svg" width="32px" height="32px" viewBox="0 0 32 32" version="1.1">
    <title>linear-new-tool-edit-gear-setting-2-hexagon</title>
    <g id="linear-new-tool-edit-gear-setting-2-hexagon" stroke-width="1" fill-rule="evenodd">
        <path d="M16.5,2.1339746 L27.7583302,8.6339746 C28.0677313,8.81260739 28.2583302,9.14273441 28.2583302,9.5 L28.2583302,22.5 C28.2583302,22.8572656 28.0677313,23.1873926 27.7583302,23.3660254 L16.5,29.8660254 C16.1905989,30.0446582 15.8094011,30.0446582 15.5,29.8660254 L4.24166975,23.3660254 C3.93226867,23.1873926 3.74166975,22.8572656 3.74166975,22.5 L3.74166975,9.5 C3.74166975,9.14273441 3.93226867,8.81260739 4.24166975,8.6339746 L15.5,2.1339746 C15.8094011,1.9553418 16.1905989,1.9553418 16.5,2.1339746 Z M16,4.155 L5.741,10.077 L5.741,21.922 L16,27.844 L26.258,21.922 L26.258,10.077 L16,4.155 Z M16,10 C19.3137085,10 22,12.6862915 22,16 C22,19.3137085 19.3137085,22 16,22 C12.6862915,22 10,19.3137085 10,16 C10,12.6862915 12.6862915,10 16,10 Z M16,12 C13.790861,12 12,13.790861 12,16 C12,18.209139 13.790861,20 16,20 C18.209139,20 20,18.209139 20,16 C20,13.790861 18.209139,12 16,12 Z" id="&#24418;&#29366;" fill-rule="nonzero" />
    </g>
</svg>