<svg xmlns="http://www.w3.org/2000/svg" width="32px" height="32px" viewBox="0 0 32 32" version="1.1">
    <title>linear-new-office-doc-document-code-program</title>
    <g id="linear-new-office-doc-document-code-program" stroke-width="1" fill-rule="evenodd">
        <path d="M27,2 C27.5522847,2 28,2.44771525 28,3 L28,19.743 L26,17.734 L26,4 L6,4 L6,28 L14.757,28 L16.757,30 L5,30 C4.44771525,30 4,29.5522847 4,29 L4,3 C4,2.44771525 4.44771525,2 5,2 L27,2 Z M20.7071068,20.2928932 C21.0976311,20.6834175 21.0976311,21.3165825 20.7071068,21.7071068 L17.415,25 L20.7071068,28.2928932 C21.0675907,28.6533772 21.0953203,29.2206082 20.7902954,29.6128994 L20.7071068,29.7071068 C20.3165825,30.0976311 19.6834175,30.0976311 19.2928932,29.7071068 L15.2928932,25.7071068 C14.9023689,25.3165825 14.9023689,24.6834175 15.2928932,24.2928932 L19.2928932,20.2928932 C19.6834175,19.9023689 20.3165825,19.9023689 20.7071068,20.2928932 Z M25.7071068,20.2928932 L29.7071068,24.2928932 C30.0976311,24.6834175 30.0976311,25.3165825 29.7071068,25.7071068 L25.7071068,29.7071068 C25.3165825,30.0976311 24.6834175,30.0976311 24.2928932,29.7071068 C23.9023689,29.3165825 23.9023689,28.6834175 24.2928932,28.2928932 L27.585,25 L24.2928932,21.7071068 C23.9324093,21.3466228 23.9046797,20.7793918 24.2097046,20.3871006 L24.2928932,20.2928932 C24.6834175,19.9023689 25.3165825,19.9023689 25.7071068,20.2928932 Z M15,14 C15.5522847,14 16,14.4477153 16,15 C16,15.5522847 15.5522847,16 15,16 L11,16 C10.4477153,16 10,15.5522847 10,15 C10,14.4477153 10.4477153,14 11,14 L15,14 Z M21,8 C21.5522847,8 22,8.44771525 22,9 C22,9.55228475 21.5522847,10 21,10 L11,10 C10.4477153,10 10,9.55228475 10,9 C10,8.44771525 10.4477153,8 11,8 L21,8 Z" id="&#24418;&#29366;" fill-rule="nonzero" />
    </g>
</svg>