<svg xmlns="http://www.w3.org/2000/svg" width="32px" height="32px" viewBox="0 0 32 32" version="1.1">
    <title>linear-ele-location-map</title>
    <g id="linear-ele-location-map" stroke-width="1" fill-rule="evenodd">
        <path d="M16,2 C22.0751322,2 27,6.92486775 27,13 C27,18.2773138 22.7371888,24.7685143 16.9723648,29.4991661 L16,30.2806248 L15.375305,29.7808688 C9.43502872,25.0286478 5,18.38286 5,13 C5,6.92486775 9.92486775,2 16,2 Z M5.43017669,21.2774823 C5.8248249,21.9960597 6.26292723,22.7130119 6.74103561,23.4239382 L4.962,28 L10.4586295,28.00031 C11.1180497,28.6853249 11.8120635,29.3535185 12.5368646,30.0000332 L2.03815512,30.0000332 L5.43017669,21.2774823 Z M26.5698233,21.2774823 L29.9618449,30.0000332 L19.4631354,30.0000332 C20.1879365,29.3535185 20.8819503,28.6853249 21.5413705,28.00031 L27.037,28 L25.2582924,23.4249374 C25.7366623,22.7136837 26.1749902,21.9963963 26.5698233,21.2774823 Z M16,4 C11.0294373,4 7,8.02943725 7,13 C7,17.3571281 10.6136034,23.0443495 15.608055,27.3724331 L16,27.705 L16.0569604,27.658929 C21.1116804,23.3925795 24.835169,17.7073315 24.994671,13.2924162 L25,13 C25,8.02943725 20.9705627,4 16,4 Z M16,8 C18.7614237,8 21,10.2385763 21,13 C21,15.7614237 18.7614237,18 16,18 C13.2385763,18 11,15.7614237 11,13 C11,10.2385763 13.2385763,8 16,8 Z M16,10 C14.3431458,10 13,11.3431458 13,13 C13,14.6568542 14.3431458,16 16,16 C17.6568542,16 19,14.6568542 19,13 C19,11.3431458 17.6568542,10 16,10 Z" id="&#24418;&#29366;" fill-rule="nonzero" />
    </g>
</svg>