<svg xmlns="http://www.w3.org/2000/svg" viewBox="0 0 32 32"><path fill="currentColor" d="M23 16a7 7 0 1 1 0 14 7 7 0 0 1 0-14m-7.484 1.999A8.968 8.968 0 0 0 14.512 20H9a3 3 0 0 0-3 3v5a1 1 0 0 1-2 0v-5a5 5 0 0 1 5-5zM23 18a5 5 0 1 0 0 10 5 5 0 0 0 0-10m-1.293 2.293L23 21.585l1.293-1.292a1 1 0 0 1 1.414 1.414L24.415 23l1.292 1.293a1 1 0 0 1-1.414 1.414L23 24.415l-1.293 1.292a1 1 0 0 1-1.414-1.414L21.585 23l-1.292-1.293a1 1 0 0 1 1.414-1.414M16 2a7 7 0 1 1 0 14 7 7 0 0 1 0-14m0 2a5 5 0 1 0 0 10 5 5 0 0 0 0-10"/></svg>