<svg xmlns="http://www.w3.org/2000/svg" width="32px" height="32px" viewBox="0 0 32 32" version="1.1">
    <title>linear-ele-food-fruit-grape</title>
    <g id="linear-ele-food-fruit-grape" stroke-width="1" fill-rule="evenodd">
        <path d="M19,2 C19.5522847,2 20,2.44771525 20,3 C20,3.55228475 19.5522847,4 19,4 L17,4 L17.0011864,6.10025909 C18.2208568,6.34814826 19.2792253,7.040021 20.0002202,7.99980567 C20.9119951,6.7854695 22.3642694,6 24,6 C26.7614237,6 29,8.23857625 29,11 C29,13.5687822 27.0628629,15.6851218 24.5697085,15.9678991 C24.8461202,16.5879425 25,17.276001 25,18 C25,20.5687822 23.0628629,22.6851218 20.5697085,22.9678991 C20.8461202,23.5879425 21,24.276001 21,25 C21,27.7614237 18.7614237,30 16,30 C13.2385763,30 11,27.7614237 11,25 C11,24.276001 11.1538798,23.5879425 11.4307178,22.9667463 C8.93713708,22.6851218 7,20.5687822 7,18 C7,17.276001 7.15387984,16.5879425 7.43071782,15.9667463 C4.93713708,15.6851218 3,13.5687822 3,11 C3,8.23857625 5.23857625,6 8,6 C9.63573058,6 11.0880049,6.7854695 12.0002202,7.99980567 C12.7212129,7.03956038 13.7801785,6.34748423 15.0005738,6.0999025 L15,4 L13,4 C12.4477153,4 12,3.55228475 12,3 C12,2.44771525 12.4477153,2 13,2 L19,2 Z M16,22 C14.3431458,22 13,23.3431458 13,25 C13,26.6568542 14.3431458,28 16,28 C17.6568542,28 19,26.6568542 19,25 C19,23.3431458 17.6568542,22 16,22 Z M12,15 C10.3431458,15 9,16.3431458 9,18 C9,19.6568542 10.3431458,21 12,21 C13.6568542,21 15,19.6568542 15,18 C15,16.3431458 13.6568542,15 12,15 Z M20,15 C18.3431458,15 17,16.3431458 17,18 C17,19.6568542 18.3431458,21 20,21 C21.6568542,21 23,19.6568542 23,18 C23,16.3431458 21.6568542,15 20,15 Z M8,8 C6.34314575,8 5,9.34314575 5,11 C5,12.6568542 6.34314575,14 8,14 C9.65685425,14 11,12.6568542 11,11 C11,9.34314575 9.65685425,8 8,8 Z M16,8 C14.3431458,8 13,9.34314575 13,11 C13,12.6568542 14.3431458,14 16,14 C17.6568542,14 19,12.6568542 19,11 C19,9.34314575 17.6568542,8 16,8 Z M24,8 C22.3431458,8 21,9.34314575 21,11 C21,12.6568542 22.3431458,14 24,14 C25.6568542,14 27,12.6568542 27,11 C27,9.34314575 25.6568542,8 24,8 Z" id="&#24418;&#29366;" fill-rule="nonzero" />
    </g>
</svg>