<svg xmlns="http://www.w3.org/2000/svg" width="32px" height="32px" viewBox="0 0 32 32" version="1.1">
    <title>linear-new-office-doc-document-star-collection 2</title>
    <g id="linear-new-office-doc-document-star-collection" stroke-width="1" fill-rule="evenodd">
        <path d="M27,2 C27.5522847,2 28,2.44771525 28,3 L28,18.968 L26,18.665 L26,4 L6,4 L6,28 L16.575,28 L16.232,30 L5,30 C4.44771525,30 4,29.5522847 4,29 L4,3 C4,2.44771525 4.44771525,2 5,2 L27,2 Z M23.8967361,17.5574343 L25.427,20.659 L28.8501374,21.156291 C29.6312997,21.2698005 29.9655591,22.1894663 29.4829197,22.7765574 L29.4043508,22.8619844 L26.927,25.276 L27.5123198,28.6850569 C27.6460615,29.4648309 26.8708851,30.0678906 26.1620726,29.7856521 L26.0613704,29.7392334 L23,28.13 L19.9386296,29.7392334 C19.2383489,30.1073927 18.4252624,29.5565118 18.474652,28.7951745 L18.4876802,28.6850569 L19.072,25.276 L16.5956492,22.8619844 C16.0303949,22.3109976 16.3005393,21.3704996 17.0360863,21.1792213 L17.1498626,21.156291 L20.572,20.659 L22.1032639,17.5574343 C22.4700776,16.8141886 23.5299224,16.8141886 23.8967361,17.5574343 Z M23,20.259 L22.1333803,22.0155147 C21.9877183,22.3106582 21.7061527,22.5152276 21.3804426,22.562556 L19.442,22.844 L20.8448421,24.2109646 C21.0510675,24.4119846 21.1591874,24.6905342 21.1457221,24.9743493 L21.1324388,25.096096 L20.801,27.025 L22.5346589,26.1148686 C22.7895674,25.9808552 23.0878946,25.9641036 23.3536579,26.0646136 L23.4653411,26.1148686 L25.198,27.025 L24.8675612,25.096096 C24.818878,24.8122512 24.8951344,24.5233486 25.0728505,24.3016521 L25.1551579,24.2109646 L26.557,22.844 L24.6195574,22.562556 C24.334561,22.5211436 24.0833628,22.3593437 23.9274342,22.1218177 L23.8666197,22.0155147 L23,20.259 Z M15,14 C15.5522847,14 16,14.4477153 16,15 C16,15.5522847 15.5522847,16 15,16 L11,16 C10.4477153,16 10,15.5522847 10,15 C10,14.4477153 10.4477153,14 11,14 L15,14 Z M21,8 C21.5522847,8 22,8.44771525 22,9 C22,9.55228475 21.5522847,10 21,10 L11,10 C10.4477153,10 10,9.55228475 10,9 C10,8.44771525 10.4477153,8 11,8 L21,8 Z" id="&#24418;&#29366;" fill-rule="nonzero" />
    </g>
</svg>