<svg xmlns="http://www.w3.org/2000/svg" width="32px" height="32px" viewBox="0 0 32 32" version="1.1">
    <title>linear-ele-time-date</title>
    <g id="linear-ele-time-date" stroke-width="1" fill-rule="evenodd">
        <path d="M23,2 C23.5522847,2 24,2.44771525 24,3 L24,4 L29,4 C29.5522847,4 30,4.44771525 30,5 L30,29 C30,29.5522847 29.5522847,30 29,30 L3,30 C2.44771525,30 2,29.5522847 2,29 L2,5 C2,4.44771525 2.44771525,4 3,4 L8,4 L8,3 C8,2.44771525 8.44771525,2 9,2 C9.55228475,2 10,2.44771525 10,3 L10,4 L22,4 L22,3 C22,2.44771525 22.4477153,2 23,2 Z M28,12 L4,12 L4,28 L28,28 L28,12 Z M11,22 C11.5522847,22 12,22.4477153 12,23 C12,23.5522847 11.5522847,24 11,24 L9,24 C8.44771525,24 8,23.5522847 8,23 C8,22.4477153 8.44771525,22 9,22 L11,22 Z M17,22 C17.5522847,22 18,22.4477153 18,23 C18,23.5522847 17.5522847,24 17,24 L15,24 C14.4477153,24 14,23.5522847 14,23 C14,22.4477153 14.4477153,22 15,22 L17,22 Z M23,22 C23.5522847,22 24,22.4477153 24,23 C24,23.5522847 23.5522847,24 23,24 L21,24 C20.4477153,24 20,23.5522847 20,23 C20,22.4477153 20.4477153,22 21,22 L23,22 Z M11,16 C11.5522847,16 12,16.4477153 12,17 C12,17.5522847 11.5522847,18 11,18 L9,18 C8.44771525,18 8,17.5522847 8,17 C8,16.4477153 8.44771525,16 9,16 L11,16 Z M17,16 C17.5522847,16 18,16.4477153 18,17 C18,17.5522847 17.5522847,18 17,18 L15,18 C14.4477153,18 14,17.5522847 14,17 C14,16.4477153 14.4477153,16 15,16 L17,16 Z M23,16 C23.5522847,16 24,16.4477153 24,17 C24,17.5522847 23.5522847,18 23,18 L21,18 C20.4477153,18 20,17.5522847 20,17 C20,16.4477153 20.4477153,16 21,16 L23,16 Z M8,6 L4,6 L4,10 L28,10 L28,6 L24,6 L24,7 C24,7.55228475 23.5522847,8 23,8 C22.4477153,8 22,7.55228475 22,7 L22,6 L10,6 L10,7 C10,7.55228475 9.55228475,8 9,8 C8.44771525,8 8,7.55228475 8,7 L8,6 Z" id="&#24418;&#29366;" fill-rule="nonzero" />
    </g>
</svg>