<svg xmlns="http://www.w3.org/2000/svg" width="32px" height="32px" viewBox="0 0 32 32" version="1.1">
    <title>linear-new-textedit-office-italic-tilt</title>
    <g id="linear-new-textedit-office-italic-tilt" stroke-width="1" fill-rule="evenodd">
        <path d="M8.5,29 C7.94771525,29 7.5,28.5522847 7.5,28 C7.5,27.4477153 7.94771525,27 8.5,27 L12.218,26.9997634 L17.718,4.99976345 L14,5 C13.4477153,5 13,4.55228475 13,4 C13,3.44771525 13.4477153,3 14,3 L23.5,3 C24.0522847,3 24.5,3.44771525 24.5,4 C24.5,4.55228475 24.0522847,5 23.5,5 L19.781,4.99976345 L14.281,26.9997634 L18,27 C18.5522847,27 19,27.4477153 19,28 C19,28.5522847 18.5522847,29 18,29 L8.5,29 Z" id="&#36335;&#24452;" fill-rule="nonzero" />
    </g>
</svg>