<svg xmlns="http://www.w3.org/2000/svg" viewBox="0 0 32 32"><path fill="currentColor" d="M27 2a1 1 0 0 1 1 1v16.743l-2-2.009V4H6v24h8.757l2 2H5a1 1 0 0 1-1-1V3a1 1 0 0 1 1-1zm-6.293 18.293a1 1 0 0 1 0 1.414L17.415 25l3.292 3.293a1 1 0 0 1 .083 1.32l-.083.094a1 1 0 0 1-1.414 0l-4-4a1 1 0 0 1 0-1.414l4-4a1 1 0 0 1 1.414 0m5 0 4 4a1 1 0 0 1 0 1.414l-4 4a1 1 0 0 1-1.414-1.414L27.585 25l-3.292-3.293a1 1 0 0 1-.083-1.32l.083-.094a1 1 0 0 1 1.414 0M15 14a1 1 0 0 1 0 2h-4a1 1 0 0 1 0-2zm6-6a1 1 0 0 1 0 2H11a1 1 0 0 1 0-2z"/></svg>