<svg xmlns="http://www.w3.org/2000/svg" width="32px" height="32px" viewBox="0 0 32 32" version="1.1">
    <title>linear-ele-arrow-up</title>
    <g id="linear-ele-arrow-up" stroke-width="1" fill-rule="evenodd">
        <path d="M16.7071068,4.79289322 L25.7071068,13.7928932 C26.0976311,14.1834175 26.0976311,14.8165825 25.7071068,15.2071068 C25.3165825,15.5976311 24.6834175,15.5976311 24.2928932,15.2071068 L17,7.915 L17,26.5 C17,27.0522847 16.5522847,27.5 16,27.5 C15.4477153,27.5 15,27.0522847 15,26.5 L15,7.915 L7.70710678,15.2071068 C7.34662282,15.5675907 6.77939176,15.5953203 6.38710056,15.2902954 L6.29289322,15.2071068 C5.90236893,14.8165825 5.90236893,14.1834175 6.29289322,13.7928932 L15.2928932,4.79289322 C15.6834175,4.40236893 16.3165825,4.40236893 16.7071068,4.79289322 Z" id="&#36335;&#24452;" fill-rule="nonzero" />
    </g>
</svg>