<svg xmlns="http://www.w3.org/2000/svg" viewBox="0 0 32 32"><path fill="currentColor" d="m22.5 17.134 5.196 3a1 1 0 0 1 .5.866v6a1 1 0 0 1-.5.866l-5.196 3a1 1 0 0 1-1 0l-5.196-3a1 1 0 0 1-.5-.866v-6a1 1 0 0 1 .5-.866l5.196-3a1 1 0 0 1 1 0M16.625 1.219l10 8A1 1 0 0 1 27 10v7.422l-2-1.155V10.48l-9-7.2-9 7.199V28h5.7l3.393 2H6a1 1 0 0 1-1-1V10a1 1 0 0 1 .375-.78l10-8a1 1 0 0 1 1.25 0M22 19.155l-4.197 2.422v4.845L22 28.844l4.196-2.422v-4.845zM22 22a2 2 0 1 1 0 4 2 2 0 0 1 0-4M16 9a4 4 0 1 1 0 8 4 4 0 0 1 0-8m0 2a2 2 0 1 0 0 4 2 2 0 0 0 0-4"/></svg>