<svg xmlns="http://www.w3.org/2000/svg" width="32px" height="32px" viewBox="0 0 32 32" version="1.1">
    <title>linear-ele-symbol-more</title>
    <g id="linear-ele-symbol-more" stroke-width="1" fill-rule="evenodd">
        <path d="M5.5,12.5 C7.43299662,12.5 9,14.0670034 9,16 C9,17.9329966 7.43299662,19.5 5.5,19.5 C3.56700338,19.5 2,17.9329966 2,16 C2,14.0670034 3.56700338,12.5 5.5,12.5 Z M5.5,14.5 C4.67157288,14.5 4,15.1715729 4,16 C4,16.8284271 4.67157288,17.5 5.5,17.5 C6.32842712,17.5 7,16.8284271 7,16 C7,15.1715729 6.32842712,14.5 5.5,14.5 Z M16,12.5 C17.9329966,12.5 19.5,14.0670034 19.5,16 C19.5,17.9329966 17.9329966,19.5 16,19.5 C14.0670034,19.5 12.5,17.9329966 12.5,16 C12.5,14.0670034 14.0670034,12.5 16,12.5 Z M16,14.5 C15.1715729,14.5 14.5,15.1715729 14.5,16 C14.5,16.8284271 15.1715729,17.5 16,17.5 C16.8284271,17.5 17.5,16.8284271 17.5,16 C17.5,15.1715729 16.8284271,14.5 16,14.5 Z M26.5,12.5 C28.4329966,12.5 30,14.0670034 30,16 C30,17.9329966 28.4329966,19.5 26.5,19.5 C24.5670034,19.5 23,17.9329966 23,16 C23,14.0670034 24.5670034,12.5 26.5,12.5 Z M26.5,14.5 C25.6715729,14.5 25,15.1715729 25,16 C25,16.8284271 25.6715729,17.5 26.5,17.5 C27.3284271,17.5 28,16.8284271 28,16 C28,15.1715729 27.3284271,14.5 26.5,14.5 Z" id="&#24418;&#29366;" fill-rule="nonzero" />
    </g>
</svg>