<svg xmlns="http://www.w3.org/2000/svg" width="32px" height="32px" viewBox="0 0 32 32" version="1.1">
    <title>linear-new-office-doc-document-loading</title>
    <g id="linear-new-office-doc-document-loading" stroke-width="1" fill-rule="evenodd">
        <path d="M18,24 C18,26.7614237 20.2385763,29 23,29 C24.1718816,29 25.249601,28.5968439 26.1020287,27.9216613 L24.5,26 L29.7098107,26.0010432 C28.8489278,28.8919961 26.1706393,31 23,31 C19.1340068,31 16,27.8659932 16,24 L18,24 Z M27,2 C27.5522847,2 28,2.44771525 28,3 L28.00121,16.5163591 C27.3840325,16.1030892 26.7128866,15.7641414 26.000578,15.5123214 L26,4 L6,4 L6,28 L14.9360629,28.001093 C15.297945,28.7290394 15.7554943,29.4010412 16.2922591,30.0006464 L5,30 C4.44771525,30 4,29.5522847 4,29 L4,3 C4,2.44771525 4.44771525,2 5,2 L27,2 Z M23,17 C26.8659932,17 30,20.1340068 30,24 L28,24 C28,21.2385763 25.7614237,19 23,19 C21.8282872,19 20.7507094,19.40304 19.8983395,20.0780471 L21.5,22 L16.2898925,21.9999537 C17.1504565,19.1084885 19.8289963,17 23,17 Z M15,14 C15.5522847,14 16,14.4477153 16,15 C16,15.5522847 15.5522847,16 15,16 L11,16 C10.4477153,16 10,15.5522847 10,15 C10,14.4477153 10.4477153,14 11,14 L15,14 Z M21,8 C21.5522847,8 22,8.44771525 22,9 C22,9.55228475 21.5522847,10 21,10 L11,10 C10.4477153,10 10,9.55228475 10,9 C10,8.44771525 10.4477153,8 11,8 L21,8 Z" id="&#24418;&#29366;" fill-rule="nonzero" />
    </g>
</svg>