<svg xmlns="http://www.w3.org/2000/svg" viewBox="0 0 32 32"><path fill="currentColor" d="m10.4 3.293 18.384 18.385a1 1 0 0 1 0 1.414c-5.467 5.467-14.331 5.467-19.799 0-5.467-5.467-5.467-14.332 0-19.8a1 1 0 0 1 1.414 0m-.679 2.15-.133.161c-3.794 4.636-3.594 11.448.599 15.855l.212.219c4.398 4.398 11.36 4.668 16.074.812l.16-.135-4.378-4.378-.986 3.943a1 1 0 0 1-1.94-.485l1.277-5.107-1.721-1.721-4.243 4.242a1 1 0 1 1-1.414-1.414l4.242-4.243-1.721-1.721-5.107 1.277a1 1 0 0 1-.485-1.94l3.943-.986z"/></svg>