<svg xmlns="http://www.w3.org/2000/svg" viewBox="0 0 32 32"><path fill="currentColor" d="M20 2a1 1 0 0 1 .707.293L27.415 9H29a1 1 0 0 1 1 1v13a1 1 0 0 1-1 1h-1v5a1 1 0 0 1-1 1H5a1 1 0 0 1-1-1v-5H3a1 1 0 0 1-1-1V10a1 1 0 0 1 1-1h1V3a1 1 0 0 1 1-1zm6 22H6v4h20zm2-13H4v11h24zm-17 1.5v2H7.5v4h2v-1h-1v-2h1.9a1.1 1.1 0 0 1 1.1 1.1v2.8a1.1 1.1 0 0 1-1.1 1.1H6.6a1.1 1.1 0 0 1-1.1-1.1v-5.8a1.1 1.1 0 0 1 1.1-1.1zm7.5 0v2H17v4h1.5v2h-5v-2H15v-4h-1.5v-2zm8 0v2h-4V16H26v2h-3.5v2.5h-2v-8zM19.585 4H6v5h18.585z"/></svg>