<svg xmlns="http://www.w3.org/2000/svg" width="32px" height="32px" viewBox="0 0 32 32" version="1.1">
    <title>linear-ele-tool-edit-delete-trash</title>
    <g id="linear-ele-tool-edit-delete-trash" stroke-width="1" fill-rule="evenodd">
        <path d="M20,2 C20.5522847,2 21,2.44771525 21,3 L21,6 L29,6 C29.5522847,6 30,6.44771525 30,7 C30,7.55228475 29.5522847,8 29,8 L27,8 L27,29 C27,29.5522847 26.5522847,30 26,30 L6,30 C5.44771525,30 5,29.5522847 5,29 L5,8 L3,8 C2.44771525,8 2,7.55228475 2,7 C2,6.44771525 2.44771525,6 3,6 L11,6 L11,3 C11,2.44771525 11.4477153,2 12,2 L20,2 Z M25,8 L7,8 L7,28 L25,28 L25,8 Z M13,12 C13.5522847,12 14,12.4477153 14,13 L14,23 C14,23.5522847 13.5522847,24 13,24 C12.4477153,24 12,23.5522847 12,23 L12,13 C12,12.4477153 12.4477153,12 13,12 Z M19,12 C19.5522847,12 20,12.4477153 20,13 L20,23 C20,23.5522847 19.5522847,24 19,24 C18.4477153,24 18,23.5522847 18,23 L18,13 C18,12.4477153 18.4477153,12 19,12 Z M19,4 L13,4 L13,6 L19,6 L19,4 Z" id="&#24418;&#29366;" fill-rule="nonzero" />
    </g>
</svg>