<svg xmlns="http://www.w3.org/2000/svg" width="32px" height="32px" viewBox="0 0 32 32" version="1.1">
    <title>linear-ele-food-orange</title>
    <g id="linear-ele-food-orange" stroke-width="1" fill-rule="evenodd">
        <path d="M16,2 C23.7319865,2 30,8.2680135 30,16 C30,23.7319865 23.7319865,30 16,30 C8.2680135,30 2,23.7319865 2,16 C2,8.2680135 8.2680135,2 16,2 Z M13.9690158,19.4467617 L8.25140247,25.1632607 C10.103815,26.7312668 12.4380392,27.7476834 15.0005348,27.9589703 L15.0002435,19.8740452 C14.6335101,19.7796793 14.2871285,19.6346124 13.9690158,19.4467617 Z M17.0007613,19.8737865 L17.0004669,27.9588877 C19.5625691,27.7474185 21.8964264,26.7310625 23.7485975,25.1632607 L18.0309842,19.4467617 C17.7131621,19.6344408 17.3671226,19.7794143 17.0007613,19.8737865 Z M27.9588877,17.0004669 L19.8737865,17.0007613 C19.7794143,17.3671226 19.6344408,17.7131621 19.4467617,18.0309842 L25.1632607,23.7485975 C26.7310625,21.8964264 27.7474185,19.5625691 27.9588877,17.0004669 Z M12.1262135,17.0007613 L4.0411123,17.0004669 C4.2525815,19.5625691 5.26893751,21.8964264 6.83673926,23.7485975 L12.5532383,18.0309842 C12.3655592,17.7131621 12.2205857,17.3671226 12.1262135,17.0007613 Z M16,14 C14.8954305,14 14,14.8954305 14,16 C14,17.1045695 14.8954305,18 16,18 C17.1045695,18 18,17.1045695 18,16 C18,14.8954305 17.1045695,14 16,14 Z M4.04102967,15.0005348 L12.1259548,15.0002435 C12.2203207,14.6335101 12.3653876,14.2871285 12.5532383,13.9690158 L6.83673926,8.25140247 C5.2687332,10.103815 4.2523166,12.4380392 4.04102967,15.0005348 Z M25.1632607,8.25140247 L19.4467617,13.9690158 C19.6346124,14.2871285 19.7796793,14.6335101 19.8740452,15.0002435 L27.9589703,15.0005348 C27.7476834,12.4380392 26.7312668,10.103815 25.1632607,8.25140247 Z M17.0004669,4.0411123 L17.0007613,12.1262135 C17.3671226,12.2205857 17.7131621,12.3655592 18.0309842,12.5532383 L23.7485975,6.83673926 C21.8964264,5.26893751 19.5625691,4.2525815 17.0004669,4.0411123 Z M8.25140247,6.83673926 L13.9690158,12.5532383 C14.2871285,12.3653876 14.6335101,12.2203207 15.0002435,12.1259548 L15.0005348,4.04102967 C12.4380392,4.2523166 10.103815,5.2687332 8.25140247,6.83673926 Z" id="&#24418;&#29366;" fill-rule="nonzero" />
    </g>
</svg>