<svg xmlns="http://www.w3.org/2000/svg" width="32px" height="32px" viewBox="0 0 32 32" version="1.1">
    <title>linear-new-medic-health-pill</title>
    <g id="linear-new-medic-health-pill" stroke-width="1" fill-rule="evenodd">
        <path d="M26.6066017,5.39339828 C30.1213203,8.90811691 30.1213203,14.6066017 26.6066017,18.1213203 L18.1213203,26.6066017 C14.6066017,30.1213203 8.90811691,30.1213203 5.39339828,26.6066017 C1.87867966,23.0918831 1.87867966,17.3933983 5.39339828,13.8786797 L13.8786797,5.39339828 C17.3933983,1.87867966 23.0918831,1.87867966 26.6066017,5.39339828 Z M15.2928932,6.80761184 L6.80761184,15.2928932 C4.0739418,18.0265633 4.0739418,22.4587181 6.80761184,25.1923882 C9.54128189,27.9260582 13.9734367,27.9260582 16.7071068,25.1923882 L25.1923882,16.7071068 C27.9260582,13.9734367 27.9260582,9.54128189 25.1923882,6.80761184 C22.4587181,4.0739418 18.0265633,4.0739418 15.2928932,6.80761184 Z M13.8786797,12.4644661 L19.5355339,18.1213203 C19.9260582,18.5118446 19.9260582,19.1450096 19.5355339,19.5355339 C19.1450096,19.9260582 18.5118446,19.9260582 18.1213203,19.5355339 L12.4644661,13.8786797 C12.0739418,13.4881554 12.0739418,12.8549904 12.4644661,12.4644661 C12.8549904,12.0739418 13.4881554,12.0739418 13.8786797,12.4644661 Z" id="&#24418;&#29366;" fill-rule="nonzero" />
    </g>
</svg>