<svg xmlns="http://www.w3.org/2000/svg" viewBox="0 0 32 32"><path fill="currentColor" d="m7.207 4.293 5 5a1 1 0 0 1 .187 1.154l-1.177 2.355 7.98 7.98 2.356-1.176a1 1 0 0 1 1.058.102l.096.085 5 5a1 1 0 0 1-.306 1.623l-8 3.5a1 1 0 0 1-1.108-.209l-16-16a1 1 0 0 1-.21-1.108l3.5-8a1 1 0 0 1 1.624-.306m-.379 2.45L4.19 12.775l15.034 15.034 6.032-2.638-3.454-3.454-2.355 1.177a1 1 0 0 1-1.058-.102l-.096-.085-9-9a1 1 0 0 1-.187-1.154l1.176-2.356zM16 8a8 8 0 0 1 8 8 1 1 0 0 1-2 0 6 6 0 0 0-6-6 1 1 0 0 1 0-2m0-6c7.732 0 14 6.268 14 14a1 1 0 0 1-2 0c0-6.627-5.373-12-12-12a1 1 0 0 1 0-2"/></svg>