<svg xmlns="http://www.w3.org/2000/svg" width="32px" height="32px" viewBox="0 0 32 32" version="1.1">
    <title>linear-new-other-movie-ticket</title>
    <g id="linear-new-other-movie-ticket" stroke-width="1" fill-rule="evenodd">
        <path d="M29,6 C29.5522847,6 30,6.44771525 30,7 L30,12 C30,12.4304304 29.7245699,12.8125693 29.3162278,12.9486833 C27.7175207,13.4815856 27,14.4382799 27,16 C27,17.5617201 27.7175207,18.5184144 29.3162278,19.0513167 C29.7245699,19.1874307 30,19.5695696 30,20 L30,25 C30,25.5522847 29.5522847,26 29,26 L3,26 C2.44771525,26 2,25.5522847 2,25 L2,20 C2,19.5695696 2.27543009,19.1874307 2.68377223,19.0513167 C4.28247927,18.5184144 5,17.5617201 5,16 C5,14.4382799 4.28247927,13.4815856 2.68377223,12.9486833 C2.27543009,12.8125693 2,12.4304304 2,12 L2,7 C2,6.44771525 2.44771525,6 3,6 L29,6 Z M20,8 L4,8 L4,11.317 L4.02535632,11.3287262 C5.89437597,12.1793059 6.91935236,13.69189 6.99543187,15.7503696 L7,16 C7,18.0986023 6.04995643,19.6576841 4.25422042,20.5616929 L4,20.682 L4,24 L20,24 L20,21 L22,21 L22,24 L28,24 L28,20.682 L27.9746437,20.6712738 C26.105624,19.8206941 25.0806476,18.30811 25.0045681,16.2496304 L25,16 C25,13.9013977 25.9500436,12.3423159 27.7457796,11.4383071 L28,11.317 L28,8 L22,8 L22,11 L20,11 L20,8 Z M22,13 L22,19 L20,19 L20,13 L22,13 Z" id="&#24418;&#29366;" fill-rule="nonzero" />
    </g>
</svg>