<svg xmlns="http://www.w3.org/2000/svg" viewBox="0 0 32 32"><path fill="currentColor" d="m16.707 2.793 3 3a1 1 0 1 1-1.414 1.414L17 5.915V15h9.085l-1.292-1.293a1 1 0 0 1-.083-1.32l.083-.094a1 1 0 0 1 1.414 0l3 3a1 1 0 0 1 0 1.414l-3 3a1 1 0 0 1-1.414-1.414L26.085 17H17v9.084l1.293-1.291a1 1 0 0 1 1.32-.083l.094.083a1 1 0 0 1 0 1.414l-3 3a1 1 0 0 1-1.414 0l-3-3a1 1 0 0 1 1.414-1.414L15 26.086V17H5.915l1.292 1.293a1 1 0 0 1 .083 1.32l-.083.094a1 1 0 0 1-1.414 0l-3-3a1 1 0 0 1 0-1.414l3-3a1 1 0 1 1 1.414 1.414L5.915 15H15V5.915l-1.293 1.292a1 1 0 0 1-1.32.083l-.094-.083a1 1 0 0 1 0-1.414l3-3a1 1 0 0 1 1.414 0"/></svg>