<svg xmlns="http://www.w3.org/2000/svg" viewBox="0 0 32 32"><path fill="currentColor" d="M29 6a1 1 0 0 1 1 1v5a1 1 0 0 1-.684.949C27.718 13.482 27 14.439 27 16c0 1.562.718 2.518 2.316 3.051A1 1 0 0 1 30 20v5a1 1 0 0 1-1 1H3a1 1 0 0 1-1-1v-5a1 1 0 0 1 .684-.949C4.282 18.518 5 17.561 5 16c0-1.562-.718-2.518-2.316-3.051A1 1 0 0 1 2 12V7a1 1 0 0 1 1-1zm-9 2H4v3.317l.025.012c1.87.85 2.894 2.363 2.97 4.421L7 16c0 2.099-.95 3.658-2.746 4.562l-.254.12V24h16v-3h2v3h6v-3.318l-.025-.01c-1.87-.851-2.894-2.364-2.97-4.422L25 16c0-2.099.95-3.658 2.746-4.562l.254-.121V8h-6v3h-2zm2 5v6h-2v-6z"/></svg>