<svg xmlns="http://www.w3.org/2000/svg" viewBox="0 0 32 32"><path fill="currentColor" d="M26.253 5.743a8 8 0 0 1 0 11.313l-6.364 6.364a3 3 0 0 1-4.243 0l-1.414-1.415L9.99 26.25a3 3 0 1 1-4.243-4.243l4.242-4.244-1.414-1.413a3 3 0 0 1 0-4.242l6.364-6.364a8 8 0 0 1 11.314 0m-14.85 13.433L7.161 23.42a1 1 0 0 0 1.414 1.415l4.243-4.244zm4.95-12.02L9.99 13.522a1 1 0 0 0 0 1.414l7.07 7.071a1 1 0 0 0 1.415 0l6.364-6.364a6 6 0 0 0-8.485-8.485m7.072 4.243a1 1 0 0 1 0 1.415l-5.657 5.657a1 1 0 0 1-1.414-1.415L22.01 11.4a1 1 0 0 1 1.415 0m-2.829-2.828a1 1 0 0 1 0 1.414l-5.657 5.657a1 1 0 1 1-1.414-1.414l5.657-5.657a1 1 0 0 1 1.414 0"/></svg>