<svg xmlns="http://www.w3.org/2000/svg" width="32px" height="32px" viewBox="0 0 32 32" version="1.1">
    <title>linear-new-other-safe-shield-protect</title>
    <g id="linear-new-other-safe-shield-protect" stroke-width="1" fill-rule="evenodd">
        <path d="M15.7368826,1.53523618 C15.9091484,1.48825461 16.0908516,1.48825461 16.2631174,1.53523618 L27.2631174,4.53523618 C27.6981787,4.65388925 28,5.04904894 28,5.5 L28,18.5 C28,23.3349214 24.0460418,27.2888797 16.3786328,30.425547 C16.1359711,30.5248177 15.8640289,30.5248177 15.6213672,30.425547 C7.95395821,27.2888797 4,23.3349214 4,18.5 L4,5.5 C4,5.04904894 4.30182133,4.65388925 4.73688259,4.53523618 L15.7368826,1.53523618 Z M16,3.536 L6,6.263 L6,18.5 C6,22.256613 9.24814987,25.5784219 15.9710852,28.405427 L16,28.417 L16.0289148,28.405427 C22.6173914,25.634962 25.8686841,22.3892874 25.9961004,18.7248745 L26,18.5 L26,6.263 L16,3.536 Z" id="&#24418;&#29366;" fill-rule="nonzero" />
    </g>
</svg>