<svg xmlns="http://www.w3.org/2000/svg" viewBox="0 0 32 32"><path fill="currentColor" d="M20 2a1 1 0 0 1 .707.293L27.415 9H29a1 1 0 0 1 1 1v13a1 1 0 0 1-1 1h-1v5a1 1 0 0 1-1 1H5a1 1 0 0 1-1-1v-5H3a1 1 0 0 1-1-1V10a1 1 0 0 1 1-1h1V3a1 1 0 0 1 1-1zm6 22H6v4h20zm2-13H4v11h24zm-16.5 1.5v2h-4v1h2.9a1.1 1.1 0 0 1 1.094.98l.006.12v2.8a1.1 1.1 0 0 1-1.1 1.1H5.5v-2h4v-1H6.6a1.1 1.1 0 0 1-1.094-.98L5.5 16.4v-2.8a1.1 1.1 0 0 1 1.1-1.1zm7.981 0-3.201 4 3.199 4h-2.56L15 18.1v2.4h-2v-8h2v2.4l1.92-2.4zm7.019 0v2h-4v1H26v2h-3.5v1h4v2h-6v-8zM19.585 4H6v5h18.585z"/></svg>