<svg xmlns="http://www.w3.org/2000/svg" viewBox="0 0 32 32"><path fill="currentColor" d="M14.184 3.55a2 2 0 0 1 3.632 0l3.09 6.698 7.325.868a2 2 0 0 1 1.762 2.073l-.012.149a2 2 0 0 1-.628 1.233l-5.416 5.008 1.438 7.235a2 2 0 0 1-1.426 2.317l-.146.034a2 2 0 0 1-1.366-.216l-6.438-3.604-6.436 3.604a2 2 0 0 1-2.64-.635l-.082-.133a2 2 0 0 1-.216-1.367l1.437-7.235-5.415-5.008a2 2 0 0 1-.222-2.695l.111-.131a2 2 0 0 1 1.233-.629l7.324-.868zM16 4.388l-3.324 7.206a1 1 0 0 1-.79.574l-7.881.935L9.83 18.49a1 1 0 0 1 .302.929l-1.546 7.784 6.925-3.877a1 1 0 0 1 .976 0l6.925 3.877-1.546-7.784a1 1 0 0 1 .302-.93l5.826-5.387-7.88-.935a1 1 0 0 1-.791-.574z"/></svg>