<svg xmlns="http://www.w3.org/2000/svg" width="32px" height="32px" viewBox="0 0 32 32" version="1.1">
    <title>linear-ele-office-tool-scissors</title>
    <g id="linear-ele-office-tool-scissors" stroke-width="1" fill-rule="evenodd">
        <path d="M7.82530726,3.43531608 L19.9190272,21.1104148 C20.824891,19.8333788 22.3151225,19 24,19 C26.7614237,19 29,21.2385763 29,24 C29,26.7614237 26.7614237,29 24,29 C21.2385763,29 19,26.7614237 19,24 C19,23.7861062 19.0134308,23.5753493 19.0394951,23.3685268 L15.999,18.9239047 L12.9605049,23.3685268 C12.9865692,23.5753493 13,23.7861062 13,24 C13,26.7614237 10.7614237,29 8,29 C5.23857625,29 3,26.7614237 3,24 C3,21.2385763 5.23857625,19 8,19 C9.68487752,19 11.175109,19.8333788 12.0809728,21.1104148 L14.788,17.1529047 L6.17469274,4.56468392 C5.86282642,4.1088793 5.97951147,3.48655905 6.43531608,3.17469274 C6.8911207,2.86282642 7.51344095,2.97951147 7.82530726,3.43531608 Z M24,21 C22.3431458,21 21,22.3431458 21,24 C21,25.6568542 22.3431458,27 24,27 C25.6568542,27 27,25.6568542 27,24 C27,22.3431458 25.6568542,21 24,21 Z M8,21 C6.34314575,21 5,22.3431458 5,24 C5,25.6568542 6.34314575,27 8,27 C9.65685425,27 11,25.6568542 11,24 C11,22.3431458 9.65685425,21 8,21 Z M25.5646839,3.17469274 C26.0204885,3.48655905 26.1371736,4.1088793 25.8253073,4.56468392 L18.4229047,15.3819047 L17.2109047,13.6109047 L24.1746927,3.43531608 C24.4865591,2.97951147 25.1088793,2.86282642 25.5646839,3.17469274 Z" id="&#24418;&#29366;" fill-rule="nonzero" />
    </g>
</svg>