<svg xmlns="http://www.w3.org/2000/svg" width="32px" height="32px" viewBox="0 0 32 32" version="1.1">
    <title>linear-ele-digital-turn-off</title>
    <g id="linear-ele-digital-turn-off" stroke-width="1" fill-rule="evenodd">
        <path d="M22,6 C27.5228475,6 32,10.4771525 32,16 C32,21.5228475 27.5228475,26 22,26 L10,26 C4.4771525,26 0,21.5228475 0,16 C0,10.4771525 4.4771525,6 10,6 L22,6 Z M22,8 L10,8 C5.581722,8 2,11.581722 2,16 C2,20.418278 5.581722,24 10,24 L22,24 C26.418278,24 30,20.418278 30,16 C30,11.581722 26.418278,8 22,8 Z M10,10.5 C13.0375661,10.5 15.5,12.9624339 15.5,16 C15.5,19.0375661 13.0375661,21.5 10,21.5 C6.96243388,21.5 4.5,19.0375661 4.5,16 C4.5,12.9624339 6.96243388,10.5 10,10.5 Z M10,12.5 C8.06700338,12.5 6.5,14.0670034 6.5,16 C6.5,17.9329966 8.06700338,19.5 10,19.5 C11.9329966,19.5 13.5,17.9329966 13.5,16 C13.5,14.0670034 11.9329966,12.5 10,12.5 Z" id="&#24418;&#29366;" fill-rule="nonzero" />
    </g>
</svg>