<svg xmlns="http://www.w3.org/2000/svg" viewBox="0 0 32 32"><path fill="currentColor" d="M17.496 14.132a1 1 0 0 1 .372 1.364L14.722 21H19a1 1 0 0 1 .919 1.395l-.05.101-4 7a1 1 0 1 1-1.737-.992L17.276 23H13a1 1 0 0 1-.919-1.395l.05-.101 4-7a1 1 0 0 1 1.365-.372M16 2a8.005 8.005 0 0 1 7.715 5.874l.059.234.186.034a7.503 7.503 0 0 1 6.036 7.112L30 15.5a7.5 7.5 0 0 1-7.5 7.5v-2a5.5 5.5 0 0 0 .366-10.988l-.812-.053-.113-.805a6.001 6.001 0 0 0-11.881 0l-.113.805-.812.053A5.5 5.5 0 0 0 9.5 21v2A7.5 7.5 0 0 1 8.041 8.142l.184-.034.06-.233a8.004 8.004 0 0 1 7.455-5.87z"/></svg>