<svg xmlns="http://www.w3.org/2000/svg" width="32px" height="32px" viewBox="0 0 32 32" version="1.1">
    <title>linear-new-symbol-share</title>
    <g id="linear-new-symbol-share" stroke-width="1" fill-rule="evenodd">
        <path d="M24,3 C26.7614237,3 29,5.23857625 29,8 C29,10.7614237 26.7614237,13 24,13 C22.5734967,13 21.2865191,12.4026191 20.3755874,11.4443772 L12.6852402,16.2501179 C12.8887434,16.7947533 13,17.384384 13,18 C13,18.266685 12.9791213,18.5284935 12.9389094,18.7838801 L19.7637508,21.3427859 C20.6483982,19.9354083 22.2149609,19 24,19 C26.7614237,19 29,21.2385763 29,24 C29,26.7614237 26.7614237,29 24,29 C21.2385763,29 19,26.7614237 19,24 C19,23.733315 19.0208787,23.4715065 19.0610906,23.2161199 L12.2362492,20.6572141 C11.3516018,22.0645917 9.78503907,23 8,23 C5.23857625,23 3,20.7614237 3,18 C3,15.2385763 5.23857625,13 8,13 C9.42600559,13 10.7125827,13.5969641 11.623459,14.5546199 L19.3143865,9.7488827 C19.1111205,9.20452539 19,8.61523949 19,8 C19,5.23857625 21.2385763,3 24,3 Z M24,21 C22.3431458,21 21,22.3431458 21,24 C21,25.6568542 22.3431458,27 24,27 C25.6568542,27 27,25.6568542 27,24 C27,22.3431458 25.6568542,21 24,21 Z M8,15 C6.34314575,15 5,16.3431458 5,18 C5,19.6568542 6.34314575,21 8,21 C9.65685425,21 11,19.6568542 11,18 C11,16.3431458 9.65685425,15 8,15 Z M24,5 C22.3431458,5 21,6.34314575 21,8 C21,9.65685425 22.3431458,11 24,11 C25.6568542,11 27,9.65685425 27,8 C27,6.34314575 25.6568542,5 24,5 Z" id="&#24418;&#29366;" fill-rule="nonzero" />
    </g>
</svg>