<svg xmlns="http://www.w3.org/2000/svg" width="32px" height="32px" viewBox="0 0 32 32" version="1.1">
    <title>linear-new-office-doc-file-png</title>
    <g id="linear-new-office-doc-file-png" stroke-width="1" fill-rule="evenodd">
        <path d="M20,2 C20.2652165,2 20.5195704,2.10535684 20.7071068,2.29289322 L27.415,9 L29,9 C29.5522847,9 30,9.44771525 30,10 L30,23 C30,23.5522847 29.5522847,24 29,24 L28,24 L28,29 C28,29.5522847 27.5522847,30 27,30 L5,30 C4.44771525,30 4,29.5522847 4,29 L4,24 L3,24 C2.44771525,24 2,23.5522847 2,23 L2,10 C2,9.44771525 2.44771525,9 3,9 L4,9 L4,3 C4,2.44771525 4.44771525,2 5,2 L20,2 Z M26,24 L6,24 L6,28 L26,28 L26,24 Z M28,11 L4,11 L4,22 L28,22 L28,11 Z M10.4,12.5 C11.0075132,12.5 11.5,12.9924868 11.5,13.6 L11.5,17.4 C11.5,18.0075132 11.0075132,18.5 10.4,18.5 L7.5,18.5 L7.5,20.5 L5.5,20.5 L5.5,12.5 L10.4,12.5 Z M26,12.5 L26,14.5 L22.5,14.5 L22.5,18.5 L24.5,18.5 L24.5,17.5 L23.5,17.5 L23.5,15.5 L26.5,15.5 L26.5,20.5 L20.5,20.5 L20.5,12.5 L26,12.5 Z M15.118,12.499932 L17,16.264 L17,12.499932 L19,12.499932 L19,20.5 L16.882,20.5 L15,16.736 L15,20.5 L13,20.5 L13,12.499932 L15.118,12.499932 Z M9.5,14.5 L7.5,14.5 L7.5,16.5 L9.5,16.5 L9.5,14.5 Z M19.585,4 L6,4 L6,9 L24.585,9 L19.585,4 Z" id="&#24418;&#29366;" fill-rule="nonzero" />
    </g>
</svg>