<svg xmlns="http://www.w3.org/2000/svg" viewBox="0 0 32 32"><path fill="currentColor" d="M16 2c7.732 0 14 6.268 14 14s-6.268 14-14 14S2 23.732 2 16 8.268 2 16 2m0 22a7.965 7.965 0 0 1-4.905-1.68l-2.844 2.843A11.952 11.952 0 0 0 16 28c2.954 0 5.658-1.067 7.749-2.837l-2.844-2.842A7.965 7.965 0 0 1 16 24m9.163-15.749-2.842 2.844A7.965 7.965 0 0 1 24 16c0 1.848-.627 3.55-1.68 4.905l2.843 2.844A11.952 11.952 0 0 0 28 16c0-2.954-1.067-5.658-2.837-7.749M4 16c0 2.954 1.067 5.658 2.837 7.749l2.842-2.844A7.965 7.965 0 0 1 8 16c0-1.848.627-3.55 1.68-4.905L6.836 8.251A11.952 11.952 0 0 0 4 16m12-6a6 6 0 1 0 0 12 6 6 0 0 0 0-12m0-6a11.952 11.952 0 0 0-7.749 2.837l2.844 2.842A7.965 7.965 0 0 1 16 8c1.848 0 3.55.627 4.905 1.68l2.844-2.843A11.952 11.952 0 0 0 16 4"/></svg>