<svg xmlns="http://www.w3.org/2000/svg" viewBox="0 0 32 32"><path fill="currentColor" d="M24 5a6 6 0 1 1-1.96 11.672 9.043 9.043 0 0 0 1.465-1.703 4 4 0 0 0 .994-7.939 8.966 8.966 0 0 0-1.001-2.01c.164-.013.332-.02.502-.02M8 5c.17 0 .338.007.504.02A8.877 8.877 0 0 0 7.5 7.033a4 4 0 0 0 .995 7.937c.415.628.908 1.2 1.464 1.703A6 6 0 1 1 8 5m8-2a7 7 0 1 1 0 14 7 7 0 0 1 0-14m0 2a5 5 0 1 0 0 10 5 5 0 0 0 0-10m4 14a5 5 0 0 1 5 5v4a1 1 0 0 1-1 1H8a1 1 0 0 1-1-1v-4a5 5 0 0 1 5-5zm0 2h-8a3 3 0 0 0-3 3v3h14v-3a3 3 0 0 0-2.824-2.995zM7.102 19a7.018 7.018 0 0 0-1.428 2H5a2 2 0 0 0-2 2v2h2v2H2a1 1 0 0 1-1-1v-3a4 4 0 0 1 4-4zM27 19a4 4 0 0 1 4 4v3a1 1 0 0 1-1 1h-3v-2h2v-2a2 2 0 0 0-1.85-1.995L27 21h-.674a7.018 7.018 0 0 0-1.428-2z"/></svg>