<svg xmlns="http://www.w3.org/2000/svg" width="32px" height="32px" viewBox="0 0 32 32" version="1.1">
    <title>linear-ele-office-tool-paperclip</title>
    <g id="linear-ele-office-tool-paperclip" stroke-width="1" fill-rule="evenodd">
        <path d="M27.3137085,7.51471863 C29.6568542,9.85786438 29.6568542,13.6568542 27.3137085,16 L17.4142136,25.8994949 C14.2900192,29.0236893 9.2246994,29.0236893 6.10050506,25.8994949 C2.97631073,22.7753006 2.97631073,17.7099808 6.10050506,14.5857864 L18.1213203,2.56497116 C18.5118446,2.17444687 19.1450096,2.17444687 19.5355339,2.56497116 C19.9260582,2.95549545 19.9260582,3.58866043 19.5355339,3.97918472 L7.51471863,16 C5.17157288,18.3431458 5.17157288,22.1421356 7.51471863,24.4852814 C9.85786438,26.8284271 13.6568542,26.8284271 16,24.4852814 L25.8994949,14.5857864 C27.4615921,13.0236893 27.4615921,10.4910294 25.8994949,8.92893219 C24.3373978,7.36683502 21.8047379,7.36683502 20.2426407,8.92893219 L11.0502525,18.1213203 C10.6597282,18.5118446 10.6597282,19.1450096 11.0502525,19.5355339 C11.4407768,19.9260582 12.0739418,19.9260582 12.4644661,19.5355339 L20.9497475,11.0502525 C21.3402718,10.6597282 21.9734367,10.6597282 22.363961,11.0502525 C22.7544853,11.4407768 22.7544853,12.0739418 22.363961,12.4644661 L13.8786797,20.9497475 C12.7071068,22.1213203 10.8076118,22.1213203 9.63603897,20.9497475 C8.46446609,19.7781746 8.46446609,17.8786797 9.63603897,16.7071068 L18.8284271,7.51471863 C21.1715729,5.17157288 24.9705627,5.17157288 27.3137085,7.51471863 Z" id="&#36335;&#24452;" fill-rule="nonzero" />
    </g>
</svg>