<svg xmlns="http://www.w3.org/2000/svg" width="32px" height="32px" viewBox="0 0 32 32" version="1.1">
    <title>linear-ele-symbol-warning-circle</title>
    <g id="linear-ele-symbol-warning-circle" stroke-width="1" fill-rule="evenodd">
        <path d="M16,2 C23.7319865,2 30,8.2680135 30,16 C30,23.7319865 23.7319865,30 16,30 C8.2680135,30 2,23.7319865 2,16 C2,8.2680135 8.2680135,2 16,2 Z M16,4 C9.372583,4 4,9.372583 4,16 C4,22.627417 9.372583,28 16,28 C22.627417,28 28,22.627417 28,16 C28,9.372583 22.627417,4 16,4 Z M16,21 C16.8284271,21 17.5,21.6715729 17.5,22.5 C17.5,23.3284271 16.8284271,24 16,24 C15.1715729,24 14.5,23.3284271 14.5,22.5 C14.5,21.6715729 15.1715729,21 16,21 Z M16,8 C16.5522847,8 17,8.44771525 17,9 L17,18 C17,18.5522847 16.5522847,19 16,19 C15.4477153,19 15,18.5522847 15,18 L15,9 C15,8.44771525 15.4477153,8 16,8 Z" id="&#24418;&#29366;" fill-rule="nonzero" />
    </g>
</svg>