<svg xmlns="http://www.w3.org/2000/svg" width="32px" height="32px" viewBox="0 0 32 32" version="1.1">
    <title>linear-ele-time-clock</title>
    <g id="linear-ele-time-clock" stroke-width="1" fill-rule="evenodd">
        <path d="M16,2 C23.7319865,2 30,8.2680135 30,16 C30,23.7319865 23.7319865,30 16,30 C8.2680135,30 2,23.7319865 2,16 C2,8.2680135 8.2680135,2 16,2 Z M16,4 C9.372583,4 4,9.372583 4,16 C4,22.627417 9.372583,28 16,28 C22.627417,28 28,22.627417 28,16 C28,9.372583 22.627417,4 16,4 Z M15,8 C15.5522847,8 16,8.44771525 16,9 L16,16 L23,16 C23.5128358,16 23.9355072,16.3860402 23.9932723,16.8833789 L24,17 C24,17.5522847 23.5522847,18 23,18 L15,18 C14.4477153,18 14,17.5522847 14,17 L14,9 C14,8.44771525 14.4477153,8 15,8 Z" id="&#24418;&#29366;" fill-rule="nonzero" />
    </g>
</svg>