<svg xmlns="http://www.w3.org/2000/svg" width="32px" height="32px" viewBox="0 0 32 32" version="1.1">
    <title>linear-ele-people-user</title>
    <g id="linear-ele-people-user" stroke-width="1" fill-rule="evenodd">
        <path d="M16,2 C20.418278,2 24,5.581722 24,10 C24,14.418278 20.418278,18 16,18 C11.581722,18 8,14.418278 8,10 C8,5.581722 11.581722,2 16,2 Z M16,4 C12.6862915,4 10,6.6862915 10,10 C10,13.3137085 12.6862915,16 16,16 C19.3137085,16 22,13.3137085 22,10 C22,6.6862915 19.3137085,4 16,4 Z M23,20 C25.7614237,20 28,22.2385763 28,25 L28,28 C28,28.5522847 27.5522847,29 27,29 C26.4477153,29 26,28.5522847 26,28 L26,25 C26,23.3431458 24.6568542,22 23,22 L9,22 C7.34314575,22 6,23.3431458 6,25 L6,28 C6,28.5522847 5.55228475,29 5,29 C4.44771525,29 4,28.5522847 4,28 L4,25 C4,22.2385763 6.23857625,20 9,20 L23,20 Z" id="&#24418;&#29366;" fill-rule="nonzero" />
    </g>
</svg>