<svg xmlns="http://www.w3.org/2000/svg" width="32px" height="32px" viewBox="0 0 32 32" version="1.1">
    <title>linear-new-textedit-office-quote</title>
    <g id="linear-new-textedit-office-quote" stroke-width="1" fill-rule="evenodd">
        <path d="M6,16 C6,10.2339389 8.61471028,6.49863851 13.7252789,5.03847605 C14.2563139,4.88675176 14.8097997,5.19424386 14.9615239,5.72527887 C15.1132482,6.25631388 14.8057561,6.80979966 14.2747211,6.96152395 C10.0519564,8.16802816 8,11.0993944 8,16 L13,16 C13.5522847,16 14,16.4477153 14,17 L14,26 C14,26.5522847 13.5522847,27 13,27 L7,27 C6.44771525,27 6,26.5522847 6,26 L6,16 Z M18,16 C18,10.2339389 20.6147103,6.49863851 25.7252789,5.03847605 C26.2563139,4.88675176 26.8097997,5.19424386 26.9615239,5.72527887 C27.1132482,6.25631388 26.8057561,6.80979966 26.2747211,6.96152395 C22.0519564,8.16802816 20,11.0993944 20,16 L25,16 C25.5522847,16 26,16.4477153 26,17 L26,26 C26,26.5522847 25.5522847,27 25,27 L19,27 C18.4477153,27 18,26.5522847 18,26 L18,16 Z" id="&#24418;&#29366;" />
    </g>
</svg>