<svg xmlns="http://www.w3.org/2000/svg" width="32px" height="32px" viewBox="0 0 32 32" version="1.1">
    <title>linear-ele-symbol-plus</title>
    <g id="linear-ele-symbol-plus" stroke-width="1" fill-rule="evenodd">
        <path d="M16,3 C16.5522847,3 17,3.44771525 17,4 L17,15 L28,15 C28.5522847,15 29,15.4477153 29,16 C29,16.5522847 28.5522847,17 28,17 L17,17 L17,28 C17,28.5522847 16.5522847,29 16,29 C15.4477153,29 15,28.5522847 15,28 L15,17 L4,17 C3.44771525,17 3,16.5522847 3,16 C3,15.4477153 3.44771525,15 4,15 L15,15 L15,4 C15,3.44771525 15.4477153,3 16,3 Z" id="&#36335;&#24452;" fill-rule="nonzero" />
    </g>
</svg>