<svg xmlns="http://www.w3.org/2000/svg" viewBox="0 0 32 32"><path fill="currentColor" d="M7 3a1 1 0 1 1 0 2H5v9.5a6.5 6.5 0 0 0 6.267 6.496L11.5 21a6.5 6.5 0 0 0 6.5-6.5V5h-2a1 1 0 0 1-.993-.883L15 4a1 1 0 0 1 1-1h3a1 1 0 0 1 1 1v10.5a8.5 8.5 0 0 1-7.918 8.48A5.998 5.998 0 0 0 18 28h.5a6.5 6.5 0 0 0 6.5-6.5v-5.626A4.002 4.002 0 0 1 26 8a4 4 0 0 1 1 7.874V21.5a8.5 8.5 0 0 1-8.5 8.5H18a8.001 8.001 0 0 1-7.953-7.124A8.502 8.502 0 0 1 3 14.5V4a1 1 0 0 1 1-1zm19 7a2 2 0 1 0 0 4 2 2 0 0 0 0-4"/></svg>