<svg xmlns="http://www.w3.org/2000/svg" width="32px" height="32px" viewBox="0 0 32 32" version="1.1">
    <title>linear-new-people-outside-visit</title>
    <g id="linear-new-people-outside-visit" stroke-width="1" fill-rule="evenodd">
        <path d="M16,2 C20.1421356,2 23.5,5.35786438 23.5,9.5 C23.5,13.6421356 20.1421356,17 16,17 C11.8578644,17 8.5,13.6421356 8.5,9.5 C8.5,5.35786438 11.8578644,2 16,2 Z M16,4 C12.9624339,4 10.5,6.46243388 10.5,9.5 C10.5,12.5375661 12.9624339,15 16,15 C19.0375661,15 21.5,12.5375661 21.5,9.5 C21.5,6.46243388 19.0375661,4 16,4 Z M17.7071068,23.2928932 C18.0976311,23.6834175 18.0976311,24.3165825 17.7071068,24.7071068 L16.413,26 L27.9999999,26 L27.9999999,28 L16.415,28 L17.7071067,29.2928933 C18.0697364,29.655523 18.0956385,30.2273684 17.7848131,30.619886 L17.7071067,30.7071068 C17.3165824,31.0976311 16.6834174,31.0976311 16.2928932,30.7071068 L13.2928932,27.7071068 C12.9023689,27.3165826 12.9023689,26.6834176 13.2928932,26.2928933 L16.2928932,23.2928932 C16.6834175,22.9023689 17.3165825,22.9023689 17.7071068,23.2928932 Z M23.0326511,19 C25.6254767,19 27.7573505,20.9735694 28.0080075,23.5004432 L25.9912213,23.5002947 C25.7627739,22.1377756 24.6159154,21.0866157 23.2089239,21.0050927 L23.0326511,21 L9,21 C7.40231912,21 6.09633912,22.24892 6.00509269,23.8237272 L6,24 L6,28.2112085 C6,28.7634932 5.55228475,29.2112085 5,29.2112085 C4.48716416,29.2112085 4.06449284,28.8251683 4.00672773,28.3278296 L4,28.2112085 L4,24 C4,21.3112453 6.12230671,19.1181819 8.78311038,19.0046195 L9,19 L23.0326511,19 Z" id="&#24418;&#29366;" fill-rule="nonzero" />
    </g>
</svg>