<svg xmlns="http://www.w3.org/2000/svg" width="32px" height="32px" viewBox="0 0 32 32" version="1.1">
    <title>linear-ele-other-lock</title>
    <g id="linear-ele-other-lock" stroke-width="1" fill-rule="evenodd">
        <path d="M16,2 C20.418278,2 24,5.581722 24,10 L24,12 L27,12 C27.5522847,12 28,12.4477153 28,13 L28,29 C28,29.5522847 27.5522847,30 27,30 L5,30 C4.44771525,30 4,29.5522847 4,29 L4,13 C4,12.4477153 4.44771525,12 5,12 L8,12 L8,10 C8,5.581722 11.581722,2 16,2 Z M26,14 L6,14 L6,28 L26,28 L26,14 Z M16,17 C16.5522847,17 17,17.4477153 17,18 L17,24 C17,24.5522847 16.5522847,25 16,25 C15.4477153,25 15,24.5522847 15,24 L15,18 C15,17.4477153 15.4477153,17 16,17 Z M16,4 C12.6862915,4 10,6.6862915 10,10 L10,12 L22,12 L22,10 C22,6.6862915 19.3137085,4 16,4 Z" id="&#24418;&#29366;" fill-rule="nonzero" />
    </g>
</svg>