<svg xmlns="http://www.w3.org/2000/svg" viewBox="0 0 32 32"><path fill="currentColor" d="M21 5a1 1 0 0 1 1 1v3h5a1 1 0 0 1 .984.821l2 11A1 1 0 0 1 29 22h-3.027a4.5 4.5 0 1 1-8.945 0h-4.055a4.5 4.5 0 1 1-8.945 0H3a1 1 0 0 1-1-1V6a1 1 0 0 1 1-1zM8.5 20a2.5 2.5 0 1 0 0 5 2.5 2.5 0 0 0 0-5m13 0a2.5 2.5 0 1 0 0 5 2.5 2.5 0 0 0 0-5m5.574-4H22v2.028A4.499 4.499 0 0 1 25.244 20h2.559zM20 7H4v13h.757A4.496 4.496 0 0 1 8.5 18c1.56 0 2.935.794 3.743 2h5.514A4.513 4.513 0 0 1 20 18.256zm6.165 4H22v3h4.711z"/></svg>