<svg xmlns="http://www.w3.org/2000/svg" width="32px" height="32px" viewBox="0 0 32 32" version="1.1">
    <title>linear-ele-nature-weather-sun-sunset</title>
    <g id="linear-ele-nature-weather-sun-sunset" stroke-width="1" fill-rule="evenodd">
        <path d="M30,23 C30.5522847,23 31,23.4477153 31,24 C31,24.5522847 30.5522847,25 30,25 L2,25 C1.44771525,25 1,24.5522847 1,24 C1,23.4477153 1.44771525,23 2,23 L30,23 Z M23,27 C23.5522847,27 24,27.4477153 24,28 C24,28.5522847 23.5522847,29 23,29 L9,29 C8.44771525,29 8,28.5522847 8,28 C8,27.4477153 8.44771525,27 9,27 L23,27 Z M16,3 C23.7319865,3 30,9.2680135 30,17 C30,18.3902178 29.7973655,19.7331077 29.4200207,21.0009157 L27.3168535,21.0009157 C27.7592657,19.7495413 28,18.4028839 28,17 C28,10.372583 22.627417,5 16,5 C9.372583,5 4,10.372583 4,17 C4,18.4028839 4.24073431,19.7495413 4.68314654,21.0009157 L2.57997927,21.0009157 C2.20263451,19.7331077 2,18.3902178 2,17 C2,9.2680135 8.2680135,3 16,3 Z" id="&#24418;&#29366;" fill-rule="nonzero" />
    </g>
</svg>