<svg xmlns="http://www.w3.org/2000/svg" width="32px" height="32px" viewBox="0 0 32 32" version="1.1">
    <title>linear-ele-symbol-check-circle</title>
    <g id="linear-ele-symbol-check-circle" stroke-width="1" fill-rule="evenodd">
        <path d="M16,2 C23.7319865,2 30,8.2680135 30,16 C30,23.7319865 23.7319865,30 16,30 C8.2680135,30 2,23.7319865 2,16 C2,8.2680135 8.2680135,2 16,2 Z M16,4 C9.372583,4 4,9.372583 4,16 C4,22.627417 9.372583,28 16,28 C22.627417,28 28,22.627417 28,16 C28,9.372583 22.627417,4 16,4 Z M22.7071068,11.2928932 C23.0976311,11.6834175 23.0976311,12.3165825 22.7071068,12.7071068 L14.7071068,20.7071068 C14.3165825,21.0976311 13.6834175,21.0976311 13.2928932,20.7071068 L9.29289322,16.7071068 C8.90236893,16.3165825 8.90236893,15.6834175 9.29289322,15.2928932 C9.68341751,14.9023689 10.3165825,14.9023689 10.7071068,15.2928932 L14,18.585 L21.2928932,11.2928932 C21.6834175,10.9023689 22.3165825,10.9023689 22.7071068,11.2928932 Z" id="&#24418;&#29366;" fill-rule="nonzero" />
    </g>
</svg>