<svg xmlns="http://www.w3.org/2000/svg" viewBox="0 0 32 32"><path fill="currentColor" d="M28.02 3.98c2.524 2.522 2.003 7.197-.737 12.02 2.74 4.823 3.26 9.498.738 12.02-2.523 2.524-7.198 2.003-12.022-.738-4.822 2.74-9.497 3.262-12.02.739-2.523-2.523-2.002-7.198.738-12.02-2.74-4.824-3.26-9.499-.738-12.022 2.523-2.523 7.198-2.002 12.022.739 4.822-2.74 9.497-3.262 12.02-.739m-1.964 13.972-.18.26a31.885 31.885 0 0 1-3.512 4.152 31.718 31.718 0 0 1-4.413 3.693c3.709 1.87 7.04 2.165 8.656.55 1.615-1.616 1.32-4.947-.55-8.655m-20.113 0-.018.038c-1.854 3.693-2.141 7.007-.532 8.617 1.616 1.615 4.947 1.32 8.655-.55a31.722 31.722 0 0 1-4.412-3.693 31.718 31.718 0 0 1-3.693-4.413M16 7.054l-.028.017a29.092 29.092 0 0 0-4.922 3.978C9.447 12.653 8.106 14.34 7.055 16c1.05 1.66 2.392 3.347 3.995 4.95 1.603 1.603 3.29 2.944 4.95 3.995 1.66-1.05 3.347-2.392 4.95-3.995 1.603-1.603 2.944-3.29 3.995-4.95-1.05-1.66-2.392-3.347-3.995-4.95-1.603-1.603-3.29-2.944-4.95-3.995m0 6.445a2.5 2.5 0 1 1 0 5 2.5 2.5 0 0 1 0-5M5.393 5.393c-1.615 1.616-1.32 4.948.551 8.656a31.627 31.627 0 0 1 3.692-4.413 31.718 31.718 0 0 1 4.413-3.693c-3.708-1.87-7.04-2.165-8.656-.55m12.903.38-.345.17a31.718 31.718 0 0 1 4.413 3.693 31.718 31.718 0 0 1 3.692 4.412c1.871-3.708 2.166-7.04.55-8.655-1.564-1.565-4.74-1.337-8.31.38"/></svg>