<svg xmlns="http://www.w3.org/2000/svg" width="32px" height="32px" viewBox="0 0 32 32" version="1.1">
    <title>linear-new-arrow-chevron-left-circle</title>
    <g id="linear-new-arrow-chevron-left-circle" stroke-width="1" fill-rule="evenodd">
        <path d="M16,2 C23.7319865,2 30,8.2680135 30,16 C30,23.7319865 23.7319865,30 16,30 C8.2680135,30 2,23.7319865 2,16 C2,8.2680135 8.2680135,2 16,2 Z M16,4 C9.372583,4 4,9.372583 4,16 C4,22.627417 9.372583,28 16,28 C22.627417,28 28,22.627417 28,16 C28,9.372583 22.627417,4 16,4 Z M18.7071068,10.2928932 C19.0976311,10.6834175 19.0976311,11.3165825 18.7071068,11.7071068 L14.415,16 L18.7071068,20.2928932 C19.0675907,20.6533772 19.0953203,21.2206082 18.7902954,21.6128994 L18.7071068,21.7071068 C18.3165825,22.0976311 17.6834175,22.0976311 17.2928932,21.7071068 L12.2928932,16.7071068 C11.9023689,16.3165825 11.9023689,15.6834175 12.2928932,15.2928932 L17.2928932,10.2928932 C17.6834175,9.90236893 18.3165825,9.90236893 18.7071068,10.2928932 Z" id="&#24418;&#29366;" fill-rule="nonzero" />
    </g>
</svg>