<svg xmlns="http://www.w3.org/2000/svg" viewBox="0 0 32 32"><path fill="currentColor" d="M15.516 17.999A8.968 8.968 0 0 0 14.512 20H9a3 3 0 0 0-3 3v5a1 1 0 0 1-2 0v-5a5 5 0 0 1 5-5zM23 16a7 7 0 0 1 7 7h-2a5 5 0 0 0-8.102-3.922L21.5 21h-5.21a6.998 6.998 0 0 1 2.214-3.365l.091-.077c.07-.055.135-.106.2-.155l.243-.175.251-.165.236-.141.218-.12.3-.148.279-.123.308-.12.33-.109.273-.077.242-.058.388-.076.371-.05.237-.021c.093-.007.187-.012.282-.016zM16 2a7 7 0 1 1 0 14 7 7 0 0 1 0-14m0 2a5 5 0 1 0 0 10 5 5 0 0 0 0-10m8.478 25.844-.156.03-.302.052-.43.049-.275.018L23 30a7 7 0 0 1-7-7h2a5 5 0 0 0 8.101 3.922L24.5 25l5.21.001a6.992 6.992 0 0 1-1.6 2.783l-.246.249-.244.226-.198.167-.227.178-.088.065a7.012 7.012 0 0 1-.452.302l-.287.166-.206.11c-.13.066-.263.128-.398.186l-.283.115-.183.066-.273.089-.232.065c-.104.028-.21.053-.315.076"/></svg>