<svg xmlns="http://www.w3.org/2000/svg" width="32px" height="32px" viewBox="0 0 32 32" version="1.1">
    <title>linear-ele-drink-ice-drink</title>
    <g id="linear-ele-drink-ice-drink" stroke-width="1" fill-rule="evenodd">
        <path d="M21,1 C21.5522847,1 22,1.44771525 22,2 C22,2.55228475 21.5522847,3 21,3 L17,3 C16.4477153,3 16,3.44771525 16,4 L16,5 C20.8379226,5 24.8734344,8.43552894 25.7999676,13.0000191 L28,13 C28.5522847,13 29,13.4477153 29,14 C29,14.5522847 28.5522847,15 28,15 L25.883,15 L23.9922779,30.1240347 C23.9297243,30.6244636 23.5043233,31 23,31 L9,31 C8.49567673,31 8.07027573,30.6244636 8.00772212,30.1240347 L6.116,15 L4,15 C3.44771525,15 3,14.5522847 3,14 C3,13.4477153 3.44771525,13 4,13 L6.20003235,13.0000191 C6.99539245,9.0817429 10.0817429,5.99539245 14.0000191,5.20003235 L14,4 C14,2.34314575 15.3431458,1 17,1 L21,1 Z M8.883,21 L9.883,29 L22.116,29 L23.116,21 L8.883,21 Z M14,15 L8.133,15 L8.633,19 L14,19 L14,15 Z M23.866,15 L16,15 L16,19 L23.366,19 L23.866,15 Z M16,7 L16,13 L23.7481308,13.000644 C22.8602692,9.54986283 19.7279108,7 16,7 Z M14.000644,7.25186923 C11.1889088,7.97530881 8.97530881,10.1889088 8.25186923,13.000644 L14,13 L14.000644,7.25186923 Z" id="&#24418;&#29366;" fill-rule="nonzero" />
    </g>
</svg>