<svg xmlns="http://www.w3.org/2000/svg" width="32px" height="32px" viewBox="0 0 32 32" version="1.1">
    <title>linear-ele-drink-coffee-cup</title>
    <g id="linear-ele-drink-coffee-cup" stroke-width="1" fill-rule="evenodd">
        <path d="M24,4 C24.5522847,4 25,4.44771525 25,5 L25,6 L25.2249383,6.00413847 C28.4344251,6.12242824 31,8.76160306 31,12 C31,15.3137085 28.3137085,18 25,18 L24.7494184,17.9943445 C23.8633013,21.4476682 20.7297152,24 17,24 L11,24 C6.581722,24 3,20.418278 3,16 L3,5 C3,4.44771525 3.44771525,4 4,4 L24,4 Z M23,6 L5,6 L5,16 C5,19.2383969 7.56557489,21.8775718 10.7750617,21.9958615 L11,22 L17,22 C20.3137085,22 23,19.3137085 23,16 L23,6 Z M25.0010041,8.00000012 L25,16.0000001 C27.209139,16.0000001 29,14.209139 29,12.0000001 C29,9.79119572 27.2096816,8.00054269 25.0010041,8.00000012 Z M24,26 C24.5522847,26 25,26.4477153 25,27 C25,27.5522847 24.5522847,28 24,28 L4,28 C3.44771525,28 3,27.5522847 3,27 C3,26.4477153 3.44771525,26 4,26 L24,26 Z" id="&#24418;&#29366;" fill-rule="nonzero" />
    </g>
</svg>