<svg xmlns="http://www.w3.org/2000/svg" width="32px" height="32px" viewBox="0 0 32 32" version="1.1">
    <title>linear-ele-arrow-chevron-left-double</title>
    <g id="linear-ele-arrow-chevron-left-double" stroke-width="1" fill-rule="evenodd">
        <path d="M16.7071068,5.29289322 C17.0976311,5.68341751 17.0976311,6.31658249 16.7071068,6.70710678 L7.415,16 L16.7071068,25.2928932 C17.0675907,25.6533772 17.0953203,26.2206082 16.7902954,26.6128994 L16.7071068,26.7071068 C16.3165825,27.0976311 15.6834175,27.0976311 15.2928932,26.7071068 L5.29289322,16.7071068 C4.90236893,16.3165825 4.90236893,15.6834175 5.29289322,15.2928932 L15.2928932,5.29289322 C15.6834175,4.90236893 16.3165825,4.90236893 16.7071068,5.29289322 Z M24.7071068,5.29289322 C25.0976311,5.68341751 25.0976311,6.31658249 24.7071068,6.70710678 L15.415,16 L24.7071068,25.2928932 C25.0675907,25.6533772 25.0953203,26.2206082 24.7902954,26.6128994 L24.7071068,26.7071068 C24.3165825,27.0976311 23.6834175,27.0976311 23.2928932,26.7071068 L13.2928932,16.7071068 C12.9023689,16.3165825 12.9023689,15.6834175 13.2928932,15.2928932 L23.2928932,5.29289322 C23.6834175,4.90236893 24.3165825,4.90236893 24.7071068,5.29289322 Z" id="&#24418;&#29366;" fill-rule="nonzero" />
    </g>
</svg>