<svg xmlns="http://www.w3.org/2000/svg" viewBox="0 0 32 32"><path fill="currentColor" d="m16.06 2.297 6.364 6.363 1.415-1.413a1 1 0 1 1 1.414 1.414l-1.415 1.414 6.365 6.364a1 1 0 0 1-1.414 1.415l-1.415-1.415-12.728 12.728a1 1 0 0 1-1.414 0L8.99 24.924 6.16 27.753a1 1 0 0 1-1.414-1.414l2.828-2.83-4.242-4.241a1 1 0 0 1 0-1.414L16.06 5.125l-1.414-1.414a1 1 0 1 1 1.415-1.414m1.415 4.243L5.455 18.56l8.484 8.486 12.02-12.02zm-7.071 11.314 4.242 4.242a1 1 0 1 1-1.414 1.414L8.99 19.268a1 1 0 0 1 1.414-1.414"/></svg>