<svg xmlns="http://www.w3.org/2000/svg" viewBox="0 0 32 32"><path fill="currentColor" d="M16 1c6.627 0 12 5.373 12 12 0 3.347-1.379 6.477-3.766 8.73l-.4.381C22.394 23.507 22 24.135 22 25a1 1 0 0 1-1 1H11a1 1 0 0 1-1-1c0-1.028-.25-1.4-2.232-3.269A11.967 11.967 0 0 1 4 13C4 6.373 9.373 1 16 1m0 2C10.477 3 6 7.477 6 13a9.967 9.967 0 0 0 3.14 7.276l.443.422c1.468 1.413 2.088 2.194 2.31 3.173l.026.129h8.184l.01-.043c.257-1.086.993-2.005 2.514-3.46l.235-.222A9.967 9.967 0 0 0 26 13c0-5.523-4.477-10-10-10m0 2a1 1 0 0 1 0 2 6 6 0 0 0-6 6 1 1 0 0 1-2 0 8 8 0 0 1 8-8m5 23a1 1 0 0 1 0 2H11a1 1 0 0 1 0-2z"/></svg>