<svg xmlns="http://www.w3.org/2000/svg" viewBox="0 0 32 32"><path fill="currentColor" d="M12 30a1 1 0 0 1 0-2h3v-8.036c-4.445-.325-7.298-2.85-8.401-6.821-.943-3.396-.464-7.648 1.007-10.59A1 1 0 0 1 8.5 2h15a1 1 0 0 1 .894.553c1.471 2.942 1.95 7.194 1.007 10.59-1.103 3.97-3.956 6.495-8.4 6.821L17 28h3a1 1 0 0 1 0 2zm11.622-17.999H8.378l.06.267.088.34C9.476 16.027 11.907 18 16 18s6.524-1.973 7.474-5.393c.055-.198.105-.4.148-.606M22.86 4H9.14l-.02.047c-.721 1.724-1.087 3.891-.993 5.954h15.746c.094-2.063-.272-4.23-.993-5.954z"/></svg>