<svg xmlns="http://www.w3.org/2000/svg" width="32px" height="32px" viewBox="0 0 32 32" version="1.1">
    <title>linear-new-medic-health-building-hospital</title>
    <g id="linear-new-medic-health-building-hospital" stroke-width="1" fill-rule="evenodd">
        <path d="M19,3 C19.5522847,3 20,3.44771525 20,4 L20,11 L27,11 C27.5522847,11 28,11.4477153 28,12 L28,27 L29,27 C29.5522847,27 30,27.4477153 30,28 C30,28.5522847 29.5522847,29 29,29 L3,29 C2.44771525,29 2,28.5522847 2,28 C2,27.4477153 2.44771525,27 3,27 L4,27 L4,4 C4,3.44771525 4.44771525,3 5,3 L19,3 Z M18,5 L6,5 L6,27 L18,27 L18,5 Z M26,13 L20,13 L20,27 L26,27 L26,13 Z M12,8 C12.5522847,8 13,8.44771525 13,9 L13,11 L15,11 C15.5522847,11 16,11.4477153 16,12 C16,12.5522847 15.5522847,13 15,13 L13,13 L13,15 C13,15.5522847 12.5522847,16 12,16 C11.4477153,16 11,15.5522847 11,15 L11,13 L9,13 C8.44771525,13 8,12.5522847 8,12 C8,11.4477153 8.44771525,11 9,11 L11,11 L11,9 C11,8.44771525 11.4477153,8 12,8 Z" id="&#24418;&#29366;" fill-rule="nonzero" />
    </g>
</svg>