<svg xmlns="http://www.w3.org/2000/svg" viewBox="0 0 32 32"><path fill="currentColor" d="M16 2a4 4 0 0 1 4 4v5.512a1 1 0 0 0 .713.958l7.149 2.145A3 3 0 0 1 30 17.488V27a3 3 0 0 1-3 3H11.03a3 3 0 0 1-2.442-1.256l-5.449-7.628A3.559 3.559 0 0 1 3.9 16.2a4.469 4.469 0 0 1 5.225-.1L12 18.092V6a4 4 0 0 1 3.8-3.995zm0 2a2 2 0 0 0-2 2v14a1 1 0 0 1-1.57.822l-4.444-3.077A2.469 2.469 0 0 0 5.1 17.8a1.559 1.559 0 0 0-.333 2.153l5.449 7.628a1 1 0 0 0 .813.419H27a1 1 0 0 0 1-1v-9.512a1 1 0 0 0-.713-.958l-7.149-2.145A3 3 0 0 1 18 11.512V6a2 2 0 0 0-2-2"/></svg>