<svg xmlns="http://www.w3.org/2000/svg" width="32px" height="32px" viewBox="0 0 32 32" version="1.1">
    <title>linear-new-symbol-arrow-turn-right-import-withdraw</title>
    <g id="linear-new-symbol-arrow-turn-right-import-withdraw" stroke-width="1" fill-rule="evenodd">
        <path d="M17,4 C17,3.13185769 18.0302995,2.67608421 18.6726728,3.26005993 L29.6726728,13.2600599 C30.095149,13.6441292 30.1108365,14.3033771 29.7071068,14.7071068 L18.7071068,25.7071068 C18.0771419,26.3370716 17,25.8909049 17,25 L17,20.023 L16.839224,20.0301552 C10.236628,20.3774973 5.45878311,23.7060691 3.55530298,29.0081558 L3.4486833,29.3162278 C3.08995292,30.3924189 1.5,30.1344051 1.5,29 C1.5,24.4699182 2.43985396,19.9384795 4.51021105,16.3728645 C7.06101024,11.9798214 11.1305655,9.3573133 16.791819,9.03393198 L17,9.024 L17,4 Z M19,6.26 L19,10 C19,10.5522847 18.5522847,11 18,11 C9.55179135,11 5.07222404,16.3734805 3.84929141,24.2277677 L3.837,24.306 L3.9063741,24.2143261 C6.86247467,20.3636613 11.6562542,18.1019828 17.593429,18.0033653 L18,18 C18.5522847,18 19,18.4477153 19,19 L19,22.584 L27.551,14.033 L19,6.26 Z" id="&#36335;&#24452;" fill-rule="nonzero" transform="translate(15.75, 16.4995) scale(-1, 1) translate(-15.75, -16.4995)" />
    </g>
</svg>