<svg xmlns="http://www.w3.org/2000/svg" viewBox="0 0 32 32"><path fill="currentColor" d="M27.707 4.293a1 1 0 0 1 0 1.414l-22 22a1 1 0 1 1-1.414-1.414l2.347-2.347c-2.404-1.741-4.572-4.223-6.497-7.432a1 1 0 0 1 0-1.028C4.31 8.538 9.618 5 16 5c2.744 0 5.29.654 7.632 1.952l2.66-2.66a1 1 0 0 1 1.415 0m-.785 5.027c1.79 1.61 3.437 3.667 4.935 6.166a1 1 0 0 1 0 1.028C27.69 23.462 22.382 27 16 27c-2.01 0-3.913-.35-5.708-1.049l1.57-1.57c1.214.38 2.48.585 3.795.615L16 25c5.389 0 9.926-2.879 13.669-8.749l.157-.251-.157-.251c-1.292-2.026-2.678-3.696-4.161-5.014zm-4.327 4.328a7 7 0 0 1-8.947 8.947l1.645-1.645a5 5 0 0 0 5.657-5.657zM16 7c-5.389 0-9.926 2.879-13.669 8.749L2.173 16l.158.251c1.74 2.73 3.653 4.813 5.743 6.26l2.319-2.32a7 7 0 0 1 9.798-9.798l1.96-1.96a13.489 13.489 0 0 0-5.808-1.43zm0 4a5 5 0 0 0-4.172 7.757l6.93-6.929A4.977 4.977 0 0 0 16 11"/></svg>