<svg xmlns="http://www.w3.org/2000/svg" viewBox="0 0 32 32"><path fill="currentColor" d="M16 2a1 1 0 0 1 1 1v6a1 1 0 0 1-2 0V3a1 1 0 0 1 1-1m8.543 4.043a1 1 0 0 1 1.414 1.414l-4.25 4.25a1 1 0 0 1-1.414-1.414zM29 15a1 1 0 0 1 0 2h-6a1 1 0 0 1 0-2zm-8.707 5.293a1 1 0 0 1 1.414 0l4.25 4.25a1 1 0 0 1-1.414 1.414l-4.25-4.25a1 1 0 0 1 0-1.414M16 22a1 1 0 0 1 1 1v6a1 1 0 0 1-2 0v-6a1 1 0 0 1 1-1m-5.707-1.707a1 1 0 0 1 1.414 1.414l-4.25 4.25a1 1 0 1 1-1.414-1.414zM9 15a1 1 0 0 1 0 2H3a1 1 0 0 1 0-2zM6.043 6.043a1 1 0 0 1 1.414 0l4.25 4.25a1 1 0 0 1-1.414 1.414l-4.25-4.25a1 1 0 0 1 0-1.414"/></svg>