<svg xmlns="http://www.w3.org/2000/svg" width="32px" height="32px" viewBox="0 0 32 32" version="1.1">
    <title>linear-new-office-tool-filled-seal-s-check</title>
    <g id="linear-new-office-tool-filled-seal-s-check" stroke-width="1" fill-rule="evenodd">
        <path d="M16,2 C19.8659932,2 23,5.13400675 23,9 C23,11.2562996 21.9228436,13.3257904 20.1638569,14.6277272 L20,14.744 L19.999,17 L24,17 C26.6887547,17 28.8818181,19.1223067 28.9953805,21.7831104 L29,22 L29,25 L3,25 L3,22 C3,19.2385763 5.23857625,17 8,17 L12,17 L12,14.744 L11.8371082,14.6284422 C10.1479501,13.3786377 9.08729663,11.4210877 9.00514701,9.26987328 L9,9 C9,5.13400675 12.1340068,2 16,2 Z M16,4 C13.2385763,4 11,6.23857625 11,9 C11,10.8062742 11.9649993,12.4433466 13.5007588,13.3317199 L14.0000454,13.6205366 L13.9999896,19 L8,19 C6.34314575,19 5,20.3431458 5,22 L5,23 L27,23 L27,22 C27,20.4023191 25.75108,19.0963391 24.1762728,19.0050927 L24,19 L17.9997468,19 L18.001109,13.6199974 L18.5000764,13.3312367 C20.0353708,12.4427365 21,10.8059308 21,9 C21,6.23857625 18.7614237,4 16,4 Z M3,27 L29,27 L29,28 C29,28.5522847 28.5522847,29 28,29 L4,29 C3.44771525,29 3,28.5522847 3,28 L3,27 Z" id="&#24418;&#29366;" fill-rule="nonzero" />
    </g>
</svg>