<svg xmlns="http://www.w3.org/2000/svg" width="32px" height="32px" viewBox="0 0 32 32" version="1.1">
    <title>linear-ele-other-view-eye-watch-see</title>
    <g id="linear-ele-other-view-eye-watch-see" stroke-width="1" fill-rule="evenodd">
        <path d="M16,5 C22.3821614,5 27.6888763,8.53780995 31.8574929,15.4855042 C32.0475024,15.8021866 32.0475024,16.1978134 31.8574929,16.5144958 C27.6888763,23.46219 22.3821614,27 16,27 C9.61783858,27 4.31112365,23.46219 0.142507074,16.5144958 C-0.0475023581,16.1978134 -0.0475023581,15.8021866 0.142507074,15.4855042 C4.31112365,8.53780995 9.61783858,5 16,5 Z M16,7 C10.611461,7 6.07354194,9.87865243 2.33095389,15.7488492 L2.173,16 L2.33095389,16.2511508 C5.99391241,21.9964498 10.4187181,24.8761499 15.6572054,24.9960895 L16,25 C21.388539,25 25.9264581,22.1213476 29.6690461,16.2511508 L29.826,16 L29.6690461,15.7488492 C26.0060876,10.0035502 21.5812819,7.1238501 16.3427946,7.00391053 L16,7 Z M16,9 C19.8659932,9 23,12.1340068 23,16 C23,19.8659932 19.8659932,23 16,23 C12.1340068,23 9,19.8659932 9,16 C9,12.1340068 12.1340068,9 16,9 Z M16,11 C13.2385763,11 11,13.2385763 11,16 C11,18.7614237 13.2385763,21 16,21 C18.7614237,21 21,18.7614237 21,16 C21,13.2385763 18.7614237,11 16,11 Z" id="&#24418;&#29366;" fill-rule="nonzero" />
    </g>
</svg>