<svg xmlns="http://www.w3.org/2000/svg" width="32px" height="32px" viewBox="0 0 32 32" version="1.1">
    <title>linear-ele-other-sport-football</title>
    <g id="linear-ele-other-sport-football" stroke-width="1" fill-rule="evenodd">
        <path d="M16,9.23705556e-14 C21.4920035,9.23705556e-14 27,7.71678432 27,16 C27,24.2832157 21.4920035,32 16,32 C10.5079965,32 5,24.2832157 5,16 C5,7.71678432 10.5079965,9.23705556e-14 16,9.23705556e-14 Z M21.1365617,26.9999887 L10.8634383,26.9999887 C12.4214641,28.8564447 14.2594245,30 16,30 C17.7405755,30 19.5785359,28.8564447 21.1365617,26.9999887 Z M22.5412865,6.99960529 L9.45871352,6.99960529 C7.98674792,9.49627041 7,12.6872095 7,16 C7,19.3127905 7.98674792,22.5037296 9.45871352,25.0003947 L22.5412865,25.0003947 C24.0132521,22.5037296 25,19.3127905 25,16 C25,12.6872095 24.0132521,9.49627041 22.5412865,6.99960529 Z M16,9 C16.5522847,9 17,9.44771525 17,10 L17,11 L19,11 C19.5522847,11 20,11.4477153 20,12 C20,12.5522847 19.5522847,13 19,13 L17,13 L17,15 L19,15 C19.5522847,15 20,15.4477153 20,16 C20,16.5522847 19.5522847,17 19,17 L17,17 L17,18.999 L19,19 C19.5522847,19 20,19.4477153 20,20 C20,20.5522847 19.5522847,21 19,21 L17,20.999 L17,22 C17,22.5522847 16.5522847,23 16,23 C15.4477153,23 15,22.5522847 15,22 L15,20.999 L13,21 C12.4477153,21 12,20.5522847 12,20 C12,19.4477153 12.4477153,19 13,19 L15,18.999 L15,17 L13,17 C12.4477153,17 12,16.5522847 12,16 C12,15.4477153 12.4477153,15 13,15 L15,15 L15,13 L13,13 C12.4477153,13 12,12.5522847 12,12 C12,11.4477153 12.4477153,11 13,11 L15,11 L15,10 C15,9.44771525 15.4477153,9 16,9 Z M16,2 C14.2594245,2 12.4214641,3.14355528 10.8634383,5.00001129 L21.1365617,5.00001129 C19.5785359,3.14355528 17.7405755,2 16,2 Z" id="&#24418;&#29366;" fill-rule="nonzero" transform="translate(16, 16) rotate(-315) translate(-16, -16)" />
    </g>
</svg>