<svg xmlns="http://www.w3.org/2000/svg" width="32px" height="32px" viewBox="0 0 32 32" version="1.1">
    <title>linear-new-symbol-arrow-turn-right-import-redo</title>
    <g id="linear-new-symbol-arrow-turn-right-import-redo" stroke-width="1" fill-rule="evenodd">
        <path d="M17.5,4 C17.5,3.13185769 18.5302995,2.67608421 19.1726728,3.26005993 L30.1726728,13.2600599 C30.595149,13.6441292 30.6108365,14.3033771 30.2071068,14.7071068 L19.2071068,25.7071068 C18.5771419,26.3370716 17.5,25.8909049 17.5,25 L17.5,20.023 L17.339224,20.0301552 C10.736628,20.3774973 5.95878311,23.7060691 4.05530298,29.0081558 L3.9486833,29.3162278 C3.58995292,30.3924189 2,30.1344051 2,29 C2,24.4699182 2.93985396,19.9384795 5.01021105,16.3728645 C7.56101024,11.9798214 11.6305655,9.3573133 17.291819,9.03393198 L17.5,9.024 L17.5,4 Z M19.5,6.26 L19.5,10 C19.5,10.5522847 19.0522847,11 18.5,11 C10.0517914,11 5.57222404,16.3734805 4.34929141,24.2277677 L4.337,24.306 L4.4063741,24.2143261 C7.36247467,20.3636613 12.1562542,18.1019828 18.093429,18.0033653 L18.5,18 C19.0522847,18 19.5,18.4477153 19.5,19 L19.5,22.584 L28.051,14.033 L19.5,6.26 Z" id="&#36335;&#24452;" fill-rule="nonzero" />
    </g>
</svg>