<svg xmlns="http://www.w3.org/2000/svg" viewBox="0 0 32 32"><path fill="currentColor" d="M11.793 17.793a1 1 0 0 1 1.414 1.414l-8.5 8.5a1 1 0 1 1-1.414-1.414zm-3-13a1 1 0 0 1 1.414 0l3 3a1 1 0 1 1-1.414 1.414l-3-3a1 1 0 0 1 0-1.414m16 0a1 1 0 0 1 1.414 1.414l-3 3a1 1 0 0 1-1.414-1.414zm-3 13a1 1 0 0 1 1.414 0l3 3a1 1 0 0 1-1.414 1.414l-3-3a1 1 0 0 1 0-1.414M10.5 12.5a1 1 0 0 1 0 2h-4a1 1 0 0 1 0-2zm18 0a1 1 0 0 1 0 2h-4a1 1 0 0 1 0-2zm-11 7a1 1 0 0 1 1 1v4a1 1 0 0 1-2 0v-4a1 1 0 0 1 1-1m0-18a1 1 0 0 1 1 1v4a1 1 0 0 1-2 0v-4a1 1 0 0 1 1-1"/></svg>