<svg xmlns="http://www.w3.org/2000/svg" width="32px" height="32px" viewBox="0 0 32 32" version="1.1">
    <title>linear-ele-tool-edit-crop</title>
    <g id="linear-ele-tool-edit-crop" stroke-width="1" fill-rule="evenodd">
        <path d="M7,2 C7.55228475,2 8,2.44771525 8,3 L8,6 L25,6 C25.5522847,6 26,6.44771525 26,7 L26,24 L29,24 C29.5128358,24 29.9355072,24.3860402 29.9932723,24.8833789 L30,25 C30,25.5522847 29.5522847,26 29,26 L26,26 L26,29 C26,29.5522847 25.5522847,30 25,30 C24.4477153,30 24,29.5522847 24,29 L24,26 L7,26 C6.44771525,26 6,25.5522847 6,25 L6,8 L3,8 C2.48716416,8 2.06449284,7.61395981 2.00672773,7.11662113 L2,7 C2,6.44771525 2.44771525,6 3,6 L6,6 L6,3 C6,2.44771525 6.44771525,2 7,2 Z M8,8 L8,24 L24,24 L24,8 L8,8 Z" id="&#24418;&#29366;" fill-rule="nonzero" />
    </g>
</svg>