<svg xmlns="http://www.w3.org/2000/svg" width="32px" height="32px" viewBox="0 0 32 32" version="1.1">
    <title>linear-ele-digital-open</title>
    <g id="linear-ele-digital-open" stroke-width="1" fill-rule="evenodd">
        <path d="M22,6 C27.5228475,6 32,10.4771525 32,16 C32,21.5228475 27.5228475,26 22,26 L10,26 C4.4771525,26 0,21.5228475 0,16 C0,10.4771525 4.4771525,6 10,6 L22,6 Z M22,8 L10,8 C5.581722,8 2,11.581722 2,16 C2,20.418278 5.581722,24 10,24 L22,24 C26.418278,24 30,20.418278 30,16 C30,11.581722 26.418278,8 22,8 Z M22,10.5 C25.0375661,10.5 27.5,12.9624339 27.5,16 C27.5,19.0375661 25.0375661,21.5 22,21.5 C18.9624339,21.5 16.5,19.0375661 16.5,16 C16.5,12.9624339 18.9624339,10.5 22,10.5 Z M22,12.5 C20.0670034,12.5 18.5,14.0670034 18.5,16 C18.5,17.9329966 20.0670034,19.5 22,19.5 C23.9329966,19.5 25.5,17.9329966 25.5,16 C25.5,14.0670034 23.9329966,12.5 22,12.5 Z" id="&#24418;&#29366;" fill-rule="nonzero" />
    </g>
</svg>