<svg xmlns="http://www.w3.org/2000/svg" width="32px" height="32px" viewBox="0 0 32 32" version="1.1">
    <title>linear-ele-other-key</title>
    <g id="linear-ele-other-key" stroke-width="1" fill-rule="evenodd">
        <path d="M21,2 C21.5522847,2 22,2.44771525 22,3 C22,3.55228475 21.5522847,4 21,4 L16,4 L16,8 L21,8 C21.5522847,8 22,8.44771525 22,9 C22,9.55228475 21.5522847,10 21,10 L16,10 L16,14 C20.418278,14 24,17.581722 24,22 C24,26.418278 20.418278,30 16,30 C11.581722,30 8,26.418278 8,22 C8,18.2720892 10.5498628,15.1397308 14.000644,14.2518692 L14,3 C14,2.44771525 14.4477153,2 15,2 L21,2 Z M16,16 C12.6862915,16 10,18.6862915 10,22 C10,25.3137085 12.6862915,28 16,28 C19.3137085,28 22,25.3137085 22,22 C22,18.6862915 19.3137085,16 16,16 Z" id="&#24418;&#29366;" fill-rule="nonzero" />
    </g>
</svg>