<svg xmlns="http://www.w3.org/2000/svg" width="32px" height="32px" viewBox="0 0 32 32" version="1.1">
    <title>linear-ele-food-dish-1-round</title>
    <g id="linear-ele-food-dish-1-round" stroke-width="1" fill-rule="evenodd">
        <path d="M29,26 C29.5522847,26 30,26.4477153 30,27 C30,27.5522847 29.5522847,28 29,28 L3,28 C2.44771525,28 2,27.5522847 2,27 C2,26.4477153 2.44771525,26 3,26 L29,26 Z M16,4 C18.209139,4 20,5.790861 20,8 L20.0007456,9.57997927 C25.7833403,11.3013162 30,16.6582313 30,23 C30,23.5522847 29.5522847,24 29,24 L3,24 C2.44771525,24 2,23.5522847 2,23 C2,16.6578647 6.21714721,11.3006968 12.0002573,9.57968077 L12,8 C12,5.790861 13.790861,4 16,4 Z M16,11 C9.78042405,11 4.66599302,15.7316879 4.06007801,21.7916926 L4.041,22 L27.958,22 L27.939922,21.7916926 C27.34394,15.8310322 22.3860506,11.1554943 16.3049748,11.0037999 L16,11 Z M16,6 C14.8954305,6 14,6.8954305 14,8 L14.0001595,9.1417549 C14.6533147,9.04833605 15.3210126,9 16,9 C16.6793345,9 17.347368,9.04838549 18.0008423,9.14189822 L18,8 C18,6.8954305 17.1045695,6 16,6 Z" id="&#24418;&#29366;" fill-rule="nonzero" />
    </g>
</svg>