<svg xmlns="http://www.w3.org/2000/svg" width="32px" height="32px" viewBox="0 0 32 32" version="1.1">
    <title>linear-new-medic-health-heart-slash-dislike</title>
    <g id="linear-new-medic-health-heart-slash-dislike" stroke-width="1" fill-rule="evenodd">
        <path d="M28.6529881,7.58952313 C28.8069245,7.83960715 28.9510047,8.09987076 29.0843059,8.37007576 C32.193238,14.6719651 28.1440009,22.7885974 16.5194153,29.8545219 C16.2003021,30.0484927 15.7996979,30.0484927 15.4805847,29.8545219 C13.471546,28.6333416 11.688776,27.3807776 10.1301209,26.1116218 L11.5462103,24.6952609 C12.7757928,25.6806863 14.1591557,26.6640731 15.7000952,27.6377598 L15.9992235,27.8257578 L16.2999048,27.6377598 C26.361985,21.2797466 29.7051985,14.5081329 27.3864608,9.45608403 L27.2906941,9.25492424 L27.1872241,9.05454588 L28.6529881,7.58952313 Z M25.8633785,4.72231376 L26.2928932,4.29289322 C26.6834175,3.90236893 27.3165825,3.90236893 27.7071068,4.29289322 C28.0976311,4.68341751 28.0976311,5.31658249 27.7071068,5.70710678 L5.70710678,27.7071068 C5.31658249,28.0976311 4.68341751,28.0976311 4.29289322,27.7071068 C3.90236893,27.3165825 3.90236893,26.6834175 4.29289322,26.2928932 L7.17226402,23.4132567 C2.09211964,18.166432 0.722109233,12.8165316 2.91569412,8.37007576 C5.45270423,3.22748769 11.8941685,1.68590965 15.8770567,5.38738349 L15.9992235,5.50475782 L16.1229433,5.38738349 C18.8939777,2.81213882 22.8550788,2.77477822 25.8633785,4.72231376 Z M4.70930588,9.25492424 C2.92854431,12.8645761 4.08451912,17.3831451 8.57351927,22.010804 L24.4091406,6.17680437 C21.9108532,4.77700723 18.7390403,5.10719884 16.7893522,7.61394061 C16.3889943,8.12868646 15.6110057,8.12868646 15.2106478,7.61394061 C12.3436507,3.9278015 6.83400253,4.94810672 4.70930588,9.25492424 Z" id="&#24418;&#29366;" fill-rule="nonzero" />
    </g>
</svg>