<svg xmlns="http://www.w3.org/2000/svg" viewBox="0 0 32 32"><path fill="currentColor" d="M23 18a1 1 0 0 1 1 1v7.585l2.293-2.292a1 1 0 0 1 1.32-.083l.094.083a1 1 0 0 1 0 1.414l-4 4-.06.056-.095.071-.098.057-.114.05-.074.023-.149.03L23 30l-.075-.003-.126-.017-.111-.03-.111-.044-.1-.054-.094-.065-.09-.08-4-4a1 1 0 0 1 1.414-1.414L22 26.585V19a1 1 0 0 1 1-1M16 2a6 6 0 0 1 6 6v1h4a1 1 0 0 1 .994.89l.679 6.11H25.66l-.556-5H22v3a1 1 0 0 1-2 0v-3h-8v3a1 1 0 0 1-2 0v-3H6.894L5.116 27H16v2H4a1 1 0 0 1-.994-1.11l2-18A1 1 0 0 1 6 9h4V8a6 6 0 0 1 6-6m0 2a4 4 0 0 0-4 4v1h8V8a4 4 0 0 0-4-4"/></svg>