<svg xmlns="http://www.w3.org/2000/svg" viewBox="0 0 32 32"><path fill="currentColor" d="M5 17a1 1 0 0 1 0-2h22a1 1 0 0 1 0 2h-4.54c1.852 1.132 2.91 2.23 3.468 3.629C28.1 26.056 23.26 30 16.5 30c-5.663 0-9.879-3.08-10.49-7.359a1 1 0 0 1 1.98-.282C8.45 25.574 11.769 28 16.5 28c5.559 0 9.076-2.866 7.572-6.629-.588-1.468-2.343-2.704-5.979-4.37zM15.5 2c5.277 0 8.892 2.672 9.49 6.859a1 1 0 1 1-1.98.282C22.563 6.011 19.84 4 15.5 4c-4.673 0-7.696 2.629-6.564 5.649.363.966 1.884 1.971 4.969 3.351l-4.378.001c-1.321-.84-2.091-1.657-2.463-2.65C5.332 5.732 9.624 2 15.5 2"/></svg>