<svg xmlns="http://www.w3.org/2000/svg" width="32px" height="32px" viewBox="0 0 32 32" version="1.1">
    <title>linear-ele-office-tool-collection-tag-a-class</title>
    <g id="linear-ele-office-tool-collection-tag-a-class" stroke-width="1" fill-rule="evenodd">
        <path d="M25,3 C25.5522847,3 26,3.44771525 26,4 L26,29 C26,29.8321482 25.0429174,30.3002418 24.3860594,29.7893522 L16,23.266 L7.61394061,29.7893522 C6.98693979,30.2770195 6.08638721,29.8726794 6.00581425,29.1111605 L6,29 L6,4 C6,3.44771525 6.44771525,3 7,3 L25,3 Z M24,5 L8,5 L8,26.955 L15.3860594,21.2106478 C15.7110588,20.9578704 16.1531436,20.9325927 16.5015601,21.1348146 L16.6139406,21.2106478 L24,26.955 L24,5 Z M16.9320047,8.63755374 L20.4320047,17.6375537 C20.6321782,18.1522857 20.3771782,18.7318311 19.8624463,18.9320047 C19.3477143,19.1321782 18.7681689,18.8771782 18.5679953,18.3624463 L18.037,17 L13.962,17 L13.4320047,18.3624463 C13.2461292,18.8404117 12.7331423,19.0944245 12.2486836,18.9680033 L12.1375537,18.9320047 C11.6228218,18.7318311 11.3678218,18.1522857 11.5679953,17.6375537 L15.0679953,8.63755374 C15.3985787,7.78748209 16.6014213,7.78748209 16.9320047,8.63755374 Z M16,11.76 L14.74,15 L17.26,15 L16,11.76 Z" id="&#24418;&#29366;" fill-rule="nonzero" />
    </g>
</svg>