<svg xmlns="http://www.w3.org/2000/svg" width="32px" height="32px" viewBox="0 0 32 32" version="1.1">
    <title>linear-ele-location-place</title>
    <g id="linear-ele-location-place" stroke-width="1" fill-rule="evenodd">
        <path d="M20.0006751,22.2887971 L20.00052,20.2567528 L20.6262817,20.3487427 C24.9475424,21.0398768 28,22.7163034 28,25 C28,28.0369814 22.6016989,30 16,30 C9.39830112,30 4,28.0369814 4,25 C4,22.6073835 7.35057249,20.8813453 12.0004852,20.2566177 L12.0003208,22.2886489 C8.45923105,22.8154755 6,23.9733164 6,25 C6,26.3812966 10.4514344,28 16,28 C21.5485656,28 26,26.3812966 26,25 C26,23.9734127 23.5412301,22.8156926 20.0006751,22.2887971 Z M16,2 C20.418278,2 24,5.581722 24,10 C24,14.0792885 20.9468043,17.445465 17.0009551,17.9379871 L17,25 C17,25.5522847 16.5522847,26 16,26 C15.4477153,26 15,25.5522847 15,25 L15.0000487,17.9381123 C11.0537136,17.4460359 8,14.0796344 8,10 C8,5.581722 11.581722,2 16,2 Z M16,4 C12.6862915,4 10,6.6862915 10,10 C10,13.3137085 12.6862915,16 16,16 C19.3137085,16 22,13.3137085 22,10 C22,6.6862915 19.3137085,4 16,4 Z" id="&#24418;&#29366;" fill-rule="nonzero" />
    </g>
</svg>