<svg xmlns="http://www.w3.org/2000/svg" width="32px" height="32px" viewBox="0 0 32 32" version="1.1">
    <title>linear-new-symbol-arrow-import-down-square</title>
    <g id="linear-new-symbol-arrow-import-down-square" stroke-width="1" fill-rule="evenodd">
        <path d="M10,3 L10,5 L5,5 L5,27 L27,27 L27,5 L22,5 L22,3 L28,3 C28.5522847,3 29,3.44771525 29,4 L29,28 C29,28.5522847 28.5522847,29 28,29 L4,29 C3.44771525,29 3,28.5522847 3,28 L3,4 C3,3.44771525 3.44771525,3 4,3 L10,3 Z M17,3 L17,17.585 L21.2928932,13.2928932 C21.6533772,12.9324093 22.2206082,12.9046797 22.6128994,13.2097046 L22.7071068,13.2928932 C23.0976311,13.6834175 23.0976311,14.3165825 22.7071068,14.7071068 L16.7071068,20.7071068 C16.3165825,21.0976311 15.6834175,21.0976311 15.2928932,20.7071068 L9.29289322,14.7071068 C8.90236893,14.3165825 8.90236893,13.6834175 9.29289322,13.2928932 C9.68341751,12.9023689 10.3165825,12.9023689 10.7071068,13.2928932 L15,17.585 L15,3 L17,3 Z" id="&#24418;&#29366;" fill-rule="nonzero" />
    </g>
</svg>