<svg xmlns="http://www.w3.org/2000/svg" width="32px" height="32px" viewBox="0 0 32 32" version="1.1">
    <title>linear-new-textedit-office-size</title>
    <g id="linear-new-textedit-office-size" stroke-width="1" fill-rule="evenodd">
        <path d="M20,3 C20.5522847,3 21,3.44771525 21,4 C21,4.55228475 20.5522847,5 20,5 L13,5 L13,28 C13,28.5522847 12.5522847,29 12,29 C11.4477153,29 11,28.5522847 11,28 L11,5 L4,5 C3.44771525,5 3,4.55228475 3,4 C3,3.44771525 3.44771525,3 4,3 L20,3 Z M28.5,13 C29.0522847,13 29.5,13.4477153 29.5,14 C29.5,14.5522847 29.0522847,15 28.5,15 L24,15 L24,28 C24,28.5522847 23.5522847,29 23,29 C22.4477153,29 22,28.5522847 22,28 L22,15 L17.5,15 C16.9477153,15 16.5,14.5522847 16.5,14 C16.5,13.4477153 16.9477153,13 17.5,13 L28.5,13 Z" id="&#24418;&#29366;" fill-rule="nonzero" />
    </g>
</svg>