<svg xmlns="http://www.w3.org/2000/svg" width="32px" height="32px" viewBox="0 0 32 32" version="1.1">
    <title>linear-ele-other-medal-1</title>
    <g id="linear-ele-other-medal-1" stroke-width="1" fill-rule="evenodd">
        <path d="M25,2 C25.6239041,2 26.0954773,2.56504502 25.9838699,3.17888544 L24.0136549,14.0172426 C25.2612137,15.6855997 26,17.7565234 26,20 C26,25.5228475 21.5228475,30 16,30 C10.4771525,30 6,25.5228475 6,20 C6,17.7560798 6.73907856,15.6847806 7.9870853,14.0162529 L6.01613009,3.17888544 C5.90452274,2.56504502 6.37609595,2 7,2 L25,2 Z M16,12 C11.581722,12 8,15.581722 8,20 C8,24.418278 11.581722,28 16,28 C20.418278,28 24,24.418278 24,20 C24,15.581722 20.418278,12 16,12 Z M14,25 C13.4477153,25 13,24.5522847 13,24 C13,23.4477153 13.4477153,23 14,23 L14.9997117,23 L15,17 L14,17 C13.4871642,17 13.0644928,16.6139598 13.0067277,16.1166211 L13,16 C13,15.4477153 13.4477153,15 14,15 L16,15 C16.5522847,15 17,15.4477153 17,16 L16.9997117,23 L18,23 C18.5522847,23 19,23.4477153 19,24 C19,24.5522847 18.5522847,25 18,25 L14,25 Z M23.802,4 L19.9997117,4 L20.0004128,10.8322677 C20.8340015,11.1965231 21.6083334,11.6711387 22.3049397,12.2376456 L23.802,4 Z M11.9997117,4 L8.197,4 L9.6955926,12.2372127 C10.3920611,11.6708969 11.1662109,11.1964303 11.9995872,10.8322677 L11.9997117,4 Z M17.9997117,4 L13.9997117,4 L14.0000191,10.2000324 C14.6462331,10.0688592 15.3150751,10 16,10 C16.6850373,10 17.3539865,10.0688818 18.000299,10.2000969 L17.9997117,4 Z" id="&#24418;&#29366;" fill-rule="nonzero" />
    </g>
</svg>