<svg xmlns="http://www.w3.org/2000/svg" viewBox="0 0 32 32"><path fill="currentColor" d="M16 3c6.627 0 12 5.373 12 12l-.002.17A3.001 3.001 0 0 1 30 18v2c0 1.397-.954 2.57-2.247 2.905l-1.348 4.044A3 3 0 0 1 23.558 29H8.442a3 3 0 0 1-2.847-2.051l-1.348-4.044A3.001 3.001 0 0 1 2 20v-2c0-1.307.836-2.419 2.002-2.83L4 15C4 8.373 9.373 3 16 3m9.612 20H6.387l1.106 3.316a1 1 0 0 0 .949.684h15.116a1 1 0 0 0 .95-.684zM27 17H5a1 1 0 0 0-1 1v2a1 1 0 0 0 1 1h22a1 1 0 0 0 1-1v-2a1 1 0 0 0-1-1M16 5C10.477 5 6 9.477 6 15h20c0-5.523-4.477-10-10-10"/></svg>