<svg xmlns="http://www.w3.org/2000/svg" width="32px" height="32px" viewBox="0 0 32 32" version="1.1">
    <title>linear-ele-tool-edit-brush</title>
    <g id="linear-ele-tool-edit-brush" stroke-width="1" fill-rule="evenodd">
        <path d="M17,3 C17.6505712,3 18.1279292,3.6113889 17.9701425,4.24253563 L17.597,5.732 L21.4452998,3.16794971 C21.5767138,3.08034036 21.7265215,3.02541816 21.8822697,3.00695365 L22,3 L29,3 C29.7678227,3 30.2491899,3.82948217 29.8682431,4.49613894 C28.7492893,6.45430821 28.1277062,8.95316153 28.0177174,11.9999598 L28.9,12 C29.5075132,12 30,12.4924868 30,13.1 L30,20 C30,22.209139 28.209139,24 26,24 L22,24 L22,28.9 C22,29.4670123 21.5709893,29.9338239 21.0198571,29.9935453 L20.9,30 L11.1,30 C10.4924868,30 10,29.5075132 10,28.9 L10,24 L6,24 C3.85780461,24 2.10892112,22.3160315 2.00489531,20.1996403 L2,20 L2,13.1 C2,12.4924868 2.49248678,12 3.1,12 L4.01407147,11.9997266 C4.12010525,8.30863987 4.82642275,5.45759023 6.16794971,3.4452998 C6.35341548,3.16710114 6.66564681,3 7,3 L17,3 Z M28,14 L4,14 L4,20 C4,21.0543618 4.81587779,21.9181651 5.85073766,21.9945143 L6,22 L12,22 L12,28 L20,28 L20,22 L26,22 C27.1045695,22 28,21.1045695 28,20 L28,14 Z M15.718,5 L7.558,5 C6.62932914,6.64456734 6.10758459,8.9757989 6.01496473,11.9997324 L26.016535,11.9995873 C26.1030957,9.42264356 26.5297904,7.1643939 27.3030793,5.22813621 L27.397,5 L22.302,5 L16.5547002,8.83205029 C15.8258678,9.31793854 14.8899479,8.7000241 15.0083332,7.8672346 L15.0298575,7.75746437 L15.718,5 Z" id="&#24418;&#29366;" fill-rule="nonzero" />
    </g>
</svg>