<svg xmlns="http://www.w3.org/2000/svg" width="32px" height="32px" viewBox="0 0 32 32" version="1.1">
    <title>linear-new-symbol-info-circle</title>
    <g id="linear-new-symbol-info-circle" stroke-width="1" fill-rule="evenodd">
        <path d="M16,2 C23.7319865,2 30,8.2680135 30,16 C30,23.7319865 23.7319865,30 16,30 C8.2680135,30 2,23.7319865 2,16 C2,8.2680135 8.2680135,2 16,2 Z M16,4 C9.372583,4 4,9.372583 4,16 C4,22.627417 9.372583,28 16,28 C22.627417,28 28,22.627417 28,16 C28,9.372583 22.627417,4 16,4 Z M16,13 C16.5522847,13 17,13.4477153 17,14 L17,21 L18,21 C18.5522847,21 19,21.4477153 19,22 C19,22.5522847 18.5522847,23 18,23 L14,23 C13.4477153,23 13,22.5522847 13,22 C13,21.4477153 13.4477153,21 14,21 L15,21 L15,15 L14,15 C13.4871642,15 13.0644928,14.6139598 13.0067277,14.1166211 L13,14 C13,13.4477153 13.4477153,13 14,13 L16,13 Z M16,8 C16.8284271,8 17.5,8.67157288 17.5,9.5 C17.5,10.3284271 16.8284271,11 16,11 C15.1715729,11 14.5,10.3284271 14.5,9.5 C14.5,8.67157288 15.1715729,8 16,8 Z" id="&#24418;&#29366;" fill-rule="nonzero" />
    </g>
</svg>