<svg xmlns="http://www.w3.org/2000/svg" width="32px" height="32px" viewBox="0 0 32 32" version="1.1">
    <title>linear-new-finance-circle-rmb-coin</title>
    <g id="linear-new-finance-circle-rmb-coin" stroke-width="1" fill-rule="evenodd">
        <path d="M16,2 C23.7319865,2 30,8.2680135 30,16 C30,23.7319865 23.7319865,30 16,30 C8.2680135,30 2,23.7319865 2,16 C2,8.2680135 8.2680135,2 16,2 Z M16,4 C9.372583,4 4,9.372583 4,16 C4,22.627417 9.372583,28 16,28 C22.627417,28 28,22.627417 28,16 C28,9.372583 22.627417,4 16,4 Z M19.6,9.2 C20.0418278,9.53137085 20.1313708,10.1581722 19.8,10.6 L17.249,14 L20,14 C20.5522847,14 21,14.4477153 21,15 C21,15.5522847 20.5522847,16 20,16 L17,16 L17,18 L20,18 C20.5522847,18 21,18.4477153 21,19 C21,19.5522847 20.5522847,20 20,20 L17,20 L17,22 C17,22.5522847 16.5522847,23 16,23 C15.4477153,23 15,22.5522847 15,22 L15,20 L12,20 C11.4477153,20 11,19.5522847 11,19 C11,18.4477153 11.4477153,18 12,18 L15,18 L15,16 L12,16 C11.4477153,16 11,15.5522847 11,15 C11,14.4477153 11.4477153,14 12,14 L14.751,14 L12.2,10.6 C11.8686292,10.1581722 11.9581722,9.53137085 12.4,9.2 C12.8418278,8.86862915 13.4686292,8.9581722 13.8,9.4 L16,12.333 L18.2,9.4 C18.5313708,8.9581722 19.1581722,8.86862915 19.6,9.2 Z" id="&#24418;&#29366;" fill-rule="nonzero" />
    </g>
</svg>