<svg xmlns="http://www.w3.org/2000/svg" width="32px" height="32px" viewBox="0 0 32 32" version="1.1">
    <title>linear-ele-symbol-aim</title>
    <g id="linear-ele-symbol-aim" stroke-width="1" fill-rule="evenodd">
        <path d="M16,2 C23.7319865,2 30,8.2680135 30,16 C30,23.7319865 23.7319865,30 16,30 C8.2680135,30 2,23.7319865 2,16 C2,8.2680135 8.2680135,2 16,2 Z M17.0004669,4.04102967 L17,10 C17,10.5522847 16.5522847,11 16,11 C15.4477153,11 15,10.5522847 15,10 L15.0005348,4.04102967 C9.17030885,4.52175266 4.52175266,9.17030885 4.04102967,15.0005348 L10,15 C10.5522847,15 11,15.4477153 11,16 C11,16.5522847 10.5522847,17 10,17 L4.04102967,17.0004669 C4.52228512,22.8302236 9.17064275,27.4782749 15.0005348,27.9589703 L15,22 C15,21.4477153 15.4477153,21 16,21 C16.5522847,21 17,21.4477153 17,22 L17.0004669,27.9589703 C22.8298897,27.4777424 27.4777424,22.8298897 27.9589703,17.0004669 L22,17 C21.4477153,17 21,16.5522847 21,16 C21,15.4477153 21.4477153,15 22,15 L27.9589703,15.0005348 C27.4782749,9.17064275 22.8302236,4.52228512 17.0004669,4.04102967 Z" id="&#24418;&#29366;" fill-rule="nonzero" />
    </g>
</svg>