<svg xmlns="http://www.w3.org/2000/svg" width="32px" height="32px" viewBox="0 0 32 32" version="1.1">
    <title>linear-ele-other-ship</title>
    <g id="linear-ele-other-ship" stroke-width="1" fill-rule="evenodd">
        <path d="M15.4705882,3.11764706 L22.9705882,7.11764706 C23.6764706,7.49411765 23.6764706,8.50588235 22.9705882,8.88235294 L16,12.599 L15.9992334,13.9996188 L29,14 C29.6825577,14 30.164527,14.6686967 29.9486833,15.3162278 L27.0883037,23.8973666 C26.2716194,26.3474194 23.9787863,28 21.3962039,28 L10.6037961,28 C8.02121365,28 5.72838059,26.3474194 4.91169631,23.8973666 L2.0513167,15.3162278 C1.835473,14.6686967 2.31744227,14 3,14 L13.9992334,13.9996188 L14,4 C14,3.24507949 14.8044819,2.76239035 15.4705882,3.11764706 Z M26.2782334,19.9996188 L5.72023337,19.9996188 L6.80906291,23.2649111 C7.33174085,24.8329449 8.7613646,25.9110117 10.3981673,25.9947482 L10.6037961,26 L21.3962039,26 C23.1179255,26 24.6464809,24.8982796 25.1909371,23.2649111 L26.2782334,19.9996188 Z M27.612,16 L4.387,16 L5.05323337,17.9996188 L26.9452334,17.9996188 L27.612,16 Z M16,5.666 L16,10.333 L20.375,7.999 L16,5.666 Z" id="&#24418;&#29366;" fill-rule="nonzero" />
    </g>
</svg>