<svg xmlns="http://www.w3.org/2000/svg" viewBox="0 0 32 32"><path fill="currentColor" d="M27.314 4.686c3.883 3.884 2.321 13.235-3.536 19.092-5.857 5.857-15.208 7.42-19.092 3.536C.803 23.43 2.365 14.079 8.222 8.222 14.079 2.365 23.43.802 27.314 4.686M11.854 27.41 4.59 20.146c-.211 2.414.28 4.523 1.51 5.753 1.231 1.231 3.34 1.722 5.754 1.511M26.99 14.261l-9.251-9.25c-2.806.724-5.76 2.283-8.103 4.625-2.342 2.343-3.901 5.297-4.626 8.103l9.251 9.25c2.806-.724 5.76-2.283 8.103-4.625 2.342-2.343 3.901-5.297 4.626-8.103m-6.04-3.21a1 1 0 0 1 0 1.413l-.707.708 1.414 1.414A1 1 0 0 1 20.243 16l-1.415-1.414L17.414 16l1.414 1.414a1 1 0 0 1-1.414 1.414L16 17.414l-1.414 1.414L16 20.243a1 1 0 0 1-1.414 1.414l-1.414-1.415-.708.708a1 1 0 0 1-1.414-1.414l.708-.708-1.415-1.414A1 1 0 0 1 11.757 16l1.415 1.414L14.586 16l-1.414-1.414a1 1 0 0 1 1.414-1.414L16 14.586l1.414-1.414L16 11.757a1 1 0 0 1 1.414-1.414l1.414 1.414.708-.707a1 1 0 0 1 1.414 0M25.9 6.1c-1.231-1.231-3.34-1.722-5.754-1.511l7.264 7.264c.211-2.414-.28-4.523-1.51-5.753"/></svg>