<svg xmlns="http://www.w3.org/2000/svg" width="32px" height="32px" viewBox="0 0 32 32" version="1.1">
    <title>linear-ele-symbol-close</title>
    <g id="linear-ele-symbol-close" stroke-width="1" fill-rule="evenodd">
        <path d="M8.20710678,6.79289322 L16,14.585 L23.7928932,6.79289322 C24.1834175,6.40236893 24.8165825,6.40236893 25.2071068,6.79289322 C25.5976311,7.18341751 25.5976311,7.81658249 25.2071068,8.20710678 L17.415,16 L25.2071068,23.7928932 C25.5976311,24.1834175 25.5976311,24.8165825 25.2071068,25.2071068 C24.8165825,25.5976311 24.1834175,25.5976311 23.7928932,25.2071068 L16,17.415 L8.20710678,25.2071068 C7.81658249,25.5976311 7.18341751,25.5976311 6.79289322,25.2071068 C6.40236893,24.8165825 6.40236893,24.1834175 6.79289322,23.7928932 L14.585,16 L6.79289322,8.20710678 C6.40236893,7.81658249 6.40236893,7.18341751 6.79289322,6.79289322 C7.18341751,6.40236893 7.81658249,6.40236893 8.20710678,6.79289322 Z" id="&#36335;&#24452;" fill-rule="nonzero" />
    </g>
</svg>