<svg xmlns="http://www.w3.org/2000/svg" viewBox="0 0 32 32"><path fill="currentColor" d="M16 14a1 1 0 0 1 1 1v11.585l2.293-2.292a1 1 0 0 1 1.32-.083l.094.083a1 1 0 0 1 0 1.414l-4 4a1 1 0 0 1-1.414 0l-4-4a1 1 0 0 1 0-1.414l.094-.083a1 1 0 0 1 1.32.083L15 26.585V15a1 1 0 0 1 1-1m0-11a8.495 8.495 0 0 1 7.234 4.035A7.501 7.501 0 0 1 22.5 22H20v-2h2.5l.221-.004A5.5 5.5 0 0 0 28 14.5l-.005-.233-.02-.289-.02-.181-.042-.275-.05-.247-.056-.224-.065-.22a5.456 5.456 0 0 0-.314-.776l-.12-.229-.16-.269-.16-.236-.227-.298-.176-.206-.192-.202-.094-.092-.144-.133-.227-.191-.223-.17-.18-.123-.306-.188-.18-.098-.215-.106-.216-.096a5.484 5.484 0 0 0-2.597-.396 6.502 6.502 0 0 0-1.154-1.842l-.074-.081-.142-.15-.207-.202-.269-.237-.24-.192-.22-.16-.252-.166-.278-.165-.32-.168-.148-.07-.246-.107-.297-.113-.256-.085-.286-.08-.264-.062-.253-.048-.283-.043-.285-.03-.276-.016L16 5c-.263 0-.523.016-.778.046l-.203.028-.214.036-.324.069-.236.06-.325.1-.242.088-.282.116-.217.1-.283.145-.244.14-.126.077c-.142.09-.281.186-.416.287l-.19.148-.247.21c-.16.142-.312.292-.456.449l-.141.158-.243.299-.14.19-.157.232-.106.17a6.462 6.462 0 0 0-.765 1.896 5.046 5.046 0 0 0-2.066.155l-.061.018a4.967 4.967 0 0 0-.782.314l-.281.153-.22.136-.231.162-.224.176-.165.144-.128.12-.138.14-.034.036c-.06.065-.118.132-.175.2l-.114.141a5.01 5.01 0 0 0-.232.326l-.142.229-.093.168-.138.282-.078.183-.075.197-.074.225-.054.192-.038.156-.041.202-.017.098a5.003 5.003 0 0 0-.056 1.093l.013.17.018.17a5 5 0 0 0 .496 1.623l.129.238.116.192.148.22.14.185.208.249.262.27.106.1.23.196.214.162.212.144.137.085.267.149.228.11.248.105.299.106.218.064.232.057.272.052c.19.03.385.05.582.058L9 20h3v2H9a7 7 0 0 1-.767-13.958A8.502 8.502 0 0 1 16 3"/></svg>