<svg xmlns="http://www.w3.org/2000/svg" width="32px" height="32px" viewBox="0 0 32 32" version="1.1">
    <title>linear-ele-office-book-notebook-2</title>
    <g id="linear-ele-office-book-notebook-2" stroke-width="1" fill-rule="evenodd">
        <path d="M27,2 C27.5522847,2 28,2.44771525 28,3 L28,29 C28,29.5522847 27.5522847,30 27,30 L5,30 C4.44771525,30 4,29.5522847 4,29 L4,3 C4,2.44771525 4.44771525,2 5,2 L27,2 Z M9,4 L6,4 L6,28 L9,28 L9,4 Z M26,4 L11,4 L11,28 L26,28 L26,4 Z M21,21 C21.5522847,21 22,21.4477153 22,22 C22,22.5522847 21.5522847,23 21,23 L15,23 C14.4477153,23 14,22.5522847 14,22 C14,21.4477153 14.4477153,21 15,21 L21,21 Z M21,15 C21.5522847,15 22,15.4477153 22,16 C22,16.5522847 21.5522847,17 21,17 L15,17 C14.4477153,17 14,16.5522847 14,16 C14,15.4477153 14.4477153,15 15,15 L21,15 Z M21,9 C21.5522847,9 22,9.44771525 22,10 C22,10.5522847 21.5522847,11 21,11 L15,11 C14.4477153,11 14,10.5522847 14,10 C14,9.44771525 14.4477153,9 15,9 L21,9 Z" id="&#24418;&#29366;" fill-rule="nonzero" />
    </g>
</svg>