<svg xmlns="http://www.w3.org/2000/svg" width="32px" height="32px" viewBox="0 0 32 32" version="1.1">
    <title>linear-new-textedit-office-headline</title>
    <g id="linear-new-textedit-office-headline" stroke-width="1" fill-rule="evenodd">
        <path d="M26,3 C26.5522847,3 27,3.44771525 27,4 L27,28 C27,28.5522847 26.5522847,29 26,29 C25.4477153,29 25,28.5522847 25,28 L25,17 L7,17 L7,28 C7,28.5522847 6.55228475,29 6,29 C5.44771525,29 5,28.5522847 5,28 L5,4 C5,3.44771525 5.44771525,3 6,3 C6.55228475,3 7,3.44771525 7,4 L7,15 L25,15 L25,4 C25,3.44771525 25.4477153,3 26,3 Z" id="&#36335;&#24452;" fill-rule="nonzero" />
    </g>
</svg>