<svg xmlns="http://www.w3.org/2000/svg" width="32px" height="32px" viewBox="0 0 32 32" version="1.1">
    <title>linear-new-medic-health-cross-hospital</title>
    <g id="linear-new-medic-health-cross-hospital" stroke-width="1" fill-rule="evenodd">
        <path d="M20,2 C20.5522847,2 21,2.44771525 21,3 L21,11 L29,11 C29.5128358,11 29.9355072,11.3860402 29.9932723,11.8833789 L30,12 L30,20 C30,20.5522847 29.5522847,21 29,21 L21,21 L21,29 C21,29.5128358 20.6139598,29.9355072 20.1166211,29.9932723 L20,30 L12,30 C11.4477153,30 11,29.5522847 11,29 L11,21 L3,21 C2.48716416,21 2.06449284,20.6139598 2.00672773,20.1166211 L2,20 L2,12 C2,11.4477153 2.44771525,11 3,11 L11,11 L11,3 C11,2.48716416 11.3860402,2.06449284 11.8833789,2.00672773 L12,2 L20,2 Z M19,4 L13,4 L13,12 C13,12.5128358 12.6139598,12.9355072 12.1166211,12.9932723 L12,13 L4,13 L4,19 L12,19 C12.5128358,19 12.9355072,19.3860402 12.9932723,19.8833789 L13,20 L13,28 L19,28 L19,20 C19,19.4871642 19.3860402,19.0644928 19.8833789,19.0067277 L20,19 L28,19 L28,13 L20,13 C19.4871642,13 19.0644928,12.6139598 19.0067277,12.1166211 L19,12 L19,4 Z" id="&#24418;&#29366;" fill-rule="nonzero" />
    </g>
</svg>