<svg xmlns="http://www.w3.org/2000/svg" width="32px" height="32px" viewBox="0 0 32 32" version="1.1">
    <title>linear-ele-media-vido-play-circle</title>
    <g id="linear-ele-media-vido-play-circle" stroke-width="1" fill-rule="evenodd">
        <path d="M16,2 C23.7319865,2 30,8.2680135 30,16 C30,23.7319865 23.7319865,30 16,30 C8.2680135,30 2,23.7319865 2,16 C2,8.2680135 8.2680135,2 16,2 Z M16,4 C9.372583,4 4,9.372583 4,16 C4,22.627417 9.372583,28 16,28 C22.627417,28 28,22.627417 28,16 C28,9.372583 22.627417,4 16,4 Z M14.0665288,9.67595808 L22.0665288,15.1759581 C22.6444904,15.5733067 22.6444904,16.4266933 22.0665288,16.8240419 L14.0665288,22.3240419 C13.4030272,22.7801993 12.5,22.3051794 12.5,21.5 L12.5,10.5 C12.5,9.69482055 13.4030272,9.21980071 14.0665288,9.67595808 Z M14.5,12.401 L14.5,19.598 L19.734,16 L14.5,12.401 Z" id="&#24418;&#29366;" fill-rule="nonzero" />
    </g>
</svg>