<svg xmlns="http://www.w3.org/2000/svg" width="32px" height="32px" viewBox="0 0 32 32" version="1.1">
    <title>linear-new-textedit-office-center-aligned</title>
    <g id="linear-new-textedit-office-center-aligned" stroke-width="1" fill-rule="evenodd">
        <path d="M27,4 C27.5522847,4 28,4.44771525 28,5 C28,5.55228475 27.5522847,6 27,6 L5,6 C4.44771525,6 4,5.55228475 4,5 C4,4.44771525 4.44771525,4 5,4 L27,4 Z M21,11 C21.5522847,11 22,11.4477153 22,12 C22,12.5522847 21.5522847,13 21,13 L11,13 C10.4477153,13 10,12.5522847 10,12 C10,11.4477153 10.4477153,11 11,11 L21,11 Z M27,19 C27.5522847,19 28,19.4477153 28,20 C28,20.5522847 27.5522847,21 27,21 L5,21 C4.44771525,21 4,20.5522847 4,20 C4,19.4477153 4.44771525,19 5,19 L27,19 Z M21,26 C21.5522847,26 22,26.4477153 22,27 C22,27.5522847 21.5522847,28 21,28 L11,28 C10.4477153,28 10,27.5522847 10,27 C10,26.4477153 10.4477153,26 11,26 L21,26 Z" id="&#24418;&#29366;" fill-rule="nonzero" />
    </g>
</svg>