<svg xmlns="http://www.w3.org/2000/svg" width="32px" height="32px" viewBox="0 0 32 32" version="1.1">
    <title>linear-ele-media-sound-headset-headphone-microphone-service</title>
    <g id="linear-ele-media-sound-headset-headphone-microphone-service" stroke-width="1" fill-rule="evenodd">
        <path d="M16,2 C22.0090656,2 26.8927487,6.81833492 26.9982575,12.8022129 C28.792487,13.8386479 30,15.7783091 30,18 C30,20.6246078 28.3147926,22.8556142 25.9673886,23.6700087 C25.6312021,27.2215883 22.6400674,30 19,30 L15,30 C14.4477153,30 14,29.5522847 14,29 C14,28.4477153 14.4477153,28 15,28 L19,28 C21.4185387,28 23.4360122,26.2828356 23.8997409,24.0011864 L23,24 C22.4477153,24 22,23.5522847 22,23 L22,13 C22,12.4477153 22.4477153,12 23,12 L24,12 C24.3242581,12 24.6425085,12.0257221 24.952822,12.0752371 C24.4906709,7.53967465 20.6587031,4 16,4 C11.3412969,4 7.50932908,7.53967465 7.04682256,12.076298 C7.35749153,12.0257221 7.67574191,12 8,12 L9,12 C9.55228475,12 10,12.4477153 10,13 L10,23 C10,23.5522847 9.55228475,24 9,24 L8,24 C4.6862915,24 2,21.3137085 2,18 C2,15.7783091 3.20751301,13.8386479 5.00204458,12.801511 L5,13 C5,6.92486775 9.92486775,2 16,2 Z M8,14 L7.80035966,14.0048953 C5.68396847,14.1089211 4,15.8578046 4,18 C4,20.209139 5.790861,22 8,22 L8,14 Z M24,14 L24,22 L24.1996403,21.9951047 C26.2498943,21.8943297 27.8943297,20.2498943 27.9951047,18.1996403 L28,18 C28,15.790861 26.209139,14 24,14 Z" id="&#24418;&#29366;" fill-rule="nonzero" />
    </g>
</svg>