<svg xmlns="http://www.w3.org/2000/svg" viewBox="0 0 32 32"><path fill="currentColor" d="M28 5a1 1 0 0 1 0 2H15a1 1 0 0 1 0-2zm-6 7a1 1 0 0 1 0 2h-7a1 1 0 0 1 0-2zm6 7a1 1 0 0 1 0 2H15a1 1 0 0 1 0-2zm-6 7a1 1 0 0 1 0 2h-7a1 1 0 0 1 0-2zM6.852 3.011l.058-.007L7 3l.075.003.126.017.111.03.111.044.098.052.104.074.082.073 3 3a1 1 0 1 1-1.414 1.414L8 6.415v19.169l1.293-1.291a1 1 0 0 1 1.32-.083l.094.083a1 1 0 0 1 0 1.414l-3 3a1.008 1.008 0 0 1-.112.097l-.11.071-.114.054-.105.035-.149.03L7 29l-.075-.003-.126-.017-.111-.03-.111-.044-.098-.052-.096-.067-.09-.08-3-3a1 1 0 0 1 1.414-1.414L6 25.586V6.415L4.707 7.707a1 1 0 0 1-1.32.083l-.094-.083a1 1 0 0 1 0-1.414l3-3c.035-.036.073-.068.112-.097l.11-.071.114-.054.105-.035z"/></svg>