<svg xmlns="http://www.w3.org/2000/svg" width="32px" height="32px" viewBox="0 0 32 32" version="1.1">
    <title>linear-ele-other-toilet-paper</title>
    <g id="linear-ele-other-toilet-paper" stroke-width="1" fill-rule="evenodd">
        <path d="M23,2 C26.9387085,2 30,6.081722 30,11 C30,15.918278 26.9387085,20 23,20 L18,20 L18,29 C18,29.5128358 17.6139598,29.9355072 17.1166211,29.9932723 L17,30 L3,30 C2.44771525,30 2,29.5522847 2,29 L2,11 C2,6.16065454 5.25616442,2 9,2 L23,2 Z M18.585,4 L9,4 C6.48296601,4 4,7.1726788 4,11 L4,28 L16,28 L16,11 C16,8.26762333 16.9448431,5.79344296 18.4600651,4.13390025 L18.585,4 Z M23,4 C20.3112915,4 18,7.081722 18,11 L18,18 L23,18 C25.6276015,18 27.8947463,15.0567645 27.9964412,11.2658326 L28,11 C28,7.081722 25.6887085,4 23,4 Z M23,8 C24.1045695,8 25,9.34314575 25,11 C25,12.6568542 24.1045695,14 23,14 C21.8954305,14 21,12.6568542 21,11 C21,9.34314575 21.8954305,8 23,8 Z" id="&#24418;&#29366;" fill-rule="nonzero" />
    </g>
</svg>