<svg xmlns="http://www.w3.org/2000/svg" width="32px" height="32px" viewBox="0 0 32 32" version="1.1">
    <title>linear-new-textedit-office-bullet-point-list</title>
    <g id="linear-new-textedit-office-bullet-point-list" stroke-width="1" fill-rule="evenodd">
        <path d="M28,5 C28.5522847,5 29,5.44771525 29,6 C29,6.55228475 28.5522847,7 28,7 L10,7 C9.44771525,7 9,6.55228475 9,6 C9,5.44771525 9.44771525,5 10,5 L28,5 Z M28,15 C28.5522847,15 29,15.4477153 29,16 C29,16.5522847 28.5522847,17 28,17 L10,17 C9.44771525,17 9,16.5522847 9,16 C9,15.4477153 9.44771525,15 10,15 L28,15 Z M28,25 C28.5522847,25 29,25.4477153 29,26 C29,26.5522847 28.5522847,27 28,27 L10,27 C9.44771525,27 9,26.5522847 9,26 C9,25.4477153 9.44771525,25 10,25 L28,25 Z M5.5,7.5 C6.32842712,7.5 7,6.82842712 7,6 C7,5.17157288 6.32842712,4.5 5.5,4.5 C4.67157288,4.5 4,5.17157288 4,6 C4,6.82842712 4.67157288,7.5 5.5,7.5 Z M5.5,17.5 C6.32842712,17.5 7,16.8284271 7,16 C7,15.1715729 6.32842712,14.5 5.5,14.5 C4.67157288,14.5 4,15.1715729 4,16 C4,16.8284271 4.67157288,17.5 5.5,17.5 Z M5.5,27.5 C6.32842712,27.5 7,26.8284271 7,26 C7,25.1715729 6.32842712,24.5 5.5,24.5 C4.67157288,24.5 4,25.1715729 4,26 C4,26.8284271 4.67157288,27.5 5.5,27.5 Z" id="&#24418;&#29366;" fill-rule="nonzero" />
    </g>
</svg>