<svg xmlns="http://www.w3.org/2000/svg" width="32px" height="32px" viewBox="0 0 32 32" version="1.1">
    <title>linear-new-other-opportunity-light-bulb-lamp</title>
    <g id="linear-new-other-opportunity-light-bulb-lamp" stroke-width="1" fill-rule="evenodd">
        <path d="M16,1 C22.627417,1 28,6.372583 28,13 C28,16.3474629 26.621054,19.4769228 24.2342064,21.7291778 L23.8341139,22.1112423 C22.3931843,23.5066414 22,24.1354994 22,25 C22,25.5522847 21.5522847,26 21,26 L11,26 C10.4477153,26 10,25.5522847 10,25 C10,23.9719886 9.74935885,23.5998965 7.76812412,21.7313763 C5.37987491,19.4789971 4,16.3485844 4,13 C4,6.372583 9.372583,1 16,1 Z M16,3 C10.4771525,3 6,7.4771525 6,13 C6,15.7920616 7.14871297,18.3980555 9.14034381,20.2763804 L9.58320733,20.6979406 C11.0511023,22.1107851 11.6709628,22.8924381 11.8933075,23.8706629 L11.919,24 L20.103,24 L20.1121012,23.9574248 C20.3704886,22.8706466 21.1058909,21.9521617 22.6274343,20.4969427 L22.8616005,20.2745462 C24.8520613,18.3963261 26,15.7911274 26,13 C26,7.4771525 21.5228475,3 16,3 Z M16,5 C16.5522847,5 17,5.44771525 17,6 C17,6.55228475 16.5522847,7 16,7 C12.6862915,7 10,9.6862915 10,13 C10,13.5522847 9.55228475,14 9,14 C8.44771525,14 8,13.5522847 8,13 C8,8.581722 11.581722,5 16,5 Z M21,28 C21.5522847,28 22,28.4477153 22,29 C22,29.5522847 21.5522847,30 21,30 L11,30 C10.4477153,30 10,29.5522847 10,29 C10,28.4477153 10.4477153,28 11,28 L21,28 Z" id="&#24418;&#29366;" fill-rule="nonzero" />
    </g>
</svg>