<svg xmlns="http://www.w3.org/2000/svg" width="32px" height="32px" viewBox="0 0 32 32" version="1.1">
    <title>linear-new-textedit-office-outdent</title>
    <g id="linear-new-textedit-office-outdent" stroke-width="1" fill-rule="evenodd">
        <path d="M27,4 C27.5522847,4 28,4.44771525 28,5 C28,5.55228475 27.5522847,6 27,6 L5,6 C4.44771525,6 4,5.55228475 4,5 C4,4.44771525 4.44771525,4 5,4 L27,4 Z M27,11 C27.5522847,11 28,11.4477153 28,12 C28,12.5522847 27.5522847,13 27,13 L14,13 C13.4477153,13 13,12.5522847 13,12 C13,11.4477153 13.4477153,11 14,11 L27,11 Z M27,19 C27.5522847,19 28,19.4477153 28,20 C28,20.5522847 27.5522847,21 27,21 L14,21 C13.4477153,21 13,20.5522847 13,20 C13,19.4477153 13.4477153,19 14,19 L27,19 Z M27,26 C27.5522847,26 28,26.4477153 28,27 C28,27.5522847 27.5522847,28 27,28 L5,28 C4.44771525,28 4,27.5522847 4,27 C4,26.4477153 4.44771525,26 5,26 L27,26 Z M3.92186554,15.2317787 L7.85187094,11.9567742 C8.14886476,11.7092794 8.59026005,11.7494062 8.8377549,12.0464 C8.94258865,12.1722005 9,12.3307736 9,12.4945291 L9,19.5054709 C9,19.8920702 8.68659933,20.2054709 8.30000001,20.2054709 C8.13624446,20.2054709 7.97767144,20.1480595 7.85187094,20.0432258 L3.92186554,16.7682213 C3.49758864,16.4146572 3.44026457,15.7840925 3.79382866,15.3598156 C3.83254788,15.3133525 3.87540247,15.2704979 3.92186554,15.2317787 Z" id="&#24418;&#29366;" fill-rule="nonzero" />
    </g>
</svg>