<svg xmlns="http://www.w3.org/2000/svg" viewBox="0 0 32 32"><path fill="currentColor" d="M16 2a7.5 7.5 0 1 1 0 15 7.5 7.5 0 0 1 0-15m0 2a5.5 5.5 0 1 0 0 11 5.5 5.5 0 0 0 0-11m1.707 19.293a1 1 0 0 1 0 1.414L16.413 26H28v2H16.415l1.292 1.293a1 1 0 0 1 .078 1.327l-.078.087a1 1 0 0 1-1.414 0l-3-3a1 1 0 0 1 0-1.414l3-3a1 1 0 0 1 1.414 0M23.033 19a5 5 0 0 1 4.975 4.5h-2.017a3.001 3.001 0 0 0-2.782-2.495L23.033 21H9a3 3 0 0 0-2.995 2.824L6 24v4.211a1 1 0 0 1-1.993.117L4 28.21V24a5 5 0 0 1 4.783-4.995L9 19z"/></svg>