<svg xmlns="http://www.w3.org/2000/svg" viewBox="0 0 32 32"><path fill="currentColor" d="m24.5 16.134 5.196 3a1 1 0 0 1 .5.866v6a1 1 0 0 1-.5.866l-5.196 3a1 1 0 0 1-1 0l-5.196-3a1 1 0 0 1-.5-.866v-6a1 1 0 0 1 .5-.866l5.196-3a1 1 0 0 1 1 0M12 4a1 1 0 0 1 .707.293L16.415 8H29a1 1 0 0 1 .993.883L30 9v7.999l-2-1.155V10H16a1 1 0 0 1-.608-.206l-.1-.087L11.586 6H4v20h11.803v2H3a1 1 0 0 1-1-1V5a1 1 0 0 1 1-1zm12 14.155-4.197 2.422v4.845L24 27.844l4.196-2.422v-4.845zM24 21a2 2 0 1 1 0 4 2 2 0 0 1 0-4"/></svg>