<svg xmlns="http://www.w3.org/2000/svg" viewBox="0 0 32 32"><path fill="currentColor" d="M14.5 4c0-.868-1.03-1.324-1.673-.74l-11 10a1 1 0 0 0-.034 1.447l11 11c.63.63 1.707.184 1.707-.707v-4.977l.16.007c6.603.347 11.381 3.676 13.285 8.978l.106.308C28.41 30.392 30 30.134 30 29c0-4.53-.94-9.062-3.01-12.627-2.551-4.393-6.62-7.016-12.282-7.34l-.208-.009zm-2 2.26V10a1 1 0 0 0 1 1c8.448 0 12.928 5.373 14.15 13.228l.013.078-.07-.092c-2.955-3.85-7.75-6.112-13.686-6.21L13.5 18a1 1 0 0 0-1 1v3.584l-8.551-8.551z"/></svg>