<svg xmlns="http://www.w3.org/2000/svg" width="32px" height="32px" viewBox="0 0 32 32" version="1.1">
    <title>linear-ele-symbol-male-man</title>
    <g id="linear-ele-symbol-male-man" stroke-width="1" fill-rule="evenodd">
        <path d="M27,4 C27.5522847,4 28,4.44771525 28,5 L28,12 C28,12.5522847 27.5522847,13 27,13 C26.4477153,13 26,12.5522847 26,12 L26,7.414 L19.0323074,14.3828243 C20.2636898,15.9224164 21,17.875221 21,20 C21,24.9705627 16.9705627,29 12,29 C7.02943725,29 3,24.9705627 3,20 C3,15.0294373 7.02943725,11 12,11 C14.124779,11 16.0775836,11.7363102 17.6171757,12.9676926 L24.584,6 L20,6 C19.4871642,6 19.0644928,5.61395981 19.0067277,5.11662113 L19,5 C19,4.44771525 19.4477153,4 20,4 L27,4 Z M12,13 C8.13400675,13 5,16.1340068 5,20 C5,23.8659932 8.13400675,27 12,27 C15.8659932,27 19,23.8659932 19,20 C19,16.1340068 15.8659932,13 12,13 Z" id="&#24418;&#29366;" fill-rule="nonzero" />
    </g>
</svg>