<svg xmlns="http://www.w3.org/2000/svg" viewBox="0 0 32 32"><path fill="currentColor" d="M28 5a1 1 0 0 1 0 2H14a1 1 0 0 1 0-2zm0 10a1 1 0 0 1 0 2H14a1 1 0 0 1 0-2zm0 10a1 1 0 0 1 0 2H14a1 1 0 0 1 0-2zM6.553 3.106A1 1 0 0 1 8 4v8a1 1 0 0 1-2 0V5.618l-1.553.776a1 1 0 0 1-1.283-.345l-.058-.102a1 1 0 0 1 .447-1.341zM6.25 18c2.39 0 3.928 2.129 3.199 4.316-.294.881-1.18 2.024-2.685 3.5l-.19.184H9a1 1 0 0 1 .993.883L10 27a1 1 0 0 1-1 1H4c-.923 0-1.353-1.145-.659-1.753l.525-.464c2.2-1.969 3.448-3.388 3.685-4.1C7.848 20.794 7.276 20 6.25 20c-.745 0-1.188.5-1.244.913L5 21a1 1 0 0 1-2 0c0-1.438 1.227-3 3.25-3"/></svg>