<svg xmlns="http://www.w3.org/2000/svg" viewBox="0 0 32 32"><path fill="currentColor" d="M11 3a4.002 4.002 0 0 1 3.876 3.007l.061-.005L27 6a1 1 0 0 1 0 2H15a1.01 1.01 0 0 1-.125-.008 4 4 0 0 1-7.749.009L5 8a1 1 0 1 1 0-2h2.126C7.57 4.275 9.136 3 11 3m0 2a2 2 0 1 0 0 4 2 2 0 0 0 0-4m10 7a4.002 4.002 0 0 1 3.874 3H27a1 1 0 0 1 0 2h-2.126a4.002 4.002 0 0 1-7.748 0H5a1 1 0 0 1 0-2h12.126c.444-1.725 2.01-3 3.874-3m0 2a2 2 0 1 0 0 4 2 2 0 0 0 0-4m-7 7a4.002 4.002 0 0 1 3.874 3H27a1 1 0 0 1 0 2h-9.126a4.002 4.002 0 0 1-7.748 0H5a1 1 0 0 1 0-2h5.126c.444-1.725 2.01-3 3.874-3m0 2a2 2 0 1 0 0 4 2 2 0 0 0 0-4"/></svg>