<svg xmlns="http://www.w3.org/2000/svg" width="32px" height="32px" viewBox="0 0 32 32" version="1.1">
    <title>linear-ele-other-magnet-attract</title>
    <g id="linear-ele-other-magnet-attract" stroke-width="1" fill-rule="evenodd">
        <path d="M11,4 C11.5522847,4 12,4.44771525 12,5 L12,16 C12,18.209139 13.790861,20 16,20 C18.209139,20 20,18.209139 20,16 L20,5 C20,4.44771525 20.4477153,4 21,4 L27,4 C27.5522847,4 28,4.44771525 28,5 L28,16 C28,22.627417 22.627417,28 16,28 C9.372583,28 4,22.627417 4,16 L4,5 C4,4.44771525 4.44771525,4 5,4 L11,4 Z M26,12 L22,12 L22,16 C22,19.2383969 19.4344251,21.8775718 16.2249383,21.9958615 L16,22 C12.6862915,22 10,19.3137085 10,16 L10,12 L6,12 L6,16 C6,21.4292399 10.3266708,25.8479317 15.7200952,25.9961582 L16,26 C21.5228475,26 26,21.5228475 26,16 L26,12 Z M26,6 L22,6 L22,10 L26,10 L26,6 Z M10,6 L6,6 L6,10 L10,10 L10,6 Z" id="&#24418;&#29366;" fill-rule="nonzero" />
    </g>
</svg>