<svg xmlns="http://www.w3.org/2000/svg" width="32px" height="32px" viewBox="0 0 32 32" version="1.1">
    <title>linear-ele-media-picture-image-photo-circle</title>
    <g id="linear-ele-media-picture-image-photo-circle" stroke-width="1" fill-rule="evenodd">
        <path d="M16,2 C23.7319865,2 30,8.2680135 30,16 C30,23.7319865 23.7319865,30 16,30 C8.2680135,30 2,23.7319865 2,16 C2,8.2680135 8.2680135,2 16,2 Z M27.9866872,15.4297048 L20.7071068,22.7071068 C20.3882362,23.0259773 19.8953962,23.0919775 19.5038611,22.8682431 L13.167,19.247 L7.72501669,24.690523 C9.87798024,26.741167 12.791982,28 16,28 C22.627417,28 28,22.627417 28,16 C28,15.8088245 27.9955295,15.6186932 27.9866872,15.4297048 Z M16,4 C9.372583,4 4,9.372583 4,16 C4,18.6976799 4.89017494,21.1874482 6.39281053,23.1915908 L12.2928932,17.2928932 C12.6117638,16.9740227 13.1046038,16.9080225 13.4961389,17.1317569 L19.832,20.752 L27.6144366,12.9709695 C26.2722389,7.81002428 21.5810589,4 16,4 Z M19,9 C20.1045695,9 21,9.8954305 21,11 C21,12.1045695 20.1045695,13 19,13 C17.8954305,13 17,12.1045695 17,11 C17,9.8954305 17.8954305,9 19,9 Z" id="&#24418;&#29366;" fill-rule="nonzero" />
    </g>
</svg>