<svg xmlns="http://www.w3.org/2000/svg" width="32px" height="32px" viewBox="0 0 32 32" version="1.1">
    <title>linear-ele-other-refrigerator</title>
    <g id="linear-ele-other-refrigerator" stroke-width="1" fill-rule="evenodd">
        <path d="M25,2 C25.5522847,2 26,2.44771525 26,3 L26,29 C26,29.5522847 25.5522847,30 25,30 L7,30 C6.44771525,30 6,29.5522847 6,29 L6,3 C6,2.44771525 6.44771525,2 7,2 L25,2 Z M24,16 L8,16 L8,28 L24,28 L24,16 Z M11,18 C11.5522847,18 12,18.4477153 12,19 L12,20 C12,20.5522847 11.5522847,21 11,21 C10.4477153,21 10,20.5522847 10,20 L10,19 C10,18.4477153 10.4477153,18 11,18 Z M24,4 L8,4 L8,14 L24,14 L24,4 Z M11,9 C11.5522847,9 12,9.44771525 12,10 L12,11 C12,11.5522847 11.5522847,12 11,12 C10.4477153,12 10,11.5522847 10,11 L10,10 C10,9.44771525 10.4477153,9 11,9 Z" id="&#24418;&#29366;" fill-rule="nonzero" />
    </g>
</svg>