<svg xmlns="http://www.w3.org/2000/svg" width="32px" height="32px" viewBox="0 0 32 32" version="1.1">
    <title>linear-ele-food-patato-strip</title>
    <g id="linear-ele-food-patato-strip" stroke-width="1" fill-rule="evenodd">
        <path d="M19,3 C20.0543618,3 20.9181651,3.81587779 20.9945143,4.85073766 L21,5 L23,5 C24.1045695,5 25,5.8954305 25,7 L24.9999299,13.0372197 C26.4316046,13.2644193 27.5260256,14.5044018 27.5260256,16 C27.5260256,16.2112895 27.5037041,16.4219879 27.4594328,16.6285873 L25.3165757,26.6285873 C25.020173,28.0117996 23.7977818,29 22.3831684,29 L9.61683158,29 C8.20221823,29 6.97982698,28.0117996 6.68342434,26.6285873 L4.5405672,16.6285873 C4.19340803,15.0085112 5.22531109,13.4137519 6.84538717,13.0665928 L6.99935371,13.038 L7,7 C7,5.8954305 7.8954305,5 9,5 L11,5 C12.0543618,5 12.9181651,5.81587779 12.9945143,6.85073766 L13,7 L15,7 L15,5 C15,3.8954305 15.8954305,3 17,3 L19,3 Z M24.0483537,23 L7.95035371,23 L8.63902917,26.2095291 C8.73783005,26.6705999 9.1452938,27 9.61683158,27 L22.3831684,27 C22.8547062,27 23.26217,26.6705999 23.3609708,26.2095291 L24.0483537,23 Z M11.580855,17.8939193 L10.34,15 L7.47397444,15 C7.43875952,15 7.40359386,15.0018601 7.36862363,15.0055649 L7.26444535,15.0221976 C6.72441999,15.1379173 6.3804523,15.6695037 6.49617202,16.2095291 L7.52235371,21 L24.4763537,21 L25.503828,16.2095291 C25.5185851,16.1406626 25.5260256,16.0704298 25.5260256,16 C25.5260256,15.4477153 25.0783103,15 24.5260256,15 L21.659,15 L20.419145,17.8939193 C20.2615662,18.2616031 19.9000281,18.5 19.5,18.5 L12.5,18.5 C12.0999719,18.5 11.7384338,18.2616031 11.580855,17.8939193 Z M19,5 L17,5 L16.9993537,16.5 L18.84,16.5 L18.9993537,16.127 L19,5 Z M15,9 L13,9 L12.9993537,16.129 L13.159,16.5 L14.9993537,16.5 L15,9 Z M23,7 L21,7 L21,13 L22.9993537,13 L23,7 Z M11,7 L9,7 L8.99935371,13 L11,13 L11,7 Z" id="&#24418;&#29366;" fill-rule="nonzero" />
    </g>
</svg>