<svg xmlns="http://www.w3.org/2000/svg" viewBox="0 0 32 32"><path fill="currentColor" fill-rule="nonzero" d="M19.536 12.464a5 5 0 0 1 0 7.072 1 1 0 0 1-1.415-1.415 3 3 0 0 0 0-4.242 1 1 0 0 1 1.415-1.415m7.07-7.07c5.858 5.857 5.858 15.355 0 21.213a1 1 0 1 1-1.414-1.415c5.077-5.076 5.077-13.308 0-18.384a1 1 0 0 1 1.415-1.415m-3.535 3.535c3.905 3.905 3.905 10.237 0 14.142a1 1 0 0 1-1.414-1.414 8 8 0 0 0 0-11.314A1 1 0 0 1 23.07 8.93M2 9h6l6.293-6.293A1 1 0 0 1 16 3.414v25.172a1 1 0 0 1-1.707.707L8 23H2a1 1 0 0 1-1-1V10a1 1 0 0 1 1-1"/></svg>