<svg xmlns="http://www.w3.org/2000/svg" viewBox="0 0 32 32"><path fill="currentColor" fill-rule="evenodd" d="M16 2c3.59 0 6.864 1.351 9.342 3.572a10.007 10.007 0 0 1-2.745 3.943l1.168 1.635a12.042 12.042 0 0 0 3.079-4.005A13.938 13.938 0 0 1 30 16c0 3.36-1.183 6.442-3.156 8.855a12.043 12.043 0 0 0-3.08-4.005l-1.167 1.635a10.02 10.02 0 0 1 2.745 3.941A13.946 13.946 0 0 1 16 30c-3.59 0-6.864-1.351-9.342-3.572a10.007 10.007 0 0 1 2.745-3.943L8.235 20.85a12.042 12.042 0 0 0-3.079 4.005A13.938 13.938 0 0 1 2 16c0-3.36 1.183-6.442 3.156-8.855a12.043 12.043 0 0 0 3.08 4.005l1.167-1.635a10.02 10.02 0 0 1-2.745-3.941A13.946 13.946 0 0 1 16 2m3.484 16.513-.421 1.965c.67.215 1.308.499 1.908.843l1.167-1.634a11.935 11.935 0 0 0-2.654-1.174m-6.968 0c-.938.285-1.829.681-2.654 1.174l1.167 1.634a9.946 9.946 0 0 1 1.908-.843zM16 18c-.518 0-1.028.033-1.528.096l.42 1.965a10.11 10.11 0 0 1 2.216 0l.42-1.965c-.5-.063-1.01-.096-1.528-.096m1.108-6.06a10.11 10.11 0 0 1-2.216 0l-.42 1.964a12.116 12.116 0 0 0 3.056 0zm-6.079-1.261-1.167 1.634c.825.493 1.716.89 2.654 1.174l.421-1.965a9.946 9.946 0 0 1-1.908-.843m9.942 0c-.6.344-1.239.628-1.908.843l.42 1.965c.94-.285 1.83-.681 2.655-1.174z"/></svg>