<svg xmlns="http://www.w3.org/2000/svg" viewBox="0 0 32 32"><path fill="currentColor" fill-rule="evenodd" d="M13.969 19.447c.318.187.664.332 1.03.427v10.09a13.94 13.94 0 0 1-8.166-3.382zm4.063 0 7.135 7.135A13.94 13.94 0 0 1 17 29.965V19.874c.367-.094.714-.24 1.032-.428M12.126 17c.094.367.24.714.428 1.032l-7.136 7.135A13.94 13.94 0 0 1 2.035 17zm17.839 0a13.94 13.94 0 0 1-3.383 8.167l-7.136-7.135c.188-.318.334-.665.428-1.032zM16 14a2 2 0 1 1 0 4 2 2 0 0 1 0-4M5.418 6.833l7.136 7.135a3.976 3.976 0 0 0-.428 1.031H2.036a13.94 13.94 0 0 1 3.382-8.166m21.164 0a13.94 13.94 0 0 1 3.383 8.166H19.874a3.976 3.976 0 0 0-.427-1.03zM14.999 2.035v10.091c-.367.095-.713.24-1.031.428L6.833 5.418a13.94 13.94 0 0 1 8.166-3.383m2 0a13.94 13.94 0 0 1 8.168 3.383l-7.135 7.136A3.976 3.976 0 0 0 17 12.126z"/></svg>