<svg xmlns="http://www.w3.org/2000/svg" viewBox="0 0 32 32"><path fill="currentColor" fill-rule="evenodd" d="M18 2v9a1 1 0 0 0 1 1h9v17a1 1 0 0 1-1 1H5a1 1 0 0 1-1-1V3a1 1 0 0 1 1-1zm-4.293 13.293a1 1 0 0 0-1.414 1.414L14.585 19l-2.292 2.293a1 1 0 0 0-.083 1.32l.083.094a1 1 0 0 0 1.414 0L16 20.415l2.293 2.292a1 1 0 0 0 1.32.083l.094-.083a1 1 0 0 0 0-1.414L17.415 19l2.292-2.293a1 1 0 0 0 .083-1.32l-.083-.094a1 1 0 0 0-1.414 0L16 17.585zM20.001 2.09a1 1 0 0 1 .292.203l7.414 7.414a1 1 0 0 1 .203.293H20z"/></svg>