<svg xmlns="http://www.w3.org/2000/svg" viewBox="0 0 32 32"><path fill="currentColor" fill-rule="evenodd" d="m23.5 17.289 5.062 2.922a1 1 0 0 1 .5.866v5.846a1 1 0 0 1-.5.866L23.5 30.71a1 1 0 0 1-1 0l-5.062-2.922a1 1 0 0 1-.5-.866v-5.846a1 1 0 0 1 .5-.866L22.5 17.29a1 1 0 0 1 1 0M16.611 1.472l10 7.728A1 1 0 0 1 27 9.99V17l-2.5-1.443a3 3 0 0 0-2.812-.1l-.188.1-5.062 2.922a3 3 0 0 0-1.5 2.598v5.846a3 3 0 0 0 1.5 2.598l.83.479H6a1 1 0 0 1-1-1V9.991a1 1 0 0 1 .389-.791l10-7.728a1 1 0 0 1 1.222 0M23 22a2 2 0 1 0 0 4 2 2 0 0 0 0-4M16 9a3 3 0 1 0 0 6 3 3 0 0 0 0-6"/></svg>