<svg xmlns="http://www.w3.org/2000/svg" viewBox="0 0 32 32"><path fill="currentColor" fill-rule="evenodd" d="M16 10c5.523 0 10 4.477 10 10s-4.477 10-10 10S6 25.523 6 20s4.477-10 10-10m0 5h-2a1 1 0 0 0-1 1l.007.117A1 1 0 0 0 14 17h1v6h-1a1 1 0 0 0-.993.883L13 24a1 1 0 0 0 1 1h4a1 1 0 0 0 0-2h-1v-7a1 1 0 0 0-.883-.993zM12 2v6.683a12.001 12.001 0 0 0-4.338 2.687l-1.88-8.145A1 1 0 0 1 6.758 2zm13.243 0a1 1 0 0 1 .974 1.225l-1.88 8.145a12.001 12.001 0 0 0-4.336-2.687L20 2zM18 2v6.166a12.081 12.081 0 0 0-4 0V2z"/></svg>