<svg xmlns="http://www.w3.org/2000/svg" viewBox="0 0 32 32"><path fill="currentColor" fill-rule="evenodd" d="M16 20.5c1.296 0 2.55.059 3.74.165C19.125 26.105 17.508 30 16 30c-1.507 0-3.124-3.895-3.741-9.334A41.765 41.765 0 0 1 16 20.5m-5.74.397c.402 3.652 1.257 6.732 2.453 8.715a14.027 14.027 0 0 1-9.001-6.899c1.371-.71 3.486-1.338 6.048-1.742zm11.48 0c2.787.398 5.088 1.06 6.548 1.816a14.025 14.025 0 0 1-9.002 6.9c1.136-1.882 1.964-4.752 2.39-8.161zM2.894 11.07c1.779.94 4.276 1.643 7.195 2.044a46.886 46.886 0 0 0 0 5.77c-2.919.401-5.416 1.103-7.195 2.044A13.961 13.961 0 0 1 2 16c0-1.672.293-3.275.83-4.761zm26.215 0A13.97 13.97 0 0 1 30 16a13.97 13.97 0 0 1-.892 4.929c-1.78-.94-4.277-1.643-7.196-2.044a46.886 46.886 0 0 0 0-5.77c2.86-.393 5.316-1.075 7.088-1.988zm-9.191 2.265a42.49 42.49 0 0 1 0 5.328A45.88 45.88 0 0 0 16 18.5a45.92 45.92 0 0 0-3.917.163 42.323 42.323 0 0 1 0-5.327A45.88 45.88 0 0 0 16 13.5c1.07 0 2.117-.035 3.129-.103zM16 2l.096.005c1.48.16 3.041 4.005 3.645 9.329a42.073 42.073 0 0 1-7.482 0C12.876 5.896 14.493 2 16 2m-3.287.388c-1.196 1.983-2.051 5.063-2.454 8.715-2.786-.398-5.087-1.06-6.547-1.816a14.03 14.03 0 0 1 8.581-6.791zm6.573 0a14.027 14.027 0 0 1 9.002 6.899c-1.46.756-3.761 1.418-6.547 1.817-.39-3.538-1.205-6.539-2.342-8.526z"/></svg>