<svg xmlns="http://www.w3.org/2000/svg" viewBox="0 0 32 32"><path fill="currentColor" fill-rule="evenodd" d="M13.595 29.152c-3.7.655-7.078-.008-8.909-1.838-1.83-1.83-2.493-5.21-1.838-8.909zm14.998-13.287a19.585 19.585 0 0 1-12.729 12.729L3.406 16.136a19.585 19.585 0 0 1 12.729-12.73zM20.95 11.05a1 1 0 0 0-1.414 0l-.708.707-1.414-1.414a1 1 0 0 0-1.327-.078l-.087.078a1 1 0 0 0 0 1.414l1.414 1.415L16 14.586l-1.414-1.414a1 1 0 0 0-1.327-.078l-.087.078a1 1 0 0 0 0 1.414L14.586 16l-1.414 1.414L11.757 16a1 1 0 0 0-1.327-.078l-.087.078a1 1 0 0 0 0 1.414l1.414 1.414-.707.708a1 1 0 0 0-.077 1.327l.077.087a1 1 0 0 0 1.414 0l.708-.707 1.414 1.414a1 1 0 0 0 1.327.078l.087-.078a1 1 0 0 0 0-1.414l-1.414-1.415L16 17.414l1.414 1.414a1 1 0 0 0 1.327.078l.087-.078a1 1 0 0 0 0-1.414L17.414 16l1.414-1.414L20.243 16a1 1 0 0 0 1.327.078l.087-.078a1 1 0 0 0 0-1.414l-1.414-1.414.707-.708a1 1 0 0 0 .077-1.327zm6.364-6.364c1.83 1.831 2.493 5.21 1.838 8.91L18.404 2.848c3.7-.655 7.079.007 8.91 1.838"/></svg>