<svg xmlns="http://www.w3.org/2000/svg" viewBox="0 0 32 32"><path fill="currentColor" fill-rule="evenodd" d="m26.2 23-.878 4.392A2 2 0 0 1 23.36 29H9.087a2 2 0 0 1-1.948-1.546L6.1 23zm-14.92-9a1 1 0 0 1 .948.684l.544 1.632a1 1 0 0 0 .949.684h4.558a1 1 0 0 0 .949-.684l.544-1.632a1 1 0 0 1 .949-.684h4.84a2 2 0 0 1 1.96 2.392L26.6 21H5.632l-1.06-4.546a2 2 0 0 1-.046-.301L4.52 16a2 2 0 0 1 2-2zM14 7a1 1 0 0 1 1 1v6.987a1 1 0 0 1-.787-.67l-.544-1.633a1 1 0 0 0-.948-.684H12V8a1 1 0 0 1 1-1zm5-4a1 1 0 0 1 1 1v8h-.72a1 1 0 0 0-.906.576l-.044.108-.544 1.632a1 1 0 0 1-.785.67L17 4a1 1 0 0 1 1-1zm5 2a1 1 0 0 1 1 1v6h-3V6a1 1 0 0 1 1-1zM9 5a1 1 0 0 1 1 1v6H7V6a1 1 0 0 1 1-1z"/></svg>