<svg xmlns="http://www.w3.org/2000/svg" viewBox="0 0 32 32"><path fill="currentColor" fill-rule="evenodd" d="M15 2c7.18 0 13 5.82 13 13 0 3.23-1.178 6.184-3.127 8.458l4.834 4.835a1 1 0 0 1-1.414 1.414l-4.835-4.834A12.949 12.949 0 0 1 15 28C7.82 28 2 22.18 2 15S7.82 2 15 2m-3.707 9.293a1 1 0 0 0 0 1.414L13.585 15l-2.292 2.293a1 1 0 0 0-.083 1.32l.083.094a1 1 0 0 0 1.414 0L15 16.415l2.293 2.292a1 1 0 0 0 1.32.083l.094-.083a1 1 0 0 0 0-1.414L16.415 15l2.292-2.293a1 1 0 0 0 .083-1.32l-.083-.094a1 1 0 0 0-1.414 0L15 13.585l-2.293-2.292a1 1 0 0 0-1.414 0"/></svg>