<svg xmlns="http://www.w3.org/2000/svg" viewBox="0 0 32 32"><path fill="currentColor" fill-rule="evenodd" d="M28 25v4a1 1 0 0 1-1 1H5a1 1 0 0 1-1-1v-4zm1-15a1 1 0 0 1 1 1v11a1 1 0 0 1-1 1H3a1 1 0 0 1-1-1V11a1 1 0 0 1 1-1zm-18.6 2.5H5.5v8h2V18h.881l1.25 2.5h2.237l-1.26-2.52a1.1 1.1 0 0 0 .892-1.08v-3.3a1.1 1.1 0 0 0-1.1-1.1m15 0h-4.9v8h2V18h.881l1.25 2.5h2.237l-1.26-2.52a1.1 1.1 0 0 0 .892-1.08v-3.3a1.1 1.1 0 0 0-1.1-1.1m-8.224 0h-2.353l-2.223 8h2.076l.278-1h2.091l.278 1h2.076zM16 15.736l.489 1.764h-.98zM9.5 14.5V16h-2v-1.5zm15 0V16h-2v-1.5zM20.086 2a1 1 0 0 1 .707.293L26.5 8H4V3a1 1 0 0 1 .883-.993L5 2z"/></svg>