<svg xmlns="http://www.w3.org/2000/svg" viewBox="0 0 32 32"><path fill="currentColor" fill-rule="nonzero" d="M25 15a1 1 0 0 1 1 1c0 5.185-3.946 9.448-8.999 9.95L17 28h2a1 1 0 0 1 0 2h-6a1 1 0 0 1 0-2h2v-2.05a9.946 9.946 0 0 1-4.861-1.847l1.438-1.436A8 8 0 0 0 24 16a1 1 0 0 1 1-1M16 2a6.002 6.002 0 0 1 5.863 4.721l3.43-3.428a1 1 0 0 1 1.414 1.414l-22 22a1 1 0 1 1-1.414-1.414l4.137-4.137A9.953 9.953 0 0 1 6 16a1 1 0 0 1 2 0c0 1.33.324 2.583.898 3.686l1.51-1.508A5.985 5.985 0 0 1 10 16V8a6 6 0 0 1 6-6m6 10.242V16a6 6 0 0 1-8.97 5.214z"/></svg>