<svg xmlns="http://www.w3.org/2000/svg" viewBox="0 0 32 32"><path fill="currentColor" fill-rule="evenodd" d="M21 25.8V29a1 1 0 0 1-1 1h-8a1 1 0 0 1-1-1l-.001-3.2c1.5.767 3.2 1.2 5.001 1.2 1.8 0 3.5-.433 5-1.2M16 7a9 9 0 1 1 0 18 9 9 0 0 1 0-18m0 13a1 1 0 1 0 0 2 1 1 0 0 0 0-2m2.828-1.172a1 1 0 1 0 1.415 1.415 1 1 0 0 0-1.415-1.415m-7.07 0a1 1 0 1 0 1.414 1.415 1 1 0 0 0-1.415-1.415M21 15a1 1 0 1 0 0 2 1 1 0 0 0 0-2m-10 0a1 1 0 1 0 0 2 1 1 0 0 0 0-2m7.828-3.243a1 1 0 1 0 1.415 1.415 1 1 0 0 0-1.415-1.415m-7.07 0a1 1 0 1 0 1.414 1.415 1 1 0 0 0-1.415-1.415M16 10a1 1 0 1 0 0 2 1 1 0 0 0 0-2m4-8a1 1 0 0 1 1 1v3.2C19.5 5.433 17.8 5 16 5c-1.8 0-3.5.433-5.001 1.2L11 3a1 1 0 0 1 1-1z"/></svg>