<svg xmlns="http://www.w3.org/2000/svg" viewBox="0 0 32 32"><path fill="currentColor" fill-rule="evenodd" d="M19.885 2.026c2.4.666 4.55 1.933 6.276 3.63l-.2 4.594 4.083 2.126c.298 1.159.456 2.373.456 3.624s-.158 2.465-.456 3.624L25.96 21.75l.2 4.595a14.485 14.485 0 0 1-6.276 3.629L16 27.501l-3.884 2.473a14.485 14.485 0 0 1-6.276-3.629l.2-4.595-4.084-2.126A14.526 14.526 0 0 1 1.5 16c0-1.251.158-2.465.456-3.624L6.04 10.25l-.2-4.595a14.485 14.485 0 0 1 6.276-3.629L16 4.499zM16 10.5a5.5 5.5 0 1 0 0 11 5.5 5.5 0 0 0 0-11"/></svg>