<svg xmlns="http://www.w3.org/2000/svg" viewBox="0 0 32 32"><path fill="currentColor" fill-rule="evenodd" d="M28 25v4a1 1 0 0 1-1 1H5a1 1 0 0 1-1-1v-4zm1-15a1 1 0 0 1 1 1v11a1 1 0 0 1-1 1H3a1 1 0 0 1-1-1V11a1 1 0 0 1 1-1zm-18.6 2.5H5.5v8h4.9a1.1 1.1 0 0 0 1.1-1.1v-5.8a1.1 1.1 0 0 0-1.1-1.1m15 0h-4.9v8h2v-2h2.9a1.1 1.1 0 0 0 1.1-1.1v-3.8a1.1 1.1 0 0 0-1.1-1.1m-8.129 0L16 14.279l-1.272-1.78-2.228.001v8h2v-4.88l1.5 2.1 1.5-2.101V20.5h2v-8zm-7.771 5v1h-2v-1zm15-3v2h-2v-2zm-15 0v1h-2v-1zM20.086 2a1 1 0 0 1 .707.293L26.5 8H4V3a1 1 0 0 1 .883-.993L5 2z"/></svg>