<svg xmlns="http://www.w3.org/2000/svg" viewBox="0 0 32 32"><path fill="currentColor" fill-rule="evenodd" d="M15.38 2.491a1 1 0 0 1 1.24 0l11 8.709a1 1 0 0 1 .38.784V29a1 1 0 0 1-1 1H5a1 1 0 0 1-1-1V11.984a1 1 0 0 1 .38-.784zM19.6 11.2a1 1 0 0 0-1.4.2L16 14.333 13.8 11.4a1 1 0 0 0-1.6 1.2l2.55 3.4H12a1 1 0 0 0-.993.883L11 17a1 1 0 0 0 1 1h3v2h-3a1 1 0 0 0-.993.883L11 21a1 1 0 0 0 1 1h3v2a1 1 0 0 0 .883.993L16 25a1 1 0 0 0 1-1v-2h3a1 1 0 0 0 .993-.883L21 21a1 1 0 0 0-1-1h-3v-2h3a1 1 0 0 0 .993-.883L21 17a1 1 0 0 0-1-1h-2.75l2.55-3.4a1 1 0 0 0-.104-1.319z"/></svg>