<svg xmlns="http://www.w3.org/2000/svg" viewBox="0 0 32 32"><path fill="currentColor" fill-rule="evenodd" d="m20.192 21.606 4.975 4.976A13.946 13.946 0 0 1 16 30a13.946 13.946 0 0 1-9.167-3.418l4.975-4.975A6.969 6.969 0 0 0 16 23a6.969 6.969 0 0 0 4.192-1.394M5.418 6.833l4.975 4.975A6.969 6.969 0 0 0 9 16c0 1.572.518 3.024 1.394 4.192l-4.976 4.975A13.946 13.946 0 0 1 2 16c0-3.506 1.289-6.711 3.418-9.167m21.164 0A13.946 13.946 0 0 1 30 16c0 3.506-1.289 6.711-3.418 9.167l-4.976-4.975A6.969 6.969 0 0 0 23 16a6.969 6.969 0 0 0-1.393-4.192zM16 2c3.506 0 6.711 1.289 9.167 3.418l-4.975 4.976A6.969 6.969 0 0 0 16 9a6.969 6.969 0 0 0-4.192 1.393L6.833 5.418A13.946 13.946 0 0 1 16 2"/></svg>