<svg xmlns="http://www.w3.org/2000/svg" viewBox="0 0 32 32"><path fill="currentColor" fill-rule="nonzero" d="M22 1a1 1 0 0 1 .894 1.447l-3 6A1 1 0 0 1 19 9h-8a1 1 0 0 1-.894-.553l-3-6A1 1 0 0 1 8 1zm-1.619 2H9.618l2 4h6.763zM19 11a1 1 0 0 1 .982.811l2.5 13a1 1 0 0 1-.336.952l-6.5 5.5a1 1 0 0 1-1.292 0l-6.5-5.5a1 1 0 0 1-.336-.952l2.5-13A1 1 0 0 1 11 11zm-.827 2h-6.347L9.592 24.614l5.407 4.576 5.408-4.576zm4.026-.253 5.566 6.609a1 1 0 0 1-.058 1.351l-3.336 3.336-.456-2.373 1.728-1.729-2.67-3.171z"/></svg>