<svg xmlns="http://www.w3.org/2000/svg" viewBox="0 0 32 32"><path fill="currentColor" fill-rule="nonzero" d="M14 18a1 1 0 0 1 0 2H9a3 3 0 0 0-3 3v5a1 1 0 0 1-2 0v-5a5 5 0 0 1 5-5zm9.895-1.447 1.543 3.09 3.417.514a1 1 0 0 1 .63 1.616l-.077.086-2.463 2.422.568 3.409a1 1 0 0 1-1.347 1.097l-.1-.046-3.067-1.593-3.065 1.593a1 1 0 0 1-1.46-.942l.013-.11.567-3.408-2.462-2.422a1 1 0 0 1 .44-1.679l.113-.023 3.416-.514 1.544-3.09a1 1 0 0 1 1.79 0M23 19.237l-.881 1.765a1 1 0 0 1-.746.542l-1.952.293 1.407 1.384a1 1 0 0 1 .297.756l-.012.121-.325 1.945 1.75-.909a1 1 0 0 1 .812-.05l.111.05 1.75.909-.324-1.945a1 1 0 0 1 .204-.787l.081-.09 1.406-1.384-1.95-.293a1 1 0 0 1-.686-.437l-.06-.105zM16 2a7 7 0 1 1 0 14 7 7 0 0 1 0-14m0 2a5 5 0 1 0 0 10 5 5 0 0 0 0-10"/></svg>