<svg xmlns="http://www.w3.org/2000/svg" viewBox="0 0 32 32"><path fill="currentColor" fill-rule="nonzero" d="M16 3c7.715 0 14 5.802 14 13s-6.285 13-14 13c-2.285 0-4.492-.51-6.47-1.468l-.384-.194-4.83 1.61a1 1 0 0 1-1.285-1.197l.033-.102 1.538-4.1-.089-.114c-1.549-2.06-2.43-4.5-2.507-7.067L2 16C2 8.802 8.285 3 16 3m0 2C9.355 5 4 9.944 4 16c0 2.467.888 4.81 2.503 6.723a1 1 0 0 1 .172.996l-1.002 2.669 3.253-1.084a1 1 0 0 1 .698.025l.108.053A12.756 12.756 0 0 0 16 27c6.645 0 12-4.944 12-11S22.645 5 16 5"/></svg>