<svg xmlns="http://www.w3.org/2000/svg" viewBox="0 0 32 32"><path fill="currentColor" fill-rule="nonzero" d="M19 3a2 2 0 0 1 1.995 1.85L21 5h2a2 2 0 0 1 2 2v6.037a3 3 0 0 1 2.46 3.592l-2.143 10A3 3 0 0 1 22.383 29H9.617a3 3 0 0 1-2.934-2.371l-2.142-10a3 3 0 0 1 2.304-3.562L7 13.038 7 7a2 2 0 0 1 2-2h2a2 2 0 0 1 1.995 1.85L13 7h2V5a2 2 0 0 1 2-2zm5.048 20H7.95l.689 3.21a1 1 0 0 0 .978.79h12.766a1 1 0 0 0 .978-.79zm-12.467-5.106L10.34 15H7.474a1 1 0 0 0-.105.006l-.105.016a1 1 0 0 0-.768 1.188L7.522 21h16.954l1.028-4.79a1 1 0 0 0-.978-1.21h-2.867l-1.24 2.894a1 1 0 0 1-.919.606h-7a1 1 0 0 1-.92-.606M19 5h-2v11.5h1.84l.16-.373zm-4 4h-2v7.129l.159.371h1.84zm8-2h-2v6h2zM11 7H9v6h2z"/></svg>