<svg xmlns="http://www.w3.org/2000/svg" viewBox="0 0 32 32"><path fill="currentColor" fill-rule="nonzero" d="M16 5c6.382 0 11.689 3.538 15.857 10.486a1 1 0 0 1 0 1.028C27.69 23.462 22.382 27 16 27S4.311 23.462.143 16.514a1 1 0 0 1 0-1.028C4.31 8.538 9.618 5 16 5m0 2c-5.389 0-9.926 2.879-13.669 8.749L2.173 16l.158.251c3.663 5.745 8.088 8.625 13.326 8.745L16 25c5.389 0 9.926-2.879 13.669-8.749l.157-.251-.157-.251c-3.663-5.745-8.088-8.625-13.326-8.745zm0 2a7 7 0 1 1 0 14 7 7 0 0 1 0-14m0 2a5 5 0 1 0 0 10 5 5 0 0 0 0-10"/></svg>