<svg xmlns="http://www.w3.org/2000/svg" viewBox="0 0 32 32"><path fill="currentColor" fill-rule="nonzero" d="M19.747 1.989a14.485 14.485 0 0 1 6.511 3.763 1 1 0 0 1 .153 1.217A2.998 2.998 0 0 0 29.03 11.5a1 1 0 0 1 .977.741c.326 1.216.493 2.477.493 3.759s-.167 2.542-.492 3.759a1 1 0 0 1-.978.741 2.997 2.997 0 0 0-2.638 1.5 2.998 2.998 0 0 0 .018 3.032 1 1 0 0 1-.153 1.216 14.477 14.477 0 0 1-6.51 3.763 1 1 0 0 1-1.13-.477 2.998 2.998 0 0 0-5.235 0 1 1 0 0 1-1.13.476 14.473 14.473 0 0 1-6.51-3.761 1 1 0 0 1-.152-1.216c.549-.928.566-2.083.018-3.033a2.998 2.998 0 0 0-2.638-1.5 1 1 0 0 1-.977-.741A14.493 14.493 0 0 1 1.5 16c0-1.281.166-2.542.492-3.758a1 1 0 0 1 .977-.741 3 3 0 0 0 2.62-4.533 1 1 0 0 1 .154-1.216 14.476 14.476 0 0 1 6.51-3.763 1 1 0 0 1 1.13.477A2.996 2.996 0 0 0 16 4a2.989 2.989 0 0 0 2.58-1.466l.034-.063a1 1 0 0 1 1.133-.482m.157 2.133-.116.142A4.994 4.994 0 0 1 16 6a4.991 4.991 0 0 1-3.836-1.793l-.067-.085-.117.038a12.476 12.476 0 0 0-4.223 2.443l-.09.081.054.14a4.994 4.994 0 0 1-.263 3.958L7.34 11a4.995 4.995 0 0 1-3.47 2.426l-.106.015-.047.225c-.115.611-.185 1.232-.208 1.861L3.5 16c0 .79.073 1.571.218 2.334l.046.223.105.017a4.994 4.994 0 0 1 3.347 2.223L7.34 21a4.994 4.994 0 0 1 .38 4.176l-.054.14.09.081a12.473 12.473 0 0 0 4.224 2.442l.116.037.068-.084a4.994 4.994 0 0 1 3.599-1.786L16 26c1.51 0 2.903.676 3.836 1.793l.066.084.117-.037a12.477 12.477 0 0 0 4.224-2.443l.089-.083-.053-.138a4.994 4.994 0 0 1 .263-3.958L24.66 21a4.993 4.993 0 0 1 3.471-2.426l.104-.016.048-.224c.115-.61.185-1.232.208-1.861L28.5 16c0-.79-.073-1.57-.218-2.334l-.047-.225-.104-.015a4.994 4.994 0 0 1-3.347-2.223L24.66 11a4.991 4.991 0 0 1-.38-4.176l.053-.139-.089-.081A12.485 12.485 0 0 0 20.02 4.16zM16 10a6 6 0 1 1 0 12 6 6 0 0 1 0-12m0 2a4 4 0 1 0 0 8 4 4 0 0 0 0-8"/></svg>