<svg xmlns="http://www.w3.org/2000/svg" viewBox="0 0 32 32"><path fill="currentColor" fill-rule="nonzero" d="M28 13a1 1 0 0 1 1 1 12.99 12.99 0 0 1-5.999 10.955L23 27a2 2 0 0 1-2 2H11a2 2 0 0 1-2-2v-2.044A12.99 12.99 0 0 1 3 14a1 1 0 0 1 1-1zm-7 12H11v2h10zm5.954-10H5.045l.032.308a10.99 10.99 0 0 0 4.597 7.693h12.652a10.99 10.99 0 0 0 4.597-7.693zM21.707 3.293a1 1 0 0 1 0 1.414L15.414 11h-2.829l7.708-7.707a1 1 0 0 1 1.414 0m5.15 3.193a1 1 0 0 1-.343 1.371L21.276 11h-3.888l8.098-4.857a1 1 0 0 1 1.371.343"/></svg>