<svg xmlns="http://www.w3.org/2000/svg" viewBox="0 0 32 32"><path fill="currentColor" fill-rule="nonzero" d="M23 17a7 7 0 1 1 0 14 7 7 0 0 1 0-14m4-15a1 1 0 0 1 1 1l.001 13.516a8.968 8.968 0 0 0-2-1.004L26 4H6v24l8.936.001c.362.728.82 1.4 1.356 2L5 30a1 1 0 0 1-1-1V3a1 1 0 0 1 1-1zm-4 17a5 5 0 1 0 0 10 5 5 0 0 0 0-10m3.207 3.043a1 1 0 0 1 0 1.414l-3 3a1 1 0 0 1-1.414 0l-2-2a1 1 0 0 1 1.414-1.414l1.293 1.292 2.293-2.292a1 1 0 0 1 1.414 0M15 14a1 1 0 0 1 0 2h-4a1 1 0 0 1 0-2zm6-6a1 1 0 0 1 0 2H11a1 1 0 0 1 0-2z"/></svg>