<svg xmlns="http://www.w3.org/2000/svg" viewBox="0 0 32 32"><path fill="currentColor" fill-rule="nonzero" d="M16 2c7.732 0 14 6.268 14 14s-6.268 14-14 14S2 23.732 2 16 8.268 2 16 2m-.882 2.031-.027.003C9.179 4.477 4.46 9.204 4.03 15.12A9.945 9.945 0 0 1 7.5 14.5c5.523 0 10 4.477 10 10 0 1.2-.212 2.37-.618 3.47 5.924-.431 10.657-5.164 11.086-11.09a9.944 9.944 0 0 1-3.468.62c-5.523 0-10-4.477-10-10 0-1.2.212-2.37.618-3.469M7.5 16.5a7.965 7.965 0 0 0-3.433.772c.592 5.612 5.05 10.07 10.66 10.661A8 8 0 0 0 7.5 16.5m9.773-12.433-.082.174A8 8 0 0 0 24.5 15.5a7.965 7.965 0 0 0 3.433-.772c-.592-5.612-5.05-10.07-10.66-10.661"/></svg>