<svg xmlns="http://www.w3.org/2000/svg" viewBox="0 0 32 32"><path fill="currentColor" fill-rule="nonzero" d="M16 2c7.732 0 14 6.268 14 14s-6.268 14-14 14S2 23.732 2 16 8.268 2 16 2m0 2c-3.27 0-6.233 1.307-8.398 3.428a9.974 9.974 0 0 0 1.8 2.087L8.236 11.15A12.07 12.07 0 0 1 6.252 9 11.946 11.946 0 0 0 4 16c0 2.613.835 5.031 2.253 7.002a11.962 11.962 0 0 1 1.982-2.152l1.168 1.635c-.692.608-1.3 1.31-1.802 2.086A11.962 11.962 0 0 0 16 28c3.27 0 6.233-1.307 8.398-3.428a9.973 9.973 0 0 0-1.8-2.087l1.167-1.635A12.07 12.07 0 0 1 25.748 23 11.946 11.946 0 0 0 28 16c0-2.613-.835-5.031-2.253-7.002a11.962 11.962 0 0 1-1.982 2.152l-1.168-1.635A10.052 10.052 0 0 0 24.4 7.43 11.961 11.961 0 0 0 16 4m3.484 14.513c.938.285 1.829.681 2.654 1.174l-1.167 1.634a9.946 9.946 0 0 0-1.908-.843zm-6.968 0 .421 1.965c-.67.215-1.308.499-1.908.843l-1.167-1.634a11.935 11.935 0 0 1 2.654-1.174M16 18c.518 0 1.028.033 1.528.096l-.42 1.965a10.11 10.11 0 0 0-2.216 0l-.42-1.965c.5-.063 1.01-.096 1.528-.096m1.108-6.06.42 1.964a12.116 12.116 0 0 1-3.056 0l.42-1.965a10.11 10.11 0 0 0 2.216 0m-6.079-1.261c.6.344 1.239.628 1.908.843l-.42 1.965a11.935 11.935 0 0 1-2.655-1.174zm9.942 0 1.167 1.634c-.825.493-1.716.89-2.654 1.174l-.421-1.965c.67-.215 1.308-.499 1.908-.843"/></svg>