<svg xmlns="http://www.w3.org/2000/svg" viewBox="0 0 32 32"><path fill="currentColor" fill-rule="nonzero" d="M20 2a1 1 0 0 1 .707.293L27.415 9H29a1 1 0 0 1 1 1v13a1 1 0 0 1-1 1h-1v5a1 1 0 0 1-1 1H5a1 1 0 0 1-1-1v-5H3a1 1 0 0 1-1-1V10a1 1 0 0 1 1-1h1V3a1 1 0 0 1 1-1zm6 22H6v4h20zm2-13H4v11h24zm-17.6 1.5a1.1 1.1 0 0 1 1.1 1.1v3.8a1.1 1.1 0 0 1-1.1 1.1H7.5v2h-2v-8zm15.6 0v2h-3.5v4h2v-1h-1v-2h3v5h-6v-8zm-10.882 0L17 16.264V12.5h2v8h-2.118L15 16.736V20.5h-2v-8zm-5.618 2h-2v2h2zM19.585 4H6v5h18.585z"/></svg>