<svg xmlns="http://www.w3.org/2000/svg" viewBox="0 0 32 32"><path fill="currentColor" fill-rule="nonzero" d="M20 2a1 1 0 0 1 .707.293L27.415 9H29a1 1 0 0 1 1 1v13a1 1 0 0 1-1 1h-1v5a1 1 0 0 1-1 1H5a1 1 0 0 1-1-1v-5H3a1 1 0 0 1-1-1V10a1 1 0 0 1 1-1h1V3a1 1 0 0 1 1-1zm6 22H6v4h20zm2-13H4v11h24zm-17.6 1.5a1.1 1.1 0 0 1 1.1 1.1v3.3a1.1 1.1 0 0 1-.892 1.08l1.26 2.52H9.631L8.381 18H7.5v2.5h-2v-8zm6.776 0 2.223 8h-2.076l-.278-1h-2.091l-.278 1H12.6l2.223-8zm8.224 0a1.1 1.1 0 0 1 1.1 1.1v3.3a1.1 1.1 0 0 1-.892 1.08l1.26 2.52h-2.237l-1.25-2.5H22.5v2.5h-2v-8zM16 15.736l-.491 1.764h.98zM9.5 14.5h-2V16h2zm15 0h-2V16h2zM19.585 4H6v5h18.585z"/></svg>