<svg xmlns="http://www.w3.org/2000/svg" viewBox="0 0 32 32"><path fill="currentColor" fill-rule="nonzero" d="M18.746 27v2h-4v-2zm-5.5 0v2h-4v-2zm10.954-.007.13 1.996a5.09 5.09 0 0 1-.31.011h-3.774v-2h3.769c.062 0 .123-.002.185-.007M5.36 25.43a3 3 0 0 0 2.448 1.565l-.125 1.996a5 5 0 0 1-4.08-2.606zm21.626-1.145 1.991.186a5.002 5.002 0 0 1-2.731 3.998l-.9-1.787a3.002 3.002 0 0 0 1.64-2.397M5 20.369v3.652c0 .093.006.186.015.278l-1.99.196A5.077 5.077 0 0 1 3 24.028v-3.66zm24-1.492v4h-2v-4zM5 14.87v4H3v-4zm24-1.492v4h-2v-4zM5 9.37v4H3v-4zm23.997-1.534L29 7.99v3.887h-2V7.934l-.002-.034zM5.482 3.679l1.009 1.728A2.998 2.998 0 0 0 5 7.9l-1.998-.064a4.998 4.998 0 0 1 2.48-4.158m19.14-.64a5.003 5.003 0 0 1 3.913 2.852l-1.813.845a3.004 3.004 0 0 0-2.346-1.713zM7.955 3l.018 2c-.124.001-.247.01-.369.026l-.261-1.983c.202-.027.406-.04.612-.043M12 3v2H8V3zm5.5 0v2h-4V3zM23 3v2h-4V3z"/></svg>