<svg xmlns="http://www.w3.org/2000/svg" viewBox="0 0 32 32"><path fill="currentColor" fill-rule="nonzero" d="M19 2a1 1 0 0 1 0 2h-2l.001 2.1a5 5 0 0 1 3 1.9 5 5 0 1 1 4.57 7.968 5 5 0 0 1-4 7 5 5 0 1 1-9.139-.001 4.999 4.999 0 0 1-4.001-7A4.999 4.999 0 0 1 8 6c1.636 0 3.088.785 4 2a4.999 4.999 0 0 1 3-1.9V4h-2a1 1 0 0 1 0-2zm-3 20a3 3 0 1 0 0 6 3 3 0 0 0 0-6m-4-7a3 3 0 1 0 0 6 3 3 0 0 0 0-6m8 0a3 3 0 1 0 0 6 3 3 0 0 0 0-6M8 8a3 3 0 1 0 0 6 3 3 0 0 0 0-6m8 0a3 3 0 1 0 0 6 3 3 0 0 0 0-6m8 0a3 3 0 1 0 0 6 3 3 0 0 0 0-6"/></svg>