<svg xmlns="http://www.w3.org/2000/svg" viewBox="0 0 32 32"><path fill="currentColor" fill-rule="evenodd" d="M10 27a1 1 0 1 0 0-2 1 1 0 0 0 0 2m6 0a1 1 0 1 0 0-2 1 1 0 0 0 0 2m6 0a1 1 0 1 0 0-2 1 1 0 0 0 0 2m-3 3a1 1 0 1 0 0-2 1 1 0 0 0 0 2m-6 0a1 1 0 1 0 0-2 1 1 0 0 0 0 2m3-28a8.005 8.005 0 0 1 7.715 5.874l.059.234.186.034a7.503 7.503 0 0 1 6.036 7.112L30 15.5a7.5 7.5 0 0 1-7.5 7.5h-13A7.5 7.5 0 0 1 8.041 8.142l.184-.034.06-.233a8.004 8.004 0 0 1 7.455-5.87zm0 2a6 6 0 0 0-5.94 5.153l-.113.806-.812.053A5.5 5.5 0 0 0 9.5 21h13a5.5 5.5 0 0 0 .366-10.988l-.812-.053-.113-.805A6.001 6.001 0 0 0 16 4"/></svg>