<svg xmlns="http://www.w3.org/2000/svg" viewBox="0 0 32 32"><path fill="currentColor" fill-rule="nonzero" d="M16 2c6.075 0 11 4.925 11 11 0 5.277-4.263 11.769-10.028 16.5l-.972.78-.625-.5C9.435 25.03 5 18.384 5 13 5 6.925 9.925 2 16 2M5.43 21.277c.395.72.833 1.436 1.311 2.147L4.962 28h5.497c.659.685 1.353 1.354 2.078 2H2.038zm21.14 0L29.962 30H19.463a37.955 37.955 0 0 0 2.078-2h5.496l-1.779-4.575c.479-.711.917-1.429 1.312-2.148M16 4a9 9 0 0 0-9 9c0 4.357 3.614 10.044 8.608 14.372l.392.333.057-.046c5.055-4.266 8.778-9.952 8.938-14.367L25 13a9 9 0 0 0-9-9m0 4a5 5 0 1 1 0 10 5 5 0 0 1 0-10m0 2a3 3 0 1 0 0 6 3 3 0 0 0 0-6"/></svg>