<svg xmlns="http://www.w3.org/2000/svg" viewBox="0 0 32 32"><path fill="currentColor" fill-rule="nonzero" d="M16 2c7.732 0 14 6.268 14 14s-6.268 14-14 14S2 23.732 2 16 8.268 2 16 2m0 18.5c-1.261 0-2.488.072-3.646.207C13.024 25.009 14.54 28 16 28s2.976-2.991 3.646-7.293A31.633 31.633 0 0 0 16 20.5m-5.633.51-.218.043c-1.696.343-3.16.83-4.255 1.42a12.03 12.03 0 0 0 6.554 4.993c-.904-1.498-1.594-3.575-2.007-5.997zm11.267 0-.042.261c-.409 2.507-1.111 4.656-2.04 6.195a12.029 12.029 0 0 0 6.554-4.992c-1.14-.616-2.683-1.12-4.472-1.463m5.408-9.717-.03.016c-1.362.725-3.13 1.295-5.14 1.671.084.973.128 1.984.128 3.02s-.044 2.047-.129 3.02c2.026.38 3.804.955 5.17 1.687.617-1.444.959-3.036.959-4.707 0-1.67-.341-3.262-.958-4.707m-22.083 0-.044.102A11.964 11.964 0 0 0 4 16c0 1.67.341 3.262.958 4.707 1.368-.733 3.146-1.308 5.17-1.687A34.78 34.78 0 0 1 10 16c0-1.036.044-2.047.129-3.02-2.025-.38-3.804-.955-5.17-1.687m14.925 1.986-.232.027A33.892 33.892 0 0 1 16 13.5c-1.338 0-2.644-.076-3.885-.22a32.165 32.165 0 0 0 0 5.442A33.413 33.413 0 0 1 16 18.5c1.339 0 2.644.076 3.885.22a32.044 32.044 0 0 0 .05-4.779zM16 4c-1.459 0-2.976 2.991-3.646 7.293 1.159.135 2.385.207 3.646.207 1.261 0 2.488-.072 3.646-.207l-.11-.652c-.698-3.85-2.08-6.505-3.432-6.636zm-3.551.534-.242.078a12.033 12.033 0 0 0-6.313 4.914c1.142.617 2.684 1.12 4.473 1.464.402-2.62 1.12-4.864 2.082-6.456m7.103 0 .009.015c.956 1.591 1.671 3.83 2.072 6.44 1.788-.343 3.33-.846 4.473-1.462a12.026 12.026 0 0 0-6.554-4.993"/></svg>