<svg xmlns="http://www.w3.org/2000/svg" viewBox="0 0 32 32"><path fill="currentColor" fill-rule="nonzero" d="M9.495 6.125c2.854-1.75 5.813-2.302 8.875-1.657 3.063.646 5.542 2.335 7.438 5.063l.563.97v.03a.617.617 0 0 1 .016.454.852.852 0 0 1-.266.39l-11 7.125a.685.685 0 0 1-.5.11.626.626 0 0 1-.406-.267l-.563-.875c-.25-.416-.328-.843-.234-1.28.094-.437.34-.792.734-1.063l7.031-4.594a.602.602 0 0 0 .297-.407.684.684 0 0 0-.109-.5.295.295 0 0 0-.125-.155C19.81 8.323 18.2 7.698 16.418 7.594c-1.78-.105-3.453.343-5.016 1.343-1.958 1.354-3.172 3.126-3.64 5.314-.47 2.188-.079 4.292 1.171 6.313 1.334 1.936 3.09 3.14 5.266 3.608 2.178.47 4.277.078 6.297-1.172.417-.25.844-.323 1.281-.218.438.104.792.354 1.063.75l.563.813c.084.167.11.328.078.483a.67.67 0 0 1-.234.392 4.77 4.77 0 0 1-.906.656c-2.854 1.75-5.812 2.301-8.875 1.656-3.062-.646-5.542-2.344-7.438-5.094-1.75-2.854-2.297-5.812-1.64-8.875.655-3.064 2.358-5.542 5.108-7.438zm16.438 9.532a.778.778 0 0 1 .5-.079c.167.032.302.12.406.267l.72 1.094c.291.479.385.974.28 1.483-.104.51-.386.933-.844 1.267l-1.125.718a.549.549 0 0 1-.469.095.835.835 0 0 1-.438-.281L23.525 18a.63.63 0 0 1-.094-.5.69.69 0 0 1 .281-.405z"/></svg>