<svg xmlns="http://www.w3.org/2000/svg" viewBox="0 0 32 32"><path fill="currentColor" fill-rule="evenodd" d="M23 17a4 4 0 0 1 4 4v1h1a1 1 0 0 1 1 1v6a1 1 0 0 1-1 1H18a1 1 0 0 1-1-1v-6a1 1 0 0 1 1-1h1v-1a4 4 0 0 1 4-4m4-15a1 1 0 0 1 1 1l.002 14.685A5.994 5.994 0 0 0 23 15l-.225.004a6.002 6.002 0 0 0-5.67 4.876l-.045.271-.072.024A3.001 3.001 0 0 0 15 23v7H5a1 1 0 0 1-1-1V3a1 1 0 0 1 1-1zm-4 17a2 2 0 0 0-2 2v1h4v-1a2 2 0 0 0-2-2m-8-5h-4a1 1 0 0 0 0 2h4a1 1 0 0 0 0-2m6-6H11a1 1 0 0 0 0 2h10a1 1 0 0 0 0-2"/></svg>