<svg xmlns="http://www.w3.org/2000/svg" viewBox="0 0 32 32"><path fill="currentColor" fill-rule="nonzero" d="m20.402 2.376 5.196 3a1 1 0 0 1 .419 1.261l-.053.105-.844 1.46.02.023a11.995 11.995 0 0 1 2.012 3.337l.164.438H29a1 1 0 0 1 1 1v6a1 1 0 0 1-.883.993L29 20h-1.684l-.01.03a11.988 11.988 0 0 1-2.165 3.745l-.021.022.844 1.461a1 1 0 0 1-.268 1.302l-.098.064-5.196 3a1 1 0 0 1-1.302-.268l-.064-.098-.843-1.46-.079.016c-.554.099-1.117.159-1.686.179L16 28c-.715 0-1.421-.063-2.114-.186l-.08-.015-.842 1.46a1 1 0 0 1-1.261.418l-.105-.053-5.196-3a1 1 0 0 1-.419-1.261l.053-.105.843-1.461-.02-.022a11.988 11.988 0 0 1-2.165-3.745L4.683 20H3a1 1 0 0 1-.993-.883L2 19v-6a1 1 0 0 1 1-1h1.683l.01-.03a11.98 11.98 0 0 1 1.89-3.409l.296-.36-.843-1.46a1 1 0 0 1 .268-1.301l.098-.064 5.196-3a1 1 0 0 1 1.302.268l.064.098.843 1.459.079-.015a12.038 12.038 0 0 1 1.686-.179L16 4c.715 0 1.421.063 2.114.186l.078.015.844-1.46a1 1 0 0 1 1.366-.365m3.33 4.232-3.465-2-1.084 1.879-.732-.185C17.656 6.102 16.835 6 16 6s-1.656.102-2.45.302l-.733.185-1.085-1.88-3.465 2L9.354 8.49l-.527.542a9.988 9.988 0 0 0-2.45 4.24L6.17 14H4v4h2.17l.206.728a9.988 9.988 0 0 0 2.451 4.24l.527.542-1.087 1.882 3.465 2 1.085-1.879.732.185c.795.2 1.616.302 2.451.302s1.656-.102 2.45-.302l.733-.185 1.084 1.879 3.465-2-1.086-1.882.527-.542a9.988 9.988 0 0 0 2.45-4.24L25.83 18H28v-4h-2.17l-.206-.728a9.988 9.988 0 0 0-2.451-4.24l-.527-.542zM16 9a7 7 0 1 1 0 14 7 7 0 0 1 0-14m0 2a5 5 0 1 0 0 10 5 5 0 0 0 0-10"/></svg>