<svg xmlns="http://www.w3.org/2000/svg" viewBox="0 0 32 32"><path fill="currentColor" fill-rule="nonzero" d="M24 6a4 4 0 0 1 4 4v.342a6.002 6.002 0 0 1 0 11.316V22a4 4 0 0 1-4 4H8a4 4 0 0 1-4-4v-.341A6.002 6.002 0 0 1 4 10.34V10a4 4 0 0 1 4-4zm0 2H8a2 2 0 0 0-2 2v12a2 2 0 0 0 2 2h16a2 2 0 0 0 2-2V10a2 2 0 0 0-2-2m-8 4a1 1 0 0 1 1 1v2h2a1 1 0 0 1 0 2h-2v2a1 1 0 0 1-2 0v-2h-2a1 1 0 0 1 0-2h2v-2a1 1 0 0 1 1-1M2 16c0 1.48.804 2.773 2 3.465v-6.93A3.998 3.998 0 0 0 2 16m26.001-3.464v6.928A3.998 3.998 0 0 0 30 16c0-1.48-.804-2.772-1.999-3.464"/></svg>