<svg xmlns="http://www.w3.org/2000/svg" viewBox="0 0 32 32"><path fill="currentColor" fill-rule="evenodd" d="M27 2a1 1 0 0 1 1 1v16.127l-1.321-.192-1.706-3.457a2.2 2.2 0 0 0-3.946 0l-1.707 3.457-3.815.555a2.2 2.2 0 0 0-1.259.642l-.115.128a2.2 2.2 0 0 0 .155 2.983l2.76 2.691-.651 3.8a2.2 2.2 0 0 0-.03.267L5 30a1 1 0 0 1-1-1V3a1 1 0 0 1 1-1zm-3.557 15.363a1 1 0 0 1 .454.454l1.454 2.947 3.252.472a1 1 0 0 1 .555 1.706l-2.354 2.294.556 3.24a1 1 0 0 1-1.451 1.053L23 28l-2.909 1.53a1 1 0 0 1-1.45-1.055l.555-3.239-2.354-2.294a1 1 0 0 1 .555-1.706l3.252-.472 1.454-2.947a1 1 0 0 1 1.34-.454M15 14h-4a1 1 0 0 0 0 2h4a1 1 0 0 0 0-2m6-6H11a1 1 0 0 0 0 2h10a1 1 0 0 0 0-2"/></svg>