<svg xmlns="http://www.w3.org/2000/svg" viewBox="0 0 32 32"><path fill="currentColor" fill-rule="nonzero" d="M23.707 13.293a1 1 0 0 1 0 1.414l-14 14a1 1 0 1 1-1.414-1.414l2.292-2.294L7 25a1 1 0 0 1-1-1v-6a1 1 0 0 1 1-1l11.585-.001 3.708-3.706a1 1 0 0 1 1.414 0M24.243 17H29a1 1 0 0 1 1 1v6a1 1 0 0 1-1 1H16.242l2.001-2H22v-3.757zm-7.658 1.999L8 19v4l4.585-.001zM28 19h-4v4h4zM3 17a1 1 0 0 1 1 1v6a1 1 0 0 1-2 0v-6a1 1 0 0 1 1-1M5 6.5a1 1 0 0 1 1 1v4a1 1 0 0 1-2 0v-4a1 1 0 0 1 1-1M9 3a1 1 0 0 1 1 1v7.5a1 1 0 0 1-2 0V4a1 1 0 0 1 1-1"/></svg>