<svg xmlns="http://www.w3.org/2000/svg" viewBox="0 0 32 32"><path fill="currentColor" fill-rule="nonzero" d="M19.832 2.445a1 1 0 0 1-.277 1.387c-.716.477-1.387 1.332-1.862 2.327 3.372.672 5.313 3.462 5.753 8.12l.012.134.067.043c2.211 1.456 3.386 3.563 3.47 6.233L27 21c0 5.186-4.131 9-11 9S5 26.186 5 21c0-2.713 1.093-4.868 3.225-6.373l.316-.214.013-.134c.493-5.217 2.868-8.092 7.028-8.27.617-1.612 1.664-3.042 2.863-3.841a1 1 0 0 1 1.387.277M15.06 8.062l-.135.02c-2.71.441-4.157 2.665-4.427 6.98a1 1 0 0 1-.502.806C7.974 17.024 7 18.693 7 21c0 4.044 3.202 7 9 7s9-2.956 9-7c0-2.307-.974-3.976-2.996-5.132a1 1 0 0 1-.502-.806c-.27-4.313-1.716-6.537-4.424-6.98A5.603 5.603 0 0 0 17 9a1 1 0 0 1-2 0c0-.31.02-.624.06-.938"/></svg>