<svg xmlns="http://www.w3.org/2000/svg" viewBox="0 0 32 32"><path fill="currentColor" fill-rule="nonzero" d="M27 2a1 1 0 0 1 1 1v15.968l-2-.303V4H6v24h10.575l-.343 2H5a1 1 0 0 1-1-1V3a1 1 0 0 1 1-1zm-3.103 15.557 1.53 3.102 3.423.497a1 1 0 0 1 .633 1.62l-.079.086-2.477 2.414.585 3.41a1 1 0 0 1-1.35 1.1l-.1-.047L23 28.13l-3.061 1.61a1 1 0 0 1-1.464-.945l.013-.11.584-3.409-2.476-2.414a1 1 0 0 1 .44-1.683l.114-.023 3.422-.497 1.531-3.102a1 1 0 0 1 1.794 0M23 20.26l-.867 1.757a1 1 0 0 1-.753.547l-1.938.281 1.403 1.367a1 1 0 0 1 .3.763l-.013.122-.331 1.929 1.734-.91a1 1 0 0 1 .819-.05l.111.05 1.733.91-.33-1.929a1 1 0 0 1 .205-.794l.082-.091 1.402-1.367-1.937-.281a1 1 0 0 1-.693-.441l-.06-.106zM15 14a1 1 0 0 1 0 2h-4a1 1 0 0 1 0-2zm6-6a1 1 0 0 1 0 2H11a1 1 0 0 1 0-2z"/></svg>