<svg xmlns="http://www.w3.org/2000/svg" viewBox="0 0 32 32"><path fill="currentColor" fill-rule="nonzero" d="M15.293 9.293a1 1 0 0 1 1.414 0l10 10a1 1 0 0 1-1.414 1.414l-9.294-9.293-.014.015-.328.328-.21.21-.246.246-.286.286-.513.513-.195.195-.19.19-.357.357-.327.328-.447.446-.274.274-.627.627-.358.358-.36.36-.123.123-.518.518-.282.283-.806.805-.996.997-1.536 1.535-.299.3a1 1 0 1 1-1.414-1.415l.858-.858.976-.977.997-.996.805-.806.283-.282.518-.518.123-.123.36-.36.358-.358.627-.627.274-.274.446-.447.328-.327.357-.357.19-.19.195-.195.513-.513.286-.286.246-.246.21-.21.394-.394.06-.06.198-.198.08-.08.242-.242z"/></svg>