<svg xmlns="http://www.w3.org/2000/svg" viewBox="0 0 32 32"><path fill="currentColor" fill-rule="nonzero" d="M10.871 2.41c.855-.417 1.755.482 1.337 1.337A11.936 11.936 0 0 0 11 9c0 6.627 5.373 12 12 12 1.846 0 3.63-.416 5.252-1.207.855-.417 1.754.482 1.337 1.337A13.997 13.997 0 0 1 17 29C9.268 29 3 22.732 3 15a13.999 13.999 0 0 1 7.871-12.59M9.386 5.721l-.192.162A11.99 11.99 0 0 0 5 15c0 6.627 5.373 12 12 12 3.583 0 6.88-1.584 9.115-4.193l.162-.194-.322.074c-.824.178-1.669.28-2.526.307L23 23C15.268 23 9 16.732 9 9c0-1.005.106-1.994.313-2.957z"/></svg>