<svg xmlns="http://www.w3.org/2000/svg" viewBox="0 0 32 32"><path fill="currentColor" fill-rule="nonzero" d="M25.914 3a1.1 1.1 0 0 1 1.087.933l1.991 12.943c.31 2.472-1.471 4.124-3.805 4.124-1.165 0-2.229-.409-2.993-1.13l-.167-.169c-.698.781-1.7 1.245-2.827 1.295L19 21c-1.141 0-2.168-.421-2.896-1.16L16 19.73l-.104.112c-.685.695-1.635 1.108-2.696 1.155L13 21c-1.128 0-2.144-.411-2.87-1.133l-.157-.166-.008.01c-.729.774-1.78 1.236-2.946 1.285L6.812 21c-2.333 0-4.113-1.652-3.8-4.152l1.974-12.83A1.2 1.2 0 0 1 6.172 3zM11 17c0 1.253.84 2 2 2 1.16 0 2-.747 2-2h2c0 1.253.84 2 2 2 1.16 0 2-.747 2-2h2c0 1.227.93 2 2.188 2 1.213 0 1.967-.699 1.824-1.848L25.142 5H6.859L4.992 17.124c-.14 1.126.543 1.814 1.665 1.872l.155.004C8.07 19 9 18.227 9 17zm-3 5.893V27h16v-4.104a6.768 6.768 0 0 0 2 .056V28a1 1 0 0 1-1 1H7a1 1 0 0 1-1-1l-.001-5.048a6.8 6.8 0 0 0 .814.048l.248-.005.301-.019c.216-.018.429-.046.638-.083"/></svg>