<svg xmlns="http://www.w3.org/2000/svg" viewBox="0 0 32 32"><path fill="currentColor" fill-rule="nonzero" d="M20 2a1 1 0 0 1 .707.293L27.415 9H29a1 1 0 0 1 1 1v13a1 1 0 0 1-1 1h-1v5a1 1 0 0 1-1 1H5a1 1 0 0 1-1-1v-5H3a1 1 0 0 1-1-1V10a1 1 0 0 1 1-1h1V3a1 1 0 0 1 1-1zm6 22H6v4h20zm2-13H4v11h24zm-9.6 1.5a1.1 1.1 0 0 1 1.1 1.1v3.8a1.1 1.1 0 0 1-1.1 1.1h-2.9v2h-2v-8zm4.1 0v4h1v-4h2v4h1v2h-1v2h-2v-2h-1.9a1.1 1.1 0 0 1-1.1-1.1v-4.9zm-12.229 0H12.5v8h-2v-4.881L9 17.72l-1.5-2.1v4.88h-2v-8h2.228L9 14.279zm7.229 2h-2v2h2zM19.585 4H6v5h18.585z"/></svg>