<svg xmlns="http://www.w3.org/2000/svg" viewBox="0 0 32 32"><path fill="currentColor" fill-rule="nonzero" d="M21 2a1 1 0 0 1 1 1v3a4 4 0 0 1 4 4h3a1 1 0 0 1 0 2h-3v3h3a1 1 0 0 1 0 2h-3v3h3a1 1 0 0 1 0 2h-3a4 4 0 0 1-4 4v3a1 1 0 0 1-2 0v-3h-3v3a1 1 0 0 1-2 0v-3h-3v3a1 1 0 0 1-2 0v-3a4 4 0 0 1-4-4H3a1 1 0 0 1 0-2h3v-3H3a1 1 0 0 1 0-2h3v-3H3a1 1 0 0 1 0-2h3a4 4 0 0 1 4-4V3a1 1 0 0 1 2 0v3h3V3a1 1 0 0 1 2 0v3h3V3a1 1 0 0 1 1-1m1 6H10a2 2 0 0 0-2 2v12a2 2 0 0 0 2 2h12a2 2 0 0 0 2-2V10a2 2 0 0 0-2-2"/></svg>