<svg xmlns="http://www.w3.org/2000/svg" viewBox="0 0 32 32"><path fill="currentColor" fill-rule="nonzero" d="M16 1c4.878 0 8.94 3.493 9.822 8.114A3.001 3.001 0 0 1 28 12v2c0 1.348-.89 2.489-2.114 2.867L23.99 30.141A1 1 0 0 1 23 31H9a1 1 0 0 1-.99-.859L6.114 16.867A3.001 3.001 0 0 1 4 14v-2c0-1.372.92-2.529 2.178-2.886C7.06 4.493 11.122 1 16 1m7.847 16H8.152l1.714 12h12.267zM15 25a1 1 0 1 1 0 2 1 1 0 0 1 0-2m4-2a1 1 0 1 1 0 2 1 1 0 0 1 0-2m-6-2a1 1 0 1 1 0 2 1 1 0 0 1 0-2m4-2a1 1 0 1 1 0 2 1 1 0 0 1 0-2m8-8H7a1 1 0 0 0-1 1v2a1 1 0 0 0 1 1h18a1 1 0 0 0 1-1v-2a1 1 0 0 0-1-1m-9-8a8.003 8.003 0 0 0-7.748 6h15.496C22.86 5.55 19.728 3 16 3"/></svg>