<svg xmlns="http://www.w3.org/2000/svg" viewBox="0 0 32 32"><path fill="currentColor" fill-rule="nonzero" d="M16 4c6.627 0 12 5.373 12 12 0 4.169-2.126 7.84-5.352 9.992l1.72 3.012a1 1 0 1 1-1.736.992l-1.736-3.037A11.958 11.958 0 0 1 16 28c-1.744 0-3.4-.372-4.896-1.04l-1.736 3.036a1 1 0 1 1-1.736-.992l1.721-3.013A11.984 11.984 0 0 1 4 16C4 9.373 9.373 4 16 4m0 2C10.477 6 6 10.477 6 16s4.477 10 10 10 10-4.477 10-10S21.523 6 16 6m-1 3a1 1 0 0 1 1 1v6h5a1 1 0 0 1 .993.883L22 17a1 1 0 0 1-1 1h-6a1 1 0 0 1-1-1v-7a1 1 0 0 1 1-1m10-7a5 5 0 0 1 3.779 8.274A13.94 13.94 0 0 0 27.7 8.31a3 3 0 0 0-4.01-4.01 13.918 13.918 0 0 0-1.963-1.078A4.974 4.974 0 0 1 25 2M7 2a4.98 4.98 0 0 1 3.274 1.221A13.94 13.94 0 0 0 8.31 4.3 3 3 0 0 0 4.3 8.31c-.409.621-.77 1.277-1.078 1.963A5 5 0 0 1 7 2"/></svg>