<svg xmlns="http://www.w3.org/2000/svg" viewBox="0 0 32 32"><path fill="currentColor" fill-rule="nonzero" d="M27.813 4.186c3.686 3.686 2.347 8.158-2.143 11.497-2.604 1.936-5.72 3.094-8.165 3.054l-4.541 4.54a4 4 0 1 1-6.828 2.736l.008-.159-.158.008a3.988 3.988 0 0 1-2.777-1.033l-.145-.137a4 4 0 0 1 5.657-5.657l4.54-4.54c-.04-2.446 1.118-5.562 3.054-8.166 3.34-4.49 7.812-5.83 11.498-2.143M8.721 24.692a2 2 0 1 0 2.828 2.828 2 2 0 0 0-2.828-2.828m-4.243-4.243a2 2 0 1 0 2.829 2.828 2 2 0 0 0-2.829-2.828m9.304-3.647-4.025 4.025c.098.37.143.75.135 1.13l-.008.157.158-.007c.38-.009.76.036 1.129.135l4.026-4.025a3.334 3.334 0 0 1-.82-.596 3.334 3.334 0 0 1-.595-.819m4.138-9.28c-2.43 3.268-3.357 7.455-2.128 8.684 1.23 1.23 5.416.302 8.684-2.128 3.635-2.703 4.571-5.83 1.923-8.478-2.649-2.649-5.776-1.712-8.479 1.922"/></svg>