<svg xmlns="http://www.w3.org/2000/svg" viewBox="0 0 32 32"><path fill="currentColor" fill-rule="nonzero" d="M13 3a7 7 0 1 1 0 14 7 7 0 0 1 0-14m7 0a7 7 0 1 1-1.216 13.895 9.029 9.029 0 0 0 1.717-1.92 5 5 0 0 0 0-9.95 9.041 9.041 0 0 0-1.716-1.92C19.179 3.036 19.585 3 20 3m-7 2a5 5 0 1 0 0 10 5 5 0 0 0 0-10m9.897 13.998L25 19a5 5 0 0 1 5 5v4a1 1 0 0 1-1 1h-4.001v-2H28v-3a3 3 0 0 0-2.824-2.995L25 21h-.674a7.018 7.018 0 0 0-1.429-2.002M18 19a5 5 0 0 1 5 5v4a1 1 0 0 1-1 1H4a1 1 0 0 1-1-1v-4a5 5 0 0 1 5-5zm0 2H8a3 3 0 0 0-3 3v3h16v-3a3 3 0 0 0-2.824-2.995z"/></svg>