<svg xmlns="http://www.w3.org/2000/svg" viewBox="0 0 32 32"><path fill="currentColor" fill-rule="nonzero" d="M21 3c0-.89 1.077-1.337 1.707-.707l8.5 8.5a1 1 0 0 1 0 1.414l-8.5 8.5c-.63.63-1.707.184-1.707-.707v-3H10a1 1 0 0 1-.993-.883L9 16v-1.586L2.915 20.5 9 26.585V25a1 1 0 0 1 .883-.993L10 24h12a1 1 0 0 1 0 2H11v3c0 .852-.986 1.297-1.623.783l-.084-.076-8.5-8.5a1 1 0 0 1 0-1.414l8.5-8.5c.63-.63 1.707-.184 1.707.707v3h11a1 1 0 0 1 .993.883L23 16v1.584l6.085-6.084L23 5.415V7a1 1 0 0 1-.883.993L22 8H10a1 1 0 1 1 0-2h11z"/></svg>