<svg xmlns="http://www.w3.org/2000/svg" viewBox="0 0 32 32"><path fill="currentColor" fill-rule="nonzero" d="M16 3c7.109 0 13 2.946 13 7 0 1.094-.429 2.107-1.194 3.003C28.579 13.908 29 14.925 29 16c0 1.093-.428 2.106-1.193 3.002C28.578 19.907 29 20.923 29 22c0 4.054-5.891 7-13 7S3 26.054 3 22c0-1.076.422-2.092 1.194-2.999C3.428 18.106 3 17.093 3 16c0-1.075.421-2.091 1.193-2.997C3.43 12.107 3 11.093 3 10c0-4.054 5.891-7 13-7m10.31 17.33-.159.108C23.757 22.03 20.08 23 16 23c-4.17 0-7.92-1.013-10.309-2.67C5.23 20.882 5 21.446 5 22c0 2.573 4.854 5 11 5s11-2.427 11-5c0-.555-.229-1.12-.69-1.67m0-6-.159.108C23.757 16.03 20.08 17 16 17c-4.17 0-7.922-1.014-10.31-2.67C5.227 14.88 5 15.444 5 16c0 2.573 4.854 5 11 5s11-2.427 11-5c0-.493-.18-.994-.545-1.486zM16 5C9.854 5 5 7.427 5 10s4.854 5 11 5 11-2.427 11-5-4.854-5-11-5"/></svg>