<svg xmlns="http://www.w3.org/2000/svg" viewBox="0 0 32 32"><path fill="currentColor" fill-rule="nonzero" d="m16.263 1.535 11 3A1 1 0 0 1 28 5.5v13c0 4.835-3.954 8.789-11.621 11.926a1 1 0 0 1-.758 0C7.954 27.289 4 23.335 4 18.5v-13a1 1 0 0 1 .737-.965l11-3a1 1 0 0 1 .526 0M16 3.536 6 6.263V18.5c0 3.681 3.12 6.945 9.572 9.735l.428.182.029-.012c6.588-2.77 9.84-6.016 9.967-9.68L26 18.5V6.263zm6.707 7.257a1 1 0 0 1 0 1.414l-7.5 7.5a1 1 0 0 1-1.414 0l-4-4a1 1 0 0 1 1.414-1.414l3.293 3.292 6.793-6.792a1 1 0 0 1 1.414 0"/></svg>