<svg xmlns="http://www.w3.org/2000/svg" viewBox="0 0 32 32"><path fill="currentColor" fill-rule="nonzero" d="M13 3c2.304 0 4.407.866 5.999 2.29A7 7 0 0 1 28 12c.552.001 1 .449 1 1.001a12.99 12.99 0 0 1-5.999 10.955L23 26a2 2 0 0 1-2 2H11a2 2 0 0 1-2-2v-2.044A12.99 12.99 0 0 1 3 13a1 1 0 0 1 1-1 9 9 0 0 1 9-9m8 21H11v2h10zm5.954-10H5.045l.032.308a10.99 10.99 0 0 0 4.597 7.693h12.652a10.99 10.99 0 0 0 4.597-7.693zM21 7c-.168 0-.335.008-.5.025a8.956 8.956 0 0 1 1.5 4.974h3.999l-.004-.216A5 5 0 0 0 21 7m-8-2a7 7 0 0 0-7 6.999h2l.005-.216A5 5 0 0 1 18 12h2l-.004-.24A7 7 0 0 0 13 5m0 4a3 3 0 0 0-3 2.999h6l-.005-.175A3 3 0 0 0 13 9"/></svg>