<svg xmlns="http://www.w3.org/2000/svg" viewBox="0 0 32 32"><path fill="currentColor" fill-rule="evenodd" d="M22 19.5c2.843 0 5.387 1.647 7.632 4.94a.995.995 0 0 1 .001 1.12c-2.246 3.293-4.79 4.94-7.633 4.94s-5.387-1.647-7.632-4.94a.995.995 0 0 1-.001-1.12c2.246-3.293 4.79-4.94 7.633-4.94M27 2a1 1 0 0 1 1 1v16.683c-1.818-1.437-3.823-2.183-6-2.183-3.58 0-6.696 2.017-9.285 5.812a2.998 2.998 0 0 0 .003 3.377c.902 1.323 1.868 2.43 2.896 3.311H5a1 1 0 0 1-1-1V3a1 1 0 0 1 1-1zm-5 21.5a1.5 1.5 0 1 0 0 3 1.5 1.5 0 0 0 0-3M15 14h-4a1 1 0 0 0 0 2h4a1 1 0 0 0 0-2m6-6H11a1 1 0 0 0 0 2h10a1 1 0 0 0 0-2"/></svg>