<svg xmlns="http://www.w3.org/2000/svg" viewBox="0 0 32 32"><path fill="currentColor" fill-rule="nonzero" d="m23.778 1.15 7.071 7.072a1 1 0 0 1-.51 1.688l-5.24 1.047.093.093a4 4 0 0 1 0 5.657l-8.485 8.485a4 4 0 0 1-5.657 0l-.093-.093-1.047 5.24a1 1 0 0 1-1.688.51L1.15 23.78a1 1 0 0 1 .51-1.689L6.9 21.042l-.092-.092a4 4 0 0 1 0-5.657l8.485-8.485a4 4 0 0 1 5.657 0l.092.092 1.048-5.238a1 1 0 0 1 1.688-.511M8.6 22.743l-4.714.943 4.428 4.428.943-4.714zm11.349-3.621H7.903c.086.148.192.288.319.415l4.242 4.242a2 2 0 0 0 2.829 0zm4.148-4.242-14.047-.001-1.828 1.83a2.003 2.003 0 0 0-.319.413H21.95l1.83-1.828c.126-.127.232-.266.318-.414m-7.39-6.657-4.657 4.656h12.047a2.003 2.003 0 0 0-.319-.414l-4.242-4.242a2 2 0 0 0-2.829 0m6.978-4.336L22.742 8.6l.657.657 4.714-.943z"/></svg>