<svg xmlns="http://www.w3.org/2000/svg" viewBox="0 0 32 32"><path fill="currentColor" fill-rule="nonzero" d="M20 2a1 1 0 0 1 .707.293L27.415 9H29a1 1 0 0 1 1 1v13a1 1 0 0 1-1 1h-1v5a1 1 0 0 1-1 1H5a1 1 0 0 1-1-1v-5H3a1 1 0 0 1-1-1V10a1 1 0 0 1 1-1h1V3a1 1 0 0 1 1-1zm6 22H6v4h20zm2-13H4v11h24zm-16.5 1.5v2.414L7.914 18.5H11.5v2h-6v-2.414L9.085 14.5H5.5v-2zm7 0v2H17v4h1.5v2h-5v-2H15v-4h-1.5v-2zm6.9 0a1.1 1.1 0 0 1 1.1 1.1v3.8a1.1 1.1 0 0 1-1.1 1.1h-2.9v2h-2v-8zm-.9 2h-2v2h2zM19.585 4H6v5h18.585z"/></svg>