<svg xmlns="http://www.w3.org/2000/svg" viewBox="0 0 32 32"><path fill="currentColor" fill-rule="nonzero" d="M16 1a7.5 7.5 0 1 1 0 15 7.5 7.5 0 0 1 0-15m0 2a5.5 5.5 0 1 0 0 11 5.5 5.5 0 0 0 0-11m3.432 14.213a1 1 0 0 1 1.18-.37A13.003 13.003 0 0 1 29 29a1 1 0 0 1-1 1H4a1 1 0 0 1-1-1c0-5.446 3.38-10.258 8.389-12.158a1 1 0 0 1 1.18.37L16 22.23zm1.189 1.802-3.796 5.55a1 1 0 0 1-1.65 0l-3.796-5.55-.11.05a11.006 11.006 0 0 0-6.202 8.72L5.045 28h21.909l-.02-.214a11.006 11.006 0 0 0-6.203-8.719z"/></svg>