<svg xmlns="http://www.w3.org/2000/svg" viewBox="0 0 32 32"><path fill="currentColor" fill-rule="nonzero" d="M23 17a7 7 0 1 1 0 14 7 7 0 0 1 0-14m4-15a1 1 0 0 1 1 1l.001 13.516a8.968 8.968 0 0 0-2-1.004L26 4H6v24l8.936.001c.362.728.82 1.4 1.356 2L5 30a1 1 0 0 1-1-1V3a1 1 0 0 1 1-1zm-4 17a5 5 0 1 0 0 10 5 5 0 0 0 0-10m-1.293 2.293L23 22.585l1.293-1.292a1 1 0 0 1 1.414 1.414L24.415 24l1.292 1.293a1 1 0 0 1-1.414 1.414L23 25.415l-1.293 1.292a1 1 0 0 1-1.414-1.414L21.585 24l-1.292-1.293a1 1 0 0 1 1.414-1.414M15 14a1 1 0 0 1 0 2h-4a1 1 0 0 1 0-2zm6-6a1 1 0 0 1 0 2H11a1 1 0 0 1 0-2z"/></svg>