<svg xmlns="http://www.w3.org/2000/svg" viewBox="0 0 32 32"><path fill="currentColor" fill-rule="nonzero" d="M23.071 23.071a1 1 0 1 1 1.414 1.414 1 1 0 0 1-1.414-1.414m-15.556 0a1 1 0 1 1 1.414 1.414 1 1 0 0 1-1.414-1.414M16 8a8 8 0 1 1 0 16 8 8 0 0 1 0-16m0 2a6 6 0 1 0 0 12 6 6 0 0 0 0-12m7.071-2.485a1 1 0 1 1 1.414 1.414 1 1 0 0 1-1.414-1.414m-15.556 0a1 1 0 1 1 1.414 1.414 1 1 0 0 1-1.414-1.414M16 6a1 1 0 1 0 0-2 1 1 0 0 0 0 2m10 10a1 1 0 1 0 2 0 1 1 0 0 0-2 0M16 26a1 1 0 1 0 0 2 1 1 0 0 0 0-2M6 16a1 1 0 1 0-2 0 1 1 0 0 0 2 0"/></svg>