<svg xmlns="http://www.w3.org/2000/svg" viewBox="0 0 32 32"><path fill="currentColor" fill-rule="nonzero" d="M8 4v2H6v22h20V6h-2V4h3a1 1 0 0 1 1 1v24a1 1 0 0 1-1 1H5a1 1 0 0 1-1-1V5a1 1 0 0 1 1-1zm12.5 15a1 1 0 0 1 .814 1.581l-2.5 3.5a1 1 0 1 1-1.628-1.162L18.556 21H11a1 1 0 0 1-.993-.883L10 20a1 1 0 0 1 1-1zm-5.919-7.314a1 1 0 0 1 .233 1.395L13.442 15H21a1 1 0 0 1 .993.883L22 16a1 1 0 0 1-1 1h-9.5a1 1 0 0 1-.814-1.581l2.5-3.5a1 1 0 0 1 1.395-.233M21 2a1 1 0 0 1 1 1v4a1 1 0 0 1-1 1H11a1 1 0 0 1-1-1V3a1 1 0 0 1 1-1zm-1 2h-8v2h8z"/></svg>