<svg xmlns="http://www.w3.org/2000/svg" viewBox="0 0 32 32"><path fill="currentColor" fill-rule="nonzero" d="M16 2a7.004 7.004 0 0 1 6.711 5.004l.25.015a5.501 5.501 0 0 1 5.017 4.98L28 12v1c0 6.29-4.84 11.45-11 11.959V28h3a1 1 0 0 1 0 2h-8a1 1 0 0 1 0-2h3v-3.041C8.84 24.451 4 19.291 4 13v-1h.022A5.5 5.5 0 0 1 9.29 7.003 7.003 7.003 0 0 1 16 2m9.949 12H6.05l.01.108c.542 4.91 4.639 8.75 9.66 8.888L16 23c5.148 0 9.388-3.89 9.94-8.892zM16 4a5.005 5.005 0 0 0-4.704 3.3 5.504 5.504 0 0 1 3.682 4.7h2.044a5.505 5.505 0 0 1 3.681-4.7A5.002 5.002 0 0 0 16 4m6.5 5a3.5 3.5 0 0 0-3.464 3h6.928A3.5 3.5 0 0 0 22.5 9m-13 0a3.5 3.5 0 0 0-3.464 3h6.928A3.5 3.5 0 0 0 9.5 9"/></svg>