<svg xmlns="http://www.w3.org/2000/svg" viewBox="0 0 32 32"><path fill="currentColor" fill-rule="nonzero" d="M16 2c7.732 0 14 6.268 14 14s-6.268 14-14 14S2 23.732 2 16 8.268 2 16 2m-2.031 17.447-5.718 5.716a11.947 11.947 0 0 0 6.75 2.796v-8.085a3.976 3.976 0 0 1-1.032-.427m3.032.427v8.085a11.947 11.947 0 0 0 6.748-2.796l-5.718-5.716a3.976 3.976 0 0 1-1.03.427M27.959 17h-8.085c-.095.367-.24.713-.427 1.031l5.716 5.718A11.947 11.947 0 0 0 27.96 17m-15.833 0H4.041a11.947 11.947 0 0 0 2.796 6.749l5.716-5.718a3.976 3.976 0 0 1-.427-1.03M16 14a2 2 0 1 0 0 4 2 2 0 0 0 0-4M4.041 15h8.085c.094-.366.24-.713.427-1.031L6.837 8.251a11.947 11.947 0 0 0-2.796 6.75m21.122-6.749-5.716 5.718c.188.318.333.665.427 1.031h8.085a11.947 11.947 0 0 0-2.796-6.749M17 4.041v8.085c.367.095.713.24 1.031.427l5.718-5.716A11.947 11.947 0 0 0 17 4.04M8.251 6.837l5.718 5.716A3.976 3.976 0 0 1 15 12.126V4.041a11.947 11.947 0 0 0-6.749 2.796"/></svg>