<svg xmlns="http://www.w3.org/2000/svg" viewBox="0 0 32 32"><path fill="currentColor" fill-rule="nonzero" d="M20.329 2.157a14.485 14.485 0 0 1 5.495 3.178 1 1 0 0 1 .32.79l-.226 4.148 3.71 1.881a1 1 0 0 1 .488.552l.036.122c.23 1.034.348 2.096.348 3.172 0 1.077-.118 2.14-.349 3.174a1 1 0 0 1-.523.673l-3.71 1.88.227 4.148a1 1 0 0 1-.233.698l-.088.092a14.485 14.485 0 0 1-5.496 3.178 1 1 0 0 1-.845-.117L16 27.454l-3.483 2.272a1 1 0 0 1-.721.147l-.124-.03a14.485 14.485 0 0 1-5.495-3.177 1 1 0 0 1-.32-.79l.224-4.15-3.709-1.88a1 1 0 0 1-.488-.552l-.036-.122A14.547 14.547 0 0 1 1.5 16c0-1.076.117-2.138.348-3.172a1 1 0 0 1 .524-.674l3.709-1.881-.225-4.15a1 1 0 0 1 .233-.697l.088-.092a14.485 14.485 0 0 1 5.495-3.177 1 1 0 0 1 .845.117L16 4.546l3.484-2.272a1 1 0 0 1 .845-.117m-.158 2.056-3.625 2.365a1 1 0 0 1-1.092 0l-3.625-2.365-.363.135a12.485 12.485 0 0 0-3.29 1.902l-.297.247.234 4.319a1 1 0 0 1-.434.88l-.112.066-3.86 1.958-.073.443c-.067.453-.109.911-.126 1.373L3.5 16c0 .62.045 1.233.134 1.838l.073.443 3.86 1.957a1 1 0 0 1 .545.815l.001.131-.234 4.319.297.247c.993.797 2.102 1.44 3.29 1.902l.363.135 3.625-2.365a1 1 0 0 1 .978-.064l.114.064 3.624 2.365.365-.135a12.485 12.485 0 0 0 3.29-1.903l.296-.247-.234-4.318a1 1 0 0 1 .434-.88l.112-.066 3.858-1.956.075-.444c.067-.453.109-.912.126-1.374L28.5 16c0-.62-.045-1.233-.134-1.837l-.074-.443-3.859-1.958a1 1 0 0 1-.545-.816l-.001-.13.234-4.318-.296-.247a12.485 12.485 0 0 0-3.29-1.903zM16 10a6 6 0 1 1 0 12 6 6 0 0 1 0-12m0 2a4 4 0 1 0 0 8 4 4 0 0 0 0-8"/></svg>