<svg xmlns="http://www.w3.org/2000/svg" viewBox="0 0 32 32"><path fill="currentColor" fill-rule="nonzero" d="M27.262 20.152C25.573 24.733 21.168 28 16 28a11.951 11.951 0 0 1-7.673-2.773 31.596 31.596 0 0 0 3.306-.229A9.956 9.956 0 0 0 16 26a9.99 9.99 0 0 0 8.28-4.39 31.666 31.666 0 0 0 2.982-1.458M16 4c3.952 0 7.458 1.91 9.644 4.858 3.192.232 5.326 1.192 5.81 3 .935 3.49-5.368 7.651-13.901 9.938C9.02 24.082 1.48 23.629.545 20.14c-.485-1.809.884-3.707 3.532-5.503C4.753 8.652 9.833 4 16 4m0 2C10.477 6 6 10.477 6 16c0 1.903.531 3.68 1.454 5.195 2.605.039 5.992-.37 9.581-1.331 3.59-.962 6.726-2.301 8.962-3.639L26 16c0-5.523-4.477-10-10-10M4.055 17.155l-.02.017c-1.183 1.005-1.708 1.89-1.558 2.451.176.658 1.126 1.132 2.613 1.378a11.897 11.897 0 0 1-1.035-3.846m22.87-6.127.058.13c.51 1.156.843 2.407.965 3.72 1.165-.958 1.751-1.844 1.575-2.501-.151-.565-1.058-1.07-2.597-1.349"/></svg>