<svg xmlns="http://www.w3.org/2000/svg" viewBox="0 0 32 32"><path fill="currentColor" fill-rule="nonzero" d="M25 2a1 1 0 0 1 .984 1.179l-1.97 10.838A9.956 9.956 0 0 1 26 20c0 5.523-4.477 10-10 10S6 25.523 6 20c0-2.244.74-4.315 1.987-5.984L6.017 3.18A1 1 0 0 1 7 2zm-9 10a8 8 0 1 0 0 16 8 8 0 0 0 0-16m-2 13a1 1 0 0 1 0-2h1v-6h-1a1 1 0 0 1-.993-.883L13 16a1 1 0 0 1 1-1h2a1 1 0 0 1 1 1v7h1a1 1 0 0 1 0 2zm9.802-21H20v6.832a10 10 0 0 1 2.305 1.406zM12 4H8.197l1.499 8.237A10 10 0 0 1 12 10.832zm6 0h-4v6.2a10.046 10.046 0 0 1 4 0z"/></svg>