<svg xmlns="http://www.w3.org/2000/svg" viewBox="0 0 32 32"><path fill="currentColor" fill-rule="nonzero" d="M13 3a1 1 0 0 1 1 1v9a1 1 0 0 1-1 1H4a1 1 0 0 1-1-1V4a1 1 0 0 1 1-1zm-1 2H5v7h7zm16-2a1 1 0 0 1 1 1v9a1 1 0 0 1-1 1h-9a1 1 0 0 1-1-1V4a1 1 0 0 1 1-1zm-1 2h-7v7h7zM13 18a1 1 0 0 1 1 1v9a1 1 0 0 1-1 1H4a1 1 0 0 1-1-1v-9a1 1 0 0 1 1-1zm-1 2H5v7h7zm7-2a1 1 0 0 1 1 1v9a1 1 0 0 1-2 0v-9a1 1 0 0 1 1-1m9 0a1 1 0 0 1 1 1v9a1 1 0 0 1-2 0v-9a1 1 0 0 1 1-1m-4.5 5a1 1 0 0 1 1 1v4a1 1 0 0 1-2 0v-4a1 1 0 0 1 1-1m0-5a1 1 0 0 1 1 1v1a1 1 0 0 1-2 0v-1a1 1 0 0 1 1-1"/></svg>