<svg xmlns="http://www.w3.org/2000/svg" viewBox="0 0 32 32"><path fill="currentColor" fill-rule="nonzero" d="M17 3a1 1 0 0 1 .97 1.243l-.373 1.489 3.848-2.564a1 1 0 0 1 .437-.161L22 3h7a1 1 0 0 1 .868 1.496c-1.119 1.958-1.74 4.457-1.85 7.504h.882a1.1 1.1 0 0 1 1.1 1.1V20a4 4 0 0 1-4 4h-4v4.9a1.1 1.1 0 0 1-.98 1.094L20.9 30h-9.8a1.1 1.1 0 0 1-1.1-1.1V24H6a4 4 0 0 1-3.995-3.8L2 20v-6.9A1.1 1.1 0 0 1 3.1 12h.914c.106-3.691.812-6.542 2.154-8.555A1 1 0 0 1 7 3zm11 11H4v6a2 2 0 0 0 1.85 1.995L6 22h6v6h8v-6h6a2 2 0 0 0 2-2zM15.718 5h-8.16c-.929 1.645-1.45 3.976-1.543 7h20.002c.086-2.577.513-4.836 1.286-6.772L27.397 5h-5.095l-5.747 3.832c-.73.486-1.665-.132-1.547-.965l.022-.11z"/></svg>