<svg xmlns="http://www.w3.org/2000/svg" viewBox="0 0 32 32"><path fill="currentColor" fill-rule="nonzero" d="M5 21a1 1 0 0 1 1 1v6a1 1 0 0 1-2 0v-6a1 1 0 0 1 1-1m7-5a1 1 0 0 1 1 1v11a1 1 0 0 1-2 0V17a1 1 0 0 1 1-1m7 3a1 1 0 0 1 1 1v8a1 1 0 0 1-2 0v-8a1 1 0 0 1 1-1m7-3a1 1 0 0 1 1 1v11a1 1 0 0 1-2 0V17a1 1 0 0 1 1-1M23 3h5l.075.003.126.017.111.03.111.044.098.052.096.067.09.08c.036.035.068.073.097.112l.071.11.054.114.035.105.03.148L29 4v5a1 1 0 0 1-2 0V6.414l-7.293 7.293a1 1 0 0 1-1.288.107l-6.311-4.508-7.4 7.401a1 1 0 0 1-1.32.083l-.095-.083a1 1 0 0 1 0-1.414l8-8a1 1 0 0 1 1.288-.107l6.31 4.507L25.584 5H23a1 1 0 0 1-.993-.883L22 4a1 1 0 0 1 1-1"/></svg>