<svg xmlns="http://www.w3.org/2000/svg" viewBox="0 0 32 32"><path fill="currentColor" fill-rule="nonzero" d="M20 4a1 1 0 0 1 .97.757l2.812 11.247.109-.003L24 16a6 6 0 1 1-5.917 7h-4.166A6.002 6.002 0 0 1 2 22a6 6 0 0 1 5.617-5.988L6.279 12H3a1 1 0 0 1-.993-.883L2 11a1 1 0 0 1 1-1h4a1 1 0 0 1 .949.684l1.866 5.595c.38.12.742.277 1.084.467l8.984-8.087L19.218 6H15a1 1 0 0 1-.993-.883L14 5a1 1 0 0 1 1-1zM8 18a4 4 0 1 0 3.874 5H9a1 1 0 0 1 0-2h2.874A4.002 4.002 0 0 0 8 18m16 0a4 4 0 1 0 0 8 4 4 0 0 0 0-8m-2.18-1.592-1.388-5.553-7.95 7.156a5.979 5.979 0 0 1 1.435 2.99h4.166a6.009 6.009 0 0 1 3.738-4.593"/></svg>