<svg xmlns="http://www.w3.org/2000/svg" viewBox="0 0 32 32"><path fill="currentColor" fill-rule="nonzero" d="M5 15a1 1 0 0 1 1 1c0 5.523 4.477 10 10 10 2.48 0 4.811-.907 6.614-2.499L20.5 23.5a1 1 0 0 1-.993-.883L19.5 22.5a1 1 0 0 1 1-1H25a1 1 0 0 1 1 1V27a1 1 0 0 1-2 0l.001-2.056A11.962 11.962 0 0 1 16 28C9.373 28 4 22.627 4 16a1 1 0 0 1 1-1M16 4c6.627 0 12 5.373 12 12a1 1 0 0 1-2 0c0-5.523-4.477-10-10-10-2.48 0-4.812.908-6.614 2.499L11.5 8.5a1 1 0 0 1 .993.883l.007.117a1 1 0 0 1-1 1H7a1 1 0 0 1-1-1V5a1 1 0 1 1 2 0v2.056A11.963 11.963 0 0 1 16 4"/></svg>