<svg xmlns="http://www.w3.org/2000/svg" viewBox="0 0 32 32"><path fill="currentColor" fill-rule="nonzero" d="M18 2c1.479 0 2.928.23 4.308.676.924.298.923 1.605 0 1.903A12.004 12.004 0 0 0 14.167 18h-2.024a14.042 14.042 0 0 1-.14-1.674L12 16c0-4.917 2.558-9.34 6.537-11.849l.206-.127-.32-.017L18 4C11.373 4 6 9.373 6 16c0 .682.057 1.35.166 2H4.142A14.119 14.119 0 0 1 4 16C4 8.268 10.268 2 18 2m12 18a1 1 0 0 1 0 2H2a1 1 0 0 1 0-2zm-13 4a1 1 0 0 1 0 2H5a1 1 0 0 1 0-2zm0 4a1 1 0 0 1 0 2h-7a1 1 0 0 1 0-2z"/></svg>