<svg xmlns="http://www.w3.org/2000/svg" viewBox="0 0 32 32"><path fill="currentColor" fill-rule="nonzero" d="M15 2c7.18 0 13 5.82 13 13 0 3.23-1.178 6.184-3.127 8.458l4.834 4.835a1 1 0 0 1-1.414 1.414l-4.835-4.834A12.949 12.949 0 0 1 15 28C7.82 28 2 22.18 2 15S7.82 2 15 2m0 2C8.925 4 4 8.925 4 15s4.925 11 11 11 11-4.925 11-11S21.075 4 15 4m-2.293 7.293L15 13.585l2.293-2.292a1 1 0 0 1 1.414 1.414L16.415 15l2.292 2.293a1 1 0 0 1-1.414 1.414L15 16.415l-2.293 2.292a1 1 0 0 1-1.414-1.414L13.585 15l-2.292-2.293a1 1 0 0 1 1.414-1.414"/></svg>