<svg xmlns="http://www.w3.org/2000/svg" viewBox="0 0 32 32"><path fill="currentColor" fill-rule="nonzero" d="M23 2a1 1 0 0 1 1 1v1h5a1 1 0 0 1 1 1v24a1 1 0 0 1-1 1H3a1 1 0 0 1-1-1V5a1 1 0 0 1 1-1h5V3a1 1 0 1 1 2 0v1h12V3a1 1 0 0 1 1-1m5 10H4v16h24zM11 22a1 1 0 0 1 0 2H9a1 1 0 0 1 0-2zm6 0a1 1 0 0 1 0 2h-2a1 1 0 0 1 0-2zm6 0a1 1 0 0 1 0 2h-2a1 1 0 0 1 0-2zm-12-6a1 1 0 0 1 0 2H9a1 1 0 0 1 0-2zm6 0a1 1 0 0 1 0 2h-2a1 1 0 0 1 0-2zm6 0a1 1 0 0 1 0 2h-2a1 1 0 0 1 0-2zM8 6H4v4h24V6h-4v1a1 1 0 0 1-2 0V6H10v1a1 1 0 1 1-2 0z"/></svg>