<svg xmlns="http://www.w3.org/2000/svg" viewBox="0 0 32 32"><path fill="currentColor" fill-rule="nonzero" d="M20 2a1 1 0 0 1 1 1l.001 4.338A9.996 9.996 0 0 1 26 16a9.996 9.996 0 0 1-4.999 8.662L21 29a1 1 0 0 1-1 1h-8a1 1 0 0 1-1-1v-4.338A9.996 9.996 0 0 1 6 16a9.996 9.996 0 0 1 5-8.662V3a1 1 0 0 1 1-1zm-4 24a9.996 9.996 0 0 1-3-.458V28h6v-2.458A9.996 9.996 0 0 1 16 26m0-18a8 8 0 1 0 0 16 8 8 0 0 0 0-16m-1 3a1 1 0 0 1 1 1v4h3a1 1 0 0 1 .993.883L20 17a1 1 0 0 1-1 1h-4a1 1 0 0 1-1-1v-5a1 1 0 0 1 1-1m4-7h-6v2.458A9.996 9.996 0 0 1 16 6c1.046 0 2.054.16 3 .458z"/></svg>