<svg xmlns="http://www.w3.org/2000/svg" viewBox="0 0 32 32"><path fill="currentColor" fill-rule="nonzero" d="M20 2a1 1 0 0 1 .707.293L27.415 9H29a1 1 0 0 1 1 1v13a1 1 0 0 1-1 1h-1v5a1 1 0 0 1-1 1H5a1 1 0 0 1-1-1v-5H3a1 1 0 0 1-1-1V10a1 1 0 0 1 1-1h1V3a1 1 0 0 1 1-1zm6 22H6v4h20zm2-13H4v11h24zm-17.6 1.5a1.1 1.1 0 0 1 1.1 1.1v5.8a1.1 1.1 0 0 1-1.1 1.1H5.5v-8zm6.871 0H19.5v8h-2v-4.881L16 17.72l-1.5-2.1v4.88h-2v-8h2.228L16 14.279zm8.729 0v2h-3.5v4h2v-1h-1v-2h1.9a1.1 1.1 0 0 1 1.1 1.1v2.8a1.1 1.1 0 0 1-1.1 1.1h-3.8a1.1 1.1 0 0 1-1.1-1.1v-5.8a1.1 1.1 0 0 1 1.1-1.1zm-16.5 2h-2v4h2zM19.585 4H6v5h18.585z"/></svg>