<svg xmlns="http://www.w3.org/2000/svg" viewBox="0 0 32 32"><path fill="currentColor" fill-rule="nonzero" d="m22.851 18.011.06-.007L23 18l.075.003.126.017.089.023.107.039.103.052.082.053.04.03.085.076 4 4a1 1 0 0 1-1.414 1.414L24 21.415V29a1 1 0 0 1-2 0v-7.585l-2.293 2.292a1 1 0 0 1-1.32.083l-.094-.083a1 1 0 0 1 0-1.414l4-4c.038-.038.078-.073.12-.103l.109-.069.107-.05.105-.035zM16 2a6 6 0 0 1 6 6v1h4a1 1 0 0 1 .994.89l.679 6.11H25.66l-.556-5H22v3a1 1 0 0 1-2 0v-3h-8v3a1 1 0 0 1-2 0v-3H6.894L5.116 27H16v2H4a1 1 0 0 1-.994-1.11l2-18A1 1 0 0 1 6 9h4V8a6 6 0 0 1 6-6m0 2a4 4 0 0 0-4 4v1h8V8a4 4 0 0 0-4-4"/></svg>