<svg xmlns="http://www.w3.org/2000/svg" viewBox="0 0 32 32"><path fill="currentColor" fill-rule="nonzero" d="M26.314 5.686c3.905 3.906 3.905 10.237 0 14.142-3.166 3.166-7.927 3.766-11.696 1.799l-6.69 6.687a3 3 0 1 1-4.242-4.243l6.687-6.689c-1.967-3.77-1.367-8.53 1.799-11.696 3.905-3.905 10.236-3.905 14.142 0m-14.815 13.4-6.398 6.4a1 1 0 1 0 1.414 1.413l6.399-6.398a10.12 10.12 0 0 1-1.415-1.415m3.303-12.985.207-.075a7.501 7.501 0 0 1 7.576 1.595l.193.187a6 6 0 0 1 0 8.485 4.5 4.5 0 0 1-6.364 0 4 4 0 0 1 0-5.657 1 1 0 1 1 1.414 1.414 2 2 0 0 0-.116 2.701l.116.128a2.5 2.5 0 0 0 3.536 0 4 4 0 0 0 0-5.657 5.5 5.5 0 0 0-7.778 0 6.5 6.5 0 0 0 0 9.192 8 8 0 1 0 1.216-12.313"/></svg>