<svg xmlns="http://www.w3.org/2000/svg" viewBox="0 0 32 32"><path fill="currentColor" fill-rule="nonzero" d="M14.293 2.293C14.923 1.663 16 2.109 16 3v26c0 .89-1.077 1.337-1.707.707L7.585 23H2a1 1 0 0 1-.993-.883L1 22V10a1 1 0 0 1 1-1h5.584zM14 5.414l-5.293 5.293A1 1 0 0 1 8 11H3v10h5a1 1 0 0 1 .608.206l.1.087L14 26.585zm5.536 7.05a5 5 0 0 1 0 7.072 1 1 0 0 1-1.415-1.415 3 3 0 0 0 0-4.242 1 1 0 0 1 1.415-1.415m7.07-7.07c5.858 5.857 5.858 15.355 0 21.213a1 1 0 1 1-1.414-1.415c5.077-5.076 5.077-13.308 0-18.384a1 1 0 0 1 1.415-1.415m-3.535 3.535c3.905 3.905 3.905 10.237 0 14.142a1 1 0 0 1-1.414-1.414 8 8 0 0 0 0-11.314A1 1 0 0 1 23.07 8.93"/></svg>