<svg xmlns="http://www.w3.org/2000/svg" viewBox="0 0 32 32"><path fill="currentColor" fill-rule="nonzero" d="M29.832 24.445a1 1 0 0 1 0 1.11c-4.396 6.593-11.268 6.593-15.664 0a1 1 0 0 1 0-1.11c4.396-6.593 11.268-6.593 15.664 0M27 2a1 1 0 0 1 1 1v16.581a11.292 11.292 0 0 0-2-1.187V4H6v24h7.49a14.38 14.38 0 0 0 1.975 2H5a1 1 0 0 1-1-1V3a1 1 0 0 1 1-1zM16.34 24.84l-.119.16.12.16c3.393 4.454 7.925 4.454 11.318 0l.119-.16-.119-.16c-3.393-4.454-7.925-4.454-11.318 0M22 23.5a1.5 1.5 0 1 1 0 3 1.5 1.5 0 0 1 0-3M15 14a1 1 0 0 1 0 2h-4a1 1 0 0 1 0-2zm6-6a1 1 0 0 1 0 2H11a1 1 0 0 1 0-2z"/></svg>